%FSLAX45Y45*%
G04 Gerber Fmt 4.5, Leading zero omitted, Abs format (unit mm)*
G04 Created by KiCad (PCBNEW (5.0.0)) date 10/05/18 03:01:42*
%MOMM*%
%LPD*%
G01*
G04 APERTURE LIST*
%ADD10C,0.200000*%
%ADD11C,0.300000*%
G04 APERTURE END LIST*
D10*
X19478640Y-9426760D02*
X19478640Y-6099360D01*
X19082400Y-4560120D02*
X13723000Y-4560120D01*
X19224640Y-4702360D02*
X19082400Y-4560120D01*
X19224640Y-5845360D02*
X19224640Y-4702360D01*
X19478640Y-6099360D02*
X19224640Y-5845360D01*
X19224640Y-9680760D02*
X19478640Y-9426760D01*
X19224640Y-9950000D02*
X19224640Y-9680760D01*
X13723000Y-9950000D02*
X19224640Y-9950000D01*
X13723000Y-4560120D02*
X13723000Y-9950000D01*
D10*
X15751271Y-7170857D02*
X15831271Y-7250857D01*
X15831271Y-7170857D02*
X15751271Y-7250857D01*
X15751271Y-7932857D02*
X15831271Y-8012857D01*
X15831271Y-7932857D02*
X15751271Y-8012857D01*
X16005271Y-7170857D02*
X16085271Y-7250857D01*
X16085271Y-7170857D02*
X16005271Y-7250857D01*
X16005271Y-7932857D02*
X16085271Y-8012857D01*
X16085271Y-7932857D02*
X16005271Y-8012857D01*
X16259271Y-7170857D02*
X16339271Y-7250857D01*
X16339271Y-7170857D02*
X16259271Y-7250857D01*
X16259271Y-7932857D02*
X16339271Y-8012857D01*
X16339271Y-7932857D02*
X16259271Y-8012857D01*
X16513271Y-7170857D02*
X16593271Y-7250857D01*
X16593271Y-7170857D02*
X16513271Y-7250857D01*
X16513271Y-7932857D02*
X16593271Y-8012857D01*
X16593271Y-7932857D02*
X16513271Y-8012857D01*
X15510000Y-9060000D02*
X15590000Y-9140000D01*
X15590000Y-9060000D02*
X15510000Y-9140000D01*
X15760000Y-9060000D02*
X15840000Y-9140000D01*
X15840000Y-9060000D02*
X15760000Y-9140000D01*
X14550000Y-7500000D02*
G75*
G03X14550000Y-7500000I-50000J0D01*
G01*
X14804000Y-7500000D02*
G75*
G03X14804000Y-7500000I-50000J0D01*
G01*
X15058000Y-7500000D02*
G75*
G03X15058000Y-7500000I-50000J0D01*
G01*
X15842877Y-8298189D02*
G75*
G03X15842877Y-8298189I-50000J0D01*
G01*
X16096877Y-8298189D02*
G75*
G03X16096877Y-8298189I-50000J0D01*
G01*
X16350877Y-8298189D02*
G75*
G03X16350877Y-8298189I-50000J0D01*
G01*
X16604877Y-8298189D02*
G75*
G03X16604877Y-8298189I-50000J0D01*
G01*
X15841861Y-6882901D02*
G75*
G03X15841861Y-6882901I-50000J0D01*
G01*
X16095861Y-6882901D02*
G75*
G03X16095861Y-6882901I-50000J0D01*
G01*
X16349861Y-6882901D02*
G75*
G03X16349861Y-6882901I-50000J0D01*
G01*
X16603861Y-6882901D02*
G75*
G03X16603861Y-6882901I-50000J0D01*
G01*
X18596000Y-8500000D02*
G75*
G03X18596000Y-8500000I-50000J0D01*
G01*
X18850000Y-8500000D02*
G75*
G03X18850000Y-8500000I-50000J0D01*
G01*
X14550000Y-8300000D02*
G75*
G03X14550000Y-8300000I-50000J0D01*
G01*
X14550000Y-8554000D02*
G75*
G03X14550000Y-8554000I-50000J0D01*
G01*
X14550000Y-8808000D02*
G75*
G03X14550000Y-8808000I-50000J0D01*
G01*
X14804000Y-8300000D02*
G75*
G03X14804000Y-8300000I-50000J0D01*
G01*
X14804000Y-8554000D02*
G75*
G03X14804000Y-8554000I-50000J0D01*
G01*
X14804000Y-8808000D02*
G75*
G03X14804000Y-8808000I-50000J0D01*
G01*
X18596000Y-8000000D02*
G75*
G03X18596000Y-8000000I-50000J0D01*
G01*
X18850000Y-8000000D02*
G75*
G03X18850000Y-8000000I-50000J0D01*
G01*
X18596000Y-7000000D02*
G75*
G03X18596000Y-7000000I-50000J0D01*
G01*
X18850000Y-7000000D02*
G75*
G03X18850000Y-7000000I-50000J0D01*
G01*
X18596000Y-7500000D02*
G75*
G03X18596000Y-7500000I-50000J0D01*
G01*
X18850000Y-7500000D02*
G75*
G03X18850000Y-7500000I-50000J0D01*
G01*
X14977600Y-4792250D02*
X14977600Y-4893850D01*
X14926800Y-4843050D02*
X15028400Y-4843050D01*
X15231600Y-4792250D02*
X15231600Y-4893850D01*
X15180800Y-4843050D02*
X15282400Y-4843050D01*
X15485600Y-4792250D02*
X15485600Y-4893850D01*
X15434800Y-4843050D02*
X15536400Y-4843050D01*
X15739600Y-4792250D02*
X15739600Y-4893850D01*
X15688800Y-4843050D02*
X15790400Y-4843050D01*
X15892000Y-9618250D02*
X15892000Y-9719850D01*
X15841200Y-9669050D02*
X15942800Y-9669050D01*
X15993600Y-4792250D02*
X15993600Y-4893850D01*
X15942800Y-4843050D02*
X16044400Y-4843050D01*
X16146000Y-9618250D02*
X16146000Y-9719850D01*
X16095200Y-9669050D02*
X16196800Y-9669050D01*
X16247600Y-4792250D02*
X16247600Y-4893850D01*
X16196800Y-4843050D02*
X16298400Y-4843050D01*
X16400000Y-9618250D02*
X16400000Y-9719850D01*
X16349200Y-9669050D02*
X16450800Y-9669050D01*
X16501600Y-4792250D02*
X16501600Y-4893850D01*
X16450800Y-4843050D02*
X16552400Y-4843050D01*
X16654000Y-9618250D02*
X16654000Y-9719850D01*
X16603200Y-9669050D02*
X16704800Y-9669050D01*
X16755600Y-4792250D02*
X16755600Y-4893850D01*
X16704800Y-4843050D02*
X16806400Y-4843050D01*
X16908000Y-9618250D02*
X16908000Y-9719850D01*
X16857200Y-9669050D02*
X16958800Y-9669050D01*
X17162000Y-4792250D02*
X17162000Y-4893850D01*
X17111200Y-4843050D02*
X17212800Y-4843050D01*
X17162000Y-9618250D02*
X17162000Y-9719850D01*
X17111200Y-9669050D02*
X17212800Y-9669050D01*
X17416000Y-4792250D02*
X17416000Y-4893850D01*
X17365200Y-4843050D02*
X17466800Y-4843050D01*
X17670000Y-4792250D02*
X17670000Y-4893850D01*
X17619200Y-4843050D02*
X17720800Y-4843050D01*
X17670000Y-9618250D02*
X17670000Y-9719850D01*
X17619200Y-9669050D02*
X17720800Y-9669050D01*
X17924000Y-4792250D02*
X17924000Y-4893850D01*
X17873200Y-4843050D02*
X17974800Y-4843050D01*
X17924000Y-9618250D02*
X17924000Y-9719850D01*
X17873200Y-9669050D02*
X17974800Y-9669050D01*
X18178000Y-4792250D02*
X18178000Y-4893850D01*
X18127200Y-4843050D02*
X18228800Y-4843050D01*
X18178000Y-9618250D02*
X18178000Y-9719850D01*
X18127200Y-9669050D02*
X18228800Y-9669050D01*
X18432000Y-4792250D02*
X18432000Y-4893850D01*
X18381200Y-4843050D02*
X18482800Y-4843050D01*
X18432000Y-9618250D02*
X18432000Y-9719850D01*
X18381200Y-9669050D02*
X18482800Y-9669050D01*
X18686000Y-4792250D02*
X18686000Y-4893850D01*
X18635200Y-4843050D02*
X18736800Y-4843050D01*
X18686000Y-9618250D02*
X18686000Y-9719850D01*
X18635200Y-9669050D02*
X18736800Y-9669050D01*
X18940000Y-4792250D02*
X18940000Y-4893850D01*
X18889200Y-4843050D02*
X18990800Y-4843050D01*
X18940000Y-9618250D02*
X18940000Y-9719850D01*
X18889200Y-9669050D02*
X18990800Y-9669050D01*
X14538891Y-6388891D02*
X14538891Y-6311109D01*
X14461109Y-6311109D01*
X14461109Y-6388891D01*
X14538891Y-6388891D01*
X14538891Y-7038891D02*
X14538891Y-6961109D01*
X14461109Y-6961109D01*
X14461109Y-7038891D01*
X14538891Y-7038891D01*
X14988891Y-6388891D02*
X14988891Y-6311109D01*
X14911109Y-6311109D01*
X14911109Y-6388891D01*
X14988891Y-6388891D01*
X14988891Y-7038891D02*
X14988891Y-6961109D01*
X14911109Y-6961109D01*
X14911109Y-7038891D01*
X14988891Y-7038891D01*
X13987000Y-9827800D02*
X14145750Y-9669050D01*
X13987000Y-9510300D01*
X13828250Y-9669050D01*
X13987000Y-9827800D01*
X14114000Y-5001800D02*
X14272750Y-4843050D01*
X14114000Y-4684300D01*
X13955250Y-4843050D01*
X14114000Y-5001800D01*
X19194000Y-6525800D02*
X19352750Y-6367050D01*
X19194000Y-6208300D01*
X19035250Y-6367050D01*
X19194000Y-6525800D01*
X19194000Y-9319800D02*
X19352750Y-9161050D01*
X19194000Y-9002300D01*
X19035250Y-9161050D01*
X19194000Y-9319800D01*
D11*
X13999428Y-10425714D02*
X13999428Y-10125714D01*
X14070857Y-10125714D01*
X14113714Y-10140000D01*
X14142286Y-10168572D01*
X14156571Y-10197143D01*
X14170857Y-10254286D01*
X14170857Y-10297143D01*
X14156571Y-10354286D01*
X14142286Y-10382857D01*
X14113714Y-10411429D01*
X14070857Y-10425714D01*
X13999428Y-10425714D01*
X14299428Y-10425714D02*
X14299428Y-10225714D01*
X14299428Y-10282857D02*
X14313714Y-10254286D01*
X14328000Y-10240000D01*
X14356571Y-10225714D01*
X14385143Y-10225714D01*
X14485143Y-10425714D02*
X14485143Y-10225714D01*
X14485143Y-10125714D02*
X14470857Y-10140000D01*
X14485143Y-10154286D01*
X14499428Y-10140000D01*
X14485143Y-10125714D01*
X14485143Y-10154286D01*
X14670857Y-10425714D02*
X14642286Y-10411429D01*
X14628000Y-10382857D01*
X14628000Y-10125714D01*
X14828000Y-10425714D02*
X14799428Y-10411429D01*
X14785143Y-10382857D01*
X14785143Y-10125714D01*
X15170857Y-10425714D02*
X15170857Y-10125714D01*
X15270857Y-10340000D01*
X15370857Y-10125714D01*
X15370857Y-10425714D01*
X15642286Y-10425714D02*
X15642286Y-10268572D01*
X15628000Y-10240000D01*
X15599428Y-10225714D01*
X15542286Y-10225714D01*
X15513714Y-10240000D01*
X15642286Y-10411429D02*
X15613714Y-10425714D01*
X15542286Y-10425714D01*
X15513714Y-10411429D01*
X15499428Y-10382857D01*
X15499428Y-10354286D01*
X15513714Y-10325714D01*
X15542286Y-10311429D01*
X15613714Y-10311429D01*
X15642286Y-10297143D01*
X15785143Y-10225714D02*
X15785143Y-10525714D01*
X15785143Y-10240000D02*
X15813714Y-10225714D01*
X15870857Y-10225714D01*
X15899428Y-10240000D01*
X15913714Y-10254286D01*
X15928000Y-10282857D01*
X15928000Y-10368572D01*
X15913714Y-10397143D01*
X15899428Y-10411429D01*
X15870857Y-10425714D01*
X15813714Y-10425714D01*
X15785143Y-10411429D01*
X16056571Y-10397143D02*
X16070857Y-10411429D01*
X16056571Y-10425714D01*
X16042286Y-10411429D01*
X16056571Y-10397143D01*
X16056571Y-10425714D01*
X16056571Y-10240000D02*
X16070857Y-10254286D01*
X16056571Y-10268572D01*
X16042286Y-10254286D01*
X16056571Y-10240000D01*
X16056571Y-10268572D01*
X13633000Y-10880000D02*
X13713000Y-10960000D01*
X13713000Y-10880000D02*
X13633000Y-10960000D01*
X14056571Y-10755714D02*
X14085143Y-10755714D01*
X14113714Y-10770000D01*
X14128000Y-10784286D01*
X14142286Y-10812857D01*
X14156571Y-10870000D01*
X14156571Y-10941429D01*
X14142286Y-10998572D01*
X14128000Y-11027143D01*
X14113714Y-11041429D01*
X14085143Y-11055714D01*
X14056571Y-11055714D01*
X14028000Y-11041429D01*
X14013714Y-11027143D01*
X13999428Y-10998572D01*
X13985143Y-10941429D01*
X13985143Y-10870000D01*
X13999428Y-10812857D01*
X14013714Y-10784286D01*
X14028000Y-10770000D01*
X14056571Y-10755714D01*
X14285143Y-11027143D02*
X14299428Y-11041429D01*
X14285143Y-11055714D01*
X14270857Y-11041429D01*
X14285143Y-11027143D01*
X14285143Y-11055714D01*
X14470857Y-10884286D02*
X14442286Y-10870000D01*
X14428000Y-10855714D01*
X14413714Y-10827143D01*
X14413714Y-10812857D01*
X14428000Y-10784286D01*
X14442286Y-10770000D01*
X14470857Y-10755714D01*
X14528000Y-10755714D01*
X14556571Y-10770000D01*
X14570857Y-10784286D01*
X14585143Y-10812857D01*
X14585143Y-10827143D01*
X14570857Y-10855714D01*
X14556571Y-10870000D01*
X14528000Y-10884286D01*
X14470857Y-10884286D01*
X14442286Y-10898572D01*
X14428000Y-10912857D01*
X14413714Y-10941429D01*
X14413714Y-10998572D01*
X14428000Y-11027143D01*
X14442286Y-11041429D01*
X14470857Y-11055714D01*
X14528000Y-11055714D01*
X14556571Y-11041429D01*
X14570857Y-11027143D01*
X14585143Y-10998572D01*
X14585143Y-10941429D01*
X14570857Y-10912857D01*
X14556571Y-10898572D01*
X14528000Y-10884286D01*
X14770857Y-10755714D02*
X14799428Y-10755714D01*
X14828000Y-10770000D01*
X14842286Y-10784286D01*
X14856571Y-10812857D01*
X14870857Y-10870000D01*
X14870857Y-10941429D01*
X14856571Y-10998572D01*
X14842286Y-11027143D01*
X14828000Y-11041429D01*
X14799428Y-11055714D01*
X14770857Y-11055714D01*
X14742286Y-11041429D01*
X14728000Y-11027143D01*
X14713714Y-10998572D01*
X14699428Y-10941429D01*
X14699428Y-10870000D01*
X14713714Y-10812857D01*
X14728000Y-10784286D01*
X14742286Y-10770000D01*
X14770857Y-10755714D01*
X14999428Y-11055714D02*
X14999428Y-10855714D01*
X14999428Y-10884286D02*
X15013714Y-10870000D01*
X15042286Y-10855714D01*
X15085143Y-10855714D01*
X15113714Y-10870000D01*
X15128000Y-10898572D01*
X15128000Y-11055714D01*
X15128000Y-10898572D02*
X15142286Y-10870000D01*
X15170857Y-10855714D01*
X15213714Y-10855714D01*
X15242286Y-10870000D01*
X15256571Y-10898572D01*
X15256571Y-11055714D01*
X15399428Y-11055714D02*
X15399428Y-10855714D01*
X15399428Y-10884286D02*
X15413714Y-10870000D01*
X15442286Y-10855714D01*
X15485143Y-10855714D01*
X15513714Y-10870000D01*
X15528000Y-10898572D01*
X15528000Y-11055714D01*
X15528000Y-10898572D02*
X15542286Y-10870000D01*
X15570857Y-10855714D01*
X15613714Y-10855714D01*
X15642286Y-10870000D01*
X15656571Y-10898572D01*
X15656571Y-11055714D01*
X16242286Y-10741429D02*
X15985143Y-11127143D01*
X16628000Y-10755714D02*
X16656571Y-10755714D01*
X16685143Y-10770000D01*
X16699428Y-10784286D01*
X16713714Y-10812857D01*
X16728000Y-10870000D01*
X16728000Y-10941429D01*
X16713714Y-10998572D01*
X16699428Y-11027143D01*
X16685143Y-11041429D01*
X16656571Y-11055714D01*
X16628000Y-11055714D01*
X16599428Y-11041429D01*
X16585143Y-11027143D01*
X16570857Y-10998572D01*
X16556571Y-10941429D01*
X16556571Y-10870000D01*
X16570857Y-10812857D01*
X16585143Y-10784286D01*
X16599428Y-10770000D01*
X16628000Y-10755714D01*
X16856571Y-11027143D02*
X16870857Y-11041429D01*
X16856571Y-11055714D01*
X16842286Y-11041429D01*
X16856571Y-11027143D01*
X16856571Y-11055714D01*
X17056571Y-10755714D02*
X17085143Y-10755714D01*
X17113714Y-10770000D01*
X17128000Y-10784286D01*
X17142286Y-10812857D01*
X17156571Y-10870000D01*
X17156571Y-10941429D01*
X17142286Y-10998572D01*
X17128000Y-11027143D01*
X17113714Y-11041429D01*
X17085143Y-11055714D01*
X17056571Y-11055714D01*
X17028000Y-11041429D01*
X17013714Y-11027143D01*
X16999428Y-10998572D01*
X16985143Y-10941429D01*
X16985143Y-10870000D01*
X16999428Y-10812857D01*
X17013714Y-10784286D01*
X17028000Y-10770000D01*
X17056571Y-10755714D01*
X17256571Y-10755714D02*
X17442286Y-10755714D01*
X17342286Y-10870000D01*
X17385143Y-10870000D01*
X17413714Y-10884286D01*
X17428000Y-10898572D01*
X17442286Y-10927143D01*
X17442286Y-10998572D01*
X17428000Y-11027143D01*
X17413714Y-11041429D01*
X17385143Y-11055714D01*
X17299428Y-11055714D01*
X17270857Y-11041429D01*
X17256571Y-11027143D01*
X17728000Y-11055714D02*
X17556571Y-11055714D01*
X17642286Y-11055714D02*
X17642286Y-10755714D01*
X17613714Y-10798572D01*
X17585143Y-10827143D01*
X17556571Y-10841429D01*
X17842286Y-10755714D02*
X17842286Y-10812857D01*
X17956571Y-10755714D02*
X17956571Y-10812857D01*
X18399428Y-11170000D02*
X18385143Y-11155714D01*
X18356571Y-11112857D01*
X18342286Y-11084286D01*
X18328000Y-11041429D01*
X18313714Y-10970000D01*
X18313714Y-10912857D01*
X18328000Y-10841429D01*
X18342286Y-10798572D01*
X18356571Y-10770000D01*
X18385143Y-10727143D01*
X18399428Y-10712857D01*
X18670857Y-11055714D02*
X18499428Y-11055714D01*
X18585143Y-11055714D02*
X18585143Y-10755714D01*
X18556571Y-10798572D01*
X18528000Y-10827143D01*
X18499428Y-10841429D01*
X18856571Y-10755714D02*
X18885143Y-10755714D01*
X18913714Y-10770000D01*
X18928000Y-10784286D01*
X18942286Y-10812857D01*
X18956571Y-10870000D01*
X18956571Y-10941429D01*
X18942286Y-10998572D01*
X18928000Y-11027143D01*
X18913714Y-11041429D01*
X18885143Y-11055714D01*
X18856571Y-11055714D01*
X18828000Y-11041429D01*
X18813714Y-11027143D01*
X18799428Y-10998572D01*
X18785143Y-10941429D01*
X18785143Y-10870000D01*
X18799428Y-10812857D01*
X18813714Y-10784286D01*
X18828000Y-10770000D01*
X18856571Y-10755714D01*
X19313714Y-11055714D02*
X19313714Y-10755714D01*
X19442286Y-11055714D02*
X19442286Y-10898572D01*
X19428000Y-10870000D01*
X19399428Y-10855714D01*
X19356571Y-10855714D01*
X19328000Y-10870000D01*
X19313714Y-10884286D01*
X19628000Y-11055714D02*
X19599428Y-11041429D01*
X19585143Y-11027143D01*
X19570857Y-10998572D01*
X19570857Y-10912857D01*
X19585143Y-10884286D01*
X19599428Y-10870000D01*
X19628000Y-10855714D01*
X19670857Y-10855714D01*
X19699428Y-10870000D01*
X19713714Y-10884286D01*
X19728000Y-10912857D01*
X19728000Y-10998572D01*
X19713714Y-11027143D01*
X19699428Y-11041429D01*
X19670857Y-11055714D01*
X19628000Y-11055714D01*
X19899428Y-11055714D02*
X19870857Y-11041429D01*
X19856571Y-11012857D01*
X19856571Y-10755714D01*
X20128000Y-11041429D02*
X20099428Y-11055714D01*
X20042286Y-11055714D01*
X20013714Y-11041429D01*
X19999428Y-11012857D01*
X19999428Y-10898572D01*
X20013714Y-10870000D01*
X20042286Y-10855714D01*
X20099428Y-10855714D01*
X20128000Y-10870000D01*
X20142286Y-10898572D01*
X20142286Y-10927143D01*
X19999428Y-10955714D01*
X20256571Y-11041429D02*
X20285143Y-11055714D01*
X20342286Y-11055714D01*
X20370857Y-11041429D01*
X20385143Y-11012857D01*
X20385143Y-10998572D01*
X20370857Y-10970000D01*
X20342286Y-10955714D01*
X20299428Y-10955714D01*
X20270857Y-10941429D01*
X20256571Y-10912857D01*
X20256571Y-10898572D01*
X20270857Y-10870000D01*
X20299428Y-10855714D01*
X20342286Y-10855714D01*
X20370857Y-10870000D01*
X20485143Y-11170000D02*
X20499428Y-11155714D01*
X20528000Y-11112857D01*
X20542286Y-11084286D01*
X20556571Y-11041429D01*
X20570857Y-10970000D01*
X20570857Y-10912857D01*
X20556571Y-10841429D01*
X20542286Y-10798572D01*
X20528000Y-10770000D01*
X20499428Y-10727143D01*
X20485143Y-10712857D01*
X13713000Y-11316000D02*
G75*
G03X13713000Y-11316000I-50000J0D01*
G01*
X14156571Y-11451714D02*
X13985143Y-11451714D01*
X14070857Y-11451714D02*
X14070857Y-11151714D01*
X14042286Y-11194571D01*
X14013714Y-11223143D01*
X13985143Y-11237429D01*
X14285143Y-11423143D02*
X14299428Y-11437429D01*
X14285143Y-11451714D01*
X14270857Y-11437429D01*
X14285143Y-11423143D01*
X14285143Y-11451714D01*
X14485143Y-11151714D02*
X14513714Y-11151714D01*
X14542286Y-11166000D01*
X14556571Y-11180286D01*
X14570857Y-11208857D01*
X14585143Y-11266000D01*
X14585143Y-11337429D01*
X14570857Y-11394571D01*
X14556571Y-11423143D01*
X14542286Y-11437429D01*
X14513714Y-11451714D01*
X14485143Y-11451714D01*
X14456571Y-11437429D01*
X14442286Y-11423143D01*
X14428000Y-11394571D01*
X14413714Y-11337429D01*
X14413714Y-11266000D01*
X14428000Y-11208857D01*
X14442286Y-11180286D01*
X14456571Y-11166000D01*
X14485143Y-11151714D01*
X14770857Y-11151714D02*
X14799428Y-11151714D01*
X14828000Y-11166000D01*
X14842286Y-11180286D01*
X14856571Y-11208857D01*
X14870857Y-11266000D01*
X14870857Y-11337429D01*
X14856571Y-11394571D01*
X14842286Y-11423143D01*
X14828000Y-11437429D01*
X14799428Y-11451714D01*
X14770857Y-11451714D01*
X14742286Y-11437429D01*
X14728000Y-11423143D01*
X14713714Y-11394571D01*
X14699428Y-11337429D01*
X14699428Y-11266000D01*
X14713714Y-11208857D01*
X14728000Y-11180286D01*
X14742286Y-11166000D01*
X14770857Y-11151714D01*
X14999428Y-11451714D02*
X14999428Y-11251714D01*
X14999428Y-11280286D02*
X15013714Y-11266000D01*
X15042286Y-11251714D01*
X15085143Y-11251714D01*
X15113714Y-11266000D01*
X15128000Y-11294571D01*
X15128000Y-11451714D01*
X15128000Y-11294571D02*
X15142286Y-11266000D01*
X15170857Y-11251714D01*
X15213714Y-11251714D01*
X15242286Y-11266000D01*
X15256571Y-11294571D01*
X15256571Y-11451714D01*
X15399428Y-11451714D02*
X15399428Y-11251714D01*
X15399428Y-11280286D02*
X15413714Y-11266000D01*
X15442286Y-11251714D01*
X15485143Y-11251714D01*
X15513714Y-11266000D01*
X15528000Y-11294571D01*
X15528000Y-11451714D01*
X15528000Y-11294571D02*
X15542286Y-11266000D01*
X15570857Y-11251714D01*
X15613714Y-11251714D01*
X15642286Y-11266000D01*
X15656571Y-11294571D01*
X15656571Y-11451714D01*
X16242286Y-11137429D02*
X15985143Y-11523143D01*
X16628000Y-11151714D02*
X16656571Y-11151714D01*
X16685143Y-11166000D01*
X16699428Y-11180286D01*
X16713714Y-11208857D01*
X16728000Y-11266000D01*
X16728000Y-11337429D01*
X16713714Y-11394571D01*
X16699428Y-11423143D01*
X16685143Y-11437429D01*
X16656571Y-11451714D01*
X16628000Y-11451714D01*
X16599428Y-11437429D01*
X16585143Y-11423143D01*
X16570857Y-11394571D01*
X16556571Y-11337429D01*
X16556571Y-11266000D01*
X16570857Y-11208857D01*
X16585143Y-11180286D01*
X16599428Y-11166000D01*
X16628000Y-11151714D01*
X16856571Y-11423143D02*
X16870857Y-11437429D01*
X16856571Y-11451714D01*
X16842286Y-11437429D01*
X16856571Y-11423143D01*
X16856571Y-11451714D01*
X17056571Y-11151714D02*
X17085143Y-11151714D01*
X17113714Y-11166000D01*
X17128000Y-11180286D01*
X17142286Y-11208857D01*
X17156571Y-11266000D01*
X17156571Y-11337429D01*
X17142286Y-11394571D01*
X17128000Y-11423143D01*
X17113714Y-11437429D01*
X17085143Y-11451714D01*
X17056571Y-11451714D01*
X17028000Y-11437429D01*
X17013714Y-11423143D01*
X16999428Y-11394571D01*
X16985143Y-11337429D01*
X16985143Y-11266000D01*
X16999428Y-11208857D01*
X17013714Y-11180286D01*
X17028000Y-11166000D01*
X17056571Y-11151714D01*
X17256571Y-11151714D02*
X17442286Y-11151714D01*
X17342286Y-11266000D01*
X17385143Y-11266000D01*
X17413714Y-11280286D01*
X17428000Y-11294571D01*
X17442286Y-11323143D01*
X17442286Y-11394571D01*
X17428000Y-11423143D01*
X17413714Y-11437429D01*
X17385143Y-11451714D01*
X17299428Y-11451714D01*
X17270857Y-11437429D01*
X17256571Y-11423143D01*
X17585143Y-11451714D02*
X17642286Y-11451714D01*
X17670857Y-11437429D01*
X17685143Y-11423143D01*
X17713714Y-11380286D01*
X17728000Y-11323143D01*
X17728000Y-11208857D01*
X17713714Y-11180286D01*
X17699428Y-11166000D01*
X17670857Y-11151714D01*
X17613714Y-11151714D01*
X17585143Y-11166000D01*
X17570857Y-11180286D01*
X17556571Y-11208857D01*
X17556571Y-11280286D01*
X17570857Y-11308857D01*
X17585143Y-11323143D01*
X17613714Y-11337429D01*
X17670857Y-11337429D01*
X17699428Y-11323143D01*
X17713714Y-11308857D01*
X17728000Y-11280286D01*
X17842286Y-11151714D02*
X17842286Y-11208857D01*
X17956571Y-11151714D02*
X17956571Y-11208857D01*
X18399428Y-11566000D02*
X18385143Y-11551714D01*
X18356571Y-11508857D01*
X18342286Y-11480286D01*
X18328000Y-11437429D01*
X18313714Y-11366000D01*
X18313714Y-11308857D01*
X18328000Y-11237429D01*
X18342286Y-11194571D01*
X18356571Y-11166000D01*
X18385143Y-11123143D01*
X18399428Y-11108857D01*
X18499428Y-11180286D02*
X18513714Y-11166000D01*
X18542286Y-11151714D01*
X18613714Y-11151714D01*
X18642286Y-11166000D01*
X18656571Y-11180286D01*
X18670857Y-11208857D01*
X18670857Y-11237429D01*
X18656571Y-11280286D01*
X18485143Y-11451714D01*
X18670857Y-11451714D01*
X18942286Y-11151714D02*
X18799428Y-11151714D01*
X18785143Y-11294571D01*
X18799428Y-11280286D01*
X18828000Y-11266000D01*
X18899428Y-11266000D01*
X18928000Y-11280286D01*
X18942286Y-11294571D01*
X18956571Y-11323143D01*
X18956571Y-11394571D01*
X18942286Y-11423143D01*
X18928000Y-11437429D01*
X18899428Y-11451714D01*
X18828000Y-11451714D01*
X18799428Y-11437429D01*
X18785143Y-11423143D01*
X19313714Y-11451714D02*
X19313714Y-11151714D01*
X19442286Y-11451714D02*
X19442286Y-11294571D01*
X19428000Y-11266000D01*
X19399428Y-11251714D01*
X19356571Y-11251714D01*
X19328000Y-11266000D01*
X19313714Y-11280286D01*
X19628000Y-11451714D02*
X19599428Y-11437429D01*
X19585143Y-11423143D01*
X19570857Y-11394571D01*
X19570857Y-11308857D01*
X19585143Y-11280286D01*
X19599428Y-11266000D01*
X19628000Y-11251714D01*
X19670857Y-11251714D01*
X19699428Y-11266000D01*
X19713714Y-11280286D01*
X19728000Y-11308857D01*
X19728000Y-11394571D01*
X19713714Y-11423143D01*
X19699428Y-11437429D01*
X19670857Y-11451714D01*
X19628000Y-11451714D01*
X19899428Y-11451714D02*
X19870857Y-11437429D01*
X19856571Y-11408857D01*
X19856571Y-11151714D01*
X20128000Y-11437429D02*
X20099428Y-11451714D01*
X20042286Y-11451714D01*
X20013714Y-11437429D01*
X19999428Y-11408857D01*
X19999428Y-11294571D01*
X20013714Y-11266000D01*
X20042286Y-11251714D01*
X20099428Y-11251714D01*
X20128000Y-11266000D01*
X20142286Y-11294571D01*
X20142286Y-11323143D01*
X19999428Y-11351714D01*
X20256571Y-11437429D02*
X20285143Y-11451714D01*
X20342286Y-11451714D01*
X20370857Y-11437429D01*
X20385143Y-11408857D01*
X20385143Y-11394571D01*
X20370857Y-11366000D01*
X20342286Y-11351714D01*
X20299428Y-11351714D01*
X20270857Y-11337429D01*
X20256571Y-11308857D01*
X20256571Y-11294571D01*
X20270857Y-11266000D01*
X20299428Y-11251714D01*
X20342286Y-11251714D01*
X20370857Y-11266000D01*
X20485143Y-11566000D02*
X20499428Y-11551714D01*
X20528000Y-11508857D01*
X20542286Y-11480286D01*
X20556571Y-11437429D01*
X20570857Y-11366000D01*
X20570857Y-11308857D01*
X20556571Y-11237429D01*
X20542286Y-11194571D01*
X20528000Y-11166000D01*
X20499428Y-11123143D01*
X20485143Y-11108857D01*
X13662200Y-11661200D02*
X13662200Y-11762800D01*
X13611400Y-11712000D02*
X13713000Y-11712000D01*
X14156571Y-11847714D02*
X13985143Y-11847714D01*
X14070857Y-11847714D02*
X14070857Y-11547714D01*
X14042286Y-11590571D01*
X14013714Y-11619143D01*
X13985143Y-11633429D01*
X14285143Y-11819143D02*
X14299428Y-11833429D01*
X14285143Y-11847714D01*
X14270857Y-11833429D01*
X14285143Y-11819143D01*
X14285143Y-11847714D01*
X14485143Y-11547714D02*
X14513714Y-11547714D01*
X14542286Y-11562000D01*
X14556571Y-11576286D01*
X14570857Y-11604857D01*
X14585143Y-11662000D01*
X14585143Y-11733429D01*
X14570857Y-11790571D01*
X14556571Y-11819143D01*
X14542286Y-11833429D01*
X14513714Y-11847714D01*
X14485143Y-11847714D01*
X14456571Y-11833429D01*
X14442286Y-11819143D01*
X14428000Y-11790571D01*
X14413714Y-11733429D01*
X14413714Y-11662000D01*
X14428000Y-11604857D01*
X14442286Y-11576286D01*
X14456571Y-11562000D01*
X14485143Y-11547714D01*
X14699428Y-11576286D02*
X14713714Y-11562000D01*
X14742286Y-11547714D01*
X14813714Y-11547714D01*
X14842286Y-11562000D01*
X14856571Y-11576286D01*
X14870857Y-11604857D01*
X14870857Y-11633429D01*
X14856571Y-11676286D01*
X14685143Y-11847714D01*
X14870857Y-11847714D01*
X14999428Y-11847714D02*
X14999428Y-11647714D01*
X14999428Y-11676286D02*
X15013714Y-11662000D01*
X15042286Y-11647714D01*
X15085143Y-11647714D01*
X15113714Y-11662000D01*
X15128000Y-11690571D01*
X15128000Y-11847714D01*
X15128000Y-11690571D02*
X15142286Y-11662000D01*
X15170857Y-11647714D01*
X15213714Y-11647714D01*
X15242286Y-11662000D01*
X15256571Y-11690571D01*
X15256571Y-11847714D01*
X15399428Y-11847714D02*
X15399428Y-11647714D01*
X15399428Y-11676286D02*
X15413714Y-11662000D01*
X15442286Y-11647714D01*
X15485143Y-11647714D01*
X15513714Y-11662000D01*
X15528000Y-11690571D01*
X15528000Y-11847714D01*
X15528000Y-11690571D02*
X15542286Y-11662000D01*
X15570857Y-11647714D01*
X15613714Y-11647714D01*
X15642286Y-11662000D01*
X15656571Y-11690571D01*
X15656571Y-11847714D01*
X16242286Y-11533429D02*
X15985143Y-11919143D01*
X16628000Y-11547714D02*
X16656571Y-11547714D01*
X16685143Y-11562000D01*
X16699428Y-11576286D01*
X16713714Y-11604857D01*
X16728000Y-11662000D01*
X16728000Y-11733429D01*
X16713714Y-11790571D01*
X16699428Y-11819143D01*
X16685143Y-11833429D01*
X16656571Y-11847714D01*
X16628000Y-11847714D01*
X16599428Y-11833429D01*
X16585143Y-11819143D01*
X16570857Y-11790571D01*
X16556571Y-11733429D01*
X16556571Y-11662000D01*
X16570857Y-11604857D01*
X16585143Y-11576286D01*
X16599428Y-11562000D01*
X16628000Y-11547714D01*
X16856571Y-11819143D02*
X16870857Y-11833429D01*
X16856571Y-11847714D01*
X16842286Y-11833429D01*
X16856571Y-11819143D01*
X16856571Y-11847714D01*
X17056571Y-11547714D02*
X17085143Y-11547714D01*
X17113714Y-11562000D01*
X17128000Y-11576286D01*
X17142286Y-11604857D01*
X17156571Y-11662000D01*
X17156571Y-11733429D01*
X17142286Y-11790571D01*
X17128000Y-11819143D01*
X17113714Y-11833429D01*
X17085143Y-11847714D01*
X17056571Y-11847714D01*
X17028000Y-11833429D01*
X17013714Y-11819143D01*
X16999428Y-11790571D01*
X16985143Y-11733429D01*
X16985143Y-11662000D01*
X16999428Y-11604857D01*
X17013714Y-11576286D01*
X17028000Y-11562000D01*
X17056571Y-11547714D01*
X17413714Y-11647714D02*
X17413714Y-11847714D01*
X17342286Y-11533429D02*
X17270857Y-11747714D01*
X17456571Y-11747714D01*
X17628000Y-11547714D02*
X17656571Y-11547714D01*
X17685143Y-11562000D01*
X17699428Y-11576286D01*
X17713714Y-11604857D01*
X17728000Y-11662000D01*
X17728000Y-11733429D01*
X17713714Y-11790571D01*
X17699428Y-11819143D01*
X17685143Y-11833429D01*
X17656571Y-11847714D01*
X17628000Y-11847714D01*
X17599428Y-11833429D01*
X17585143Y-11819143D01*
X17570857Y-11790571D01*
X17556571Y-11733429D01*
X17556571Y-11662000D01*
X17570857Y-11604857D01*
X17585143Y-11576286D01*
X17599428Y-11562000D01*
X17628000Y-11547714D01*
X17842286Y-11547714D02*
X17842286Y-11604857D01*
X17956571Y-11547714D02*
X17956571Y-11604857D01*
X18399428Y-11962000D02*
X18385143Y-11947714D01*
X18356571Y-11904857D01*
X18342286Y-11876286D01*
X18328000Y-11833429D01*
X18313714Y-11762000D01*
X18313714Y-11704857D01*
X18328000Y-11633429D01*
X18342286Y-11590571D01*
X18356571Y-11562000D01*
X18385143Y-11519143D01*
X18399428Y-11504857D01*
X18499428Y-11576286D02*
X18513714Y-11562000D01*
X18542286Y-11547714D01*
X18613714Y-11547714D01*
X18642286Y-11562000D01*
X18656571Y-11576286D01*
X18670857Y-11604857D01*
X18670857Y-11633429D01*
X18656571Y-11676286D01*
X18485143Y-11847714D01*
X18670857Y-11847714D01*
X18842286Y-11676286D02*
X18813714Y-11662000D01*
X18799428Y-11647714D01*
X18785143Y-11619143D01*
X18785143Y-11604857D01*
X18799428Y-11576286D01*
X18813714Y-11562000D01*
X18842286Y-11547714D01*
X18899428Y-11547714D01*
X18928000Y-11562000D01*
X18942286Y-11576286D01*
X18956571Y-11604857D01*
X18956571Y-11619143D01*
X18942286Y-11647714D01*
X18928000Y-11662000D01*
X18899428Y-11676286D01*
X18842286Y-11676286D01*
X18813714Y-11690571D01*
X18799428Y-11704857D01*
X18785143Y-11733429D01*
X18785143Y-11790571D01*
X18799428Y-11819143D01*
X18813714Y-11833429D01*
X18842286Y-11847714D01*
X18899428Y-11847714D01*
X18928000Y-11833429D01*
X18942286Y-11819143D01*
X18956571Y-11790571D01*
X18956571Y-11733429D01*
X18942286Y-11704857D01*
X18928000Y-11690571D01*
X18899428Y-11676286D01*
X19313714Y-11847714D02*
X19313714Y-11547714D01*
X19442286Y-11847714D02*
X19442286Y-11690571D01*
X19428000Y-11662000D01*
X19399428Y-11647714D01*
X19356571Y-11647714D01*
X19328000Y-11662000D01*
X19313714Y-11676286D01*
X19628000Y-11847714D02*
X19599428Y-11833429D01*
X19585143Y-11819143D01*
X19570857Y-11790571D01*
X19570857Y-11704857D01*
X19585143Y-11676286D01*
X19599428Y-11662000D01*
X19628000Y-11647714D01*
X19670857Y-11647714D01*
X19699428Y-11662000D01*
X19713714Y-11676286D01*
X19728000Y-11704857D01*
X19728000Y-11790571D01*
X19713714Y-11819143D01*
X19699428Y-11833429D01*
X19670857Y-11847714D01*
X19628000Y-11847714D01*
X19899428Y-11847714D02*
X19870857Y-11833429D01*
X19856571Y-11804857D01*
X19856571Y-11547714D01*
X20128000Y-11833429D02*
X20099428Y-11847714D01*
X20042286Y-11847714D01*
X20013714Y-11833429D01*
X19999428Y-11804857D01*
X19999428Y-11690571D01*
X20013714Y-11662000D01*
X20042286Y-11647714D01*
X20099428Y-11647714D01*
X20128000Y-11662000D01*
X20142286Y-11690571D01*
X20142286Y-11719143D01*
X19999428Y-11747714D01*
X20256571Y-11833429D02*
X20285143Y-11847714D01*
X20342286Y-11847714D01*
X20370857Y-11833429D01*
X20385143Y-11804857D01*
X20385143Y-11790571D01*
X20370857Y-11762000D01*
X20342286Y-11747714D01*
X20299428Y-11747714D01*
X20270857Y-11733429D01*
X20256571Y-11704857D01*
X20256571Y-11690571D01*
X20270857Y-11662000D01*
X20299428Y-11647714D01*
X20342286Y-11647714D01*
X20370857Y-11662000D01*
X20485143Y-11962000D02*
X20499428Y-11947714D01*
X20528000Y-11904857D01*
X20542286Y-11876286D01*
X20556571Y-11833429D01*
X20570857Y-11762000D01*
X20570857Y-11704857D01*
X20556571Y-11633429D01*
X20542286Y-11590571D01*
X20528000Y-11562000D01*
X20499428Y-11519143D01*
X20485143Y-11504857D01*
X13696891Y-12146891D02*
X13696891Y-12069109D01*
X13619109Y-12069109D01*
X13619109Y-12146891D01*
X13696891Y-12146891D01*
X14156571Y-12243714D02*
X13985143Y-12243714D01*
X14070857Y-12243714D02*
X14070857Y-11943714D01*
X14042286Y-11986571D01*
X14013714Y-12015143D01*
X13985143Y-12029429D01*
X14285143Y-12215143D02*
X14299428Y-12229429D01*
X14285143Y-12243714D01*
X14270857Y-12229429D01*
X14285143Y-12215143D01*
X14285143Y-12243714D01*
X14585143Y-12243714D02*
X14413714Y-12243714D01*
X14499428Y-12243714D02*
X14499428Y-11943714D01*
X14470857Y-11986571D01*
X14442286Y-12015143D01*
X14413714Y-12029429D01*
X14770857Y-11943714D02*
X14799428Y-11943714D01*
X14828000Y-11958000D01*
X14842286Y-11972286D01*
X14856571Y-12000857D01*
X14870857Y-12058000D01*
X14870857Y-12129429D01*
X14856571Y-12186571D01*
X14842286Y-12215143D01*
X14828000Y-12229429D01*
X14799428Y-12243714D01*
X14770857Y-12243714D01*
X14742286Y-12229429D01*
X14728000Y-12215143D01*
X14713714Y-12186571D01*
X14699428Y-12129429D01*
X14699428Y-12058000D01*
X14713714Y-12000857D01*
X14728000Y-11972286D01*
X14742286Y-11958000D01*
X14770857Y-11943714D01*
X14999428Y-12243714D02*
X14999428Y-12043714D01*
X14999428Y-12072286D02*
X15013714Y-12058000D01*
X15042286Y-12043714D01*
X15085143Y-12043714D01*
X15113714Y-12058000D01*
X15128000Y-12086571D01*
X15128000Y-12243714D01*
X15128000Y-12086571D02*
X15142286Y-12058000D01*
X15170857Y-12043714D01*
X15213714Y-12043714D01*
X15242286Y-12058000D01*
X15256571Y-12086571D01*
X15256571Y-12243714D01*
X15399428Y-12243714D02*
X15399428Y-12043714D01*
X15399428Y-12072286D02*
X15413714Y-12058000D01*
X15442286Y-12043714D01*
X15485143Y-12043714D01*
X15513714Y-12058000D01*
X15528000Y-12086571D01*
X15528000Y-12243714D01*
X15528000Y-12086571D02*
X15542286Y-12058000D01*
X15570857Y-12043714D01*
X15613714Y-12043714D01*
X15642286Y-12058000D01*
X15656571Y-12086571D01*
X15656571Y-12243714D01*
X16242286Y-11929429D02*
X15985143Y-12315143D01*
X16628000Y-11943714D02*
X16656571Y-11943714D01*
X16685143Y-11958000D01*
X16699428Y-11972286D01*
X16713714Y-12000857D01*
X16728000Y-12058000D01*
X16728000Y-12129429D01*
X16713714Y-12186571D01*
X16699428Y-12215143D01*
X16685143Y-12229429D01*
X16656571Y-12243714D01*
X16628000Y-12243714D01*
X16599428Y-12229429D01*
X16585143Y-12215143D01*
X16570857Y-12186571D01*
X16556571Y-12129429D01*
X16556571Y-12058000D01*
X16570857Y-12000857D01*
X16585143Y-11972286D01*
X16599428Y-11958000D01*
X16628000Y-11943714D01*
X16856571Y-12215143D02*
X16870857Y-12229429D01*
X16856571Y-12243714D01*
X16842286Y-12229429D01*
X16856571Y-12215143D01*
X16856571Y-12243714D01*
X17056571Y-11943714D02*
X17085143Y-11943714D01*
X17113714Y-11958000D01*
X17128000Y-11972286D01*
X17142286Y-12000857D01*
X17156571Y-12058000D01*
X17156571Y-12129429D01*
X17142286Y-12186571D01*
X17128000Y-12215143D01*
X17113714Y-12229429D01*
X17085143Y-12243714D01*
X17056571Y-12243714D01*
X17028000Y-12229429D01*
X17013714Y-12215143D01*
X16999428Y-12186571D01*
X16985143Y-12129429D01*
X16985143Y-12058000D01*
X16999428Y-12000857D01*
X17013714Y-11972286D01*
X17028000Y-11958000D01*
X17056571Y-11943714D01*
X17413714Y-12043714D02*
X17413714Y-12243714D01*
X17342286Y-11929429D02*
X17270857Y-12143714D01*
X17456571Y-12143714D01*
X17542286Y-11943714D02*
X17728000Y-11943714D01*
X17628000Y-12058000D01*
X17670857Y-12058000D01*
X17699428Y-12072286D01*
X17713714Y-12086571D01*
X17728000Y-12115143D01*
X17728000Y-12186571D01*
X17713714Y-12215143D01*
X17699428Y-12229429D01*
X17670857Y-12243714D01*
X17585143Y-12243714D01*
X17556571Y-12229429D01*
X17542286Y-12215143D01*
X17842286Y-11943714D02*
X17842286Y-12000857D01*
X17956571Y-11943714D02*
X17956571Y-12000857D01*
X18399428Y-12358000D02*
X18385143Y-12343714D01*
X18356571Y-12300857D01*
X18342286Y-12272286D01*
X18328000Y-12229429D01*
X18313714Y-12158000D01*
X18313714Y-12100857D01*
X18328000Y-12029429D01*
X18342286Y-11986571D01*
X18356571Y-11958000D01*
X18385143Y-11915143D01*
X18399428Y-11900857D01*
X18642286Y-12043714D02*
X18642286Y-12243714D01*
X18570857Y-11929429D02*
X18499428Y-12143714D01*
X18685143Y-12143714D01*
X19028000Y-12243714D02*
X19028000Y-11943714D01*
X19156571Y-12243714D02*
X19156571Y-12086571D01*
X19142286Y-12058000D01*
X19113714Y-12043714D01*
X19070857Y-12043714D01*
X19042286Y-12058000D01*
X19028000Y-12072286D01*
X19342286Y-12243714D02*
X19313714Y-12229429D01*
X19299428Y-12215143D01*
X19285143Y-12186571D01*
X19285143Y-12100857D01*
X19299428Y-12072286D01*
X19313714Y-12058000D01*
X19342286Y-12043714D01*
X19385143Y-12043714D01*
X19413714Y-12058000D01*
X19428000Y-12072286D01*
X19442286Y-12100857D01*
X19442286Y-12186571D01*
X19428000Y-12215143D01*
X19413714Y-12229429D01*
X19385143Y-12243714D01*
X19342286Y-12243714D01*
X19613714Y-12243714D02*
X19585143Y-12229429D01*
X19570857Y-12200857D01*
X19570857Y-11943714D01*
X19842286Y-12229429D02*
X19813714Y-12243714D01*
X19756571Y-12243714D01*
X19728000Y-12229429D01*
X19713714Y-12200857D01*
X19713714Y-12086571D01*
X19728000Y-12058000D01*
X19756571Y-12043714D01*
X19813714Y-12043714D01*
X19842286Y-12058000D01*
X19856571Y-12086571D01*
X19856571Y-12115143D01*
X19713714Y-12143714D01*
X19970857Y-12229429D02*
X19999428Y-12243714D01*
X20056571Y-12243714D01*
X20085143Y-12229429D01*
X20099428Y-12200857D01*
X20099428Y-12186571D01*
X20085143Y-12158000D01*
X20056571Y-12143714D01*
X20013714Y-12143714D01*
X19985143Y-12129429D01*
X19970857Y-12100857D01*
X19970857Y-12086571D01*
X19985143Y-12058000D01*
X20013714Y-12043714D01*
X20056571Y-12043714D01*
X20085143Y-12058000D01*
X20199428Y-12358000D02*
X20213714Y-12343714D01*
X20242286Y-12300857D01*
X20256571Y-12272286D01*
X20270857Y-12229429D01*
X20285143Y-12158000D01*
X20285143Y-12100857D01*
X20270857Y-12029429D01*
X20256571Y-11986571D01*
X20242286Y-11958000D01*
X20213714Y-11915143D01*
X20199428Y-11900857D01*
X13554250Y-12662750D02*
X13713000Y-12504000D01*
X13554250Y-12345250D01*
X13395500Y-12504000D01*
X13554250Y-12662750D01*
X13970857Y-12339714D02*
X14156571Y-12339714D01*
X14056571Y-12454000D01*
X14099428Y-12454000D01*
X14128000Y-12468286D01*
X14142286Y-12482571D01*
X14156571Y-12511143D01*
X14156571Y-12582571D01*
X14142286Y-12611143D01*
X14128000Y-12625429D01*
X14099428Y-12639714D01*
X14013714Y-12639714D01*
X13985143Y-12625429D01*
X13970857Y-12611143D01*
X14285143Y-12611143D02*
X14299428Y-12625429D01*
X14285143Y-12639714D01*
X14270857Y-12625429D01*
X14285143Y-12611143D01*
X14285143Y-12639714D01*
X14585143Y-12639714D02*
X14413714Y-12639714D01*
X14499428Y-12639714D02*
X14499428Y-12339714D01*
X14470857Y-12382571D01*
X14442286Y-12411143D01*
X14413714Y-12425429D01*
X14685143Y-12339714D02*
X14885143Y-12339714D01*
X14756571Y-12639714D01*
X14999428Y-12639714D02*
X14999428Y-12439714D01*
X14999428Y-12468286D02*
X15013714Y-12454000D01*
X15042286Y-12439714D01*
X15085143Y-12439714D01*
X15113714Y-12454000D01*
X15128000Y-12482571D01*
X15128000Y-12639714D01*
X15128000Y-12482571D02*
X15142286Y-12454000D01*
X15170857Y-12439714D01*
X15213714Y-12439714D01*
X15242286Y-12454000D01*
X15256571Y-12482571D01*
X15256571Y-12639714D01*
X15399428Y-12639714D02*
X15399428Y-12439714D01*
X15399428Y-12468286D02*
X15413714Y-12454000D01*
X15442286Y-12439714D01*
X15485143Y-12439714D01*
X15513714Y-12454000D01*
X15528000Y-12482571D01*
X15528000Y-12639714D01*
X15528000Y-12482571D02*
X15542286Y-12454000D01*
X15570857Y-12439714D01*
X15613714Y-12439714D01*
X15642286Y-12454000D01*
X15656571Y-12482571D01*
X15656571Y-12639714D01*
X16242286Y-12325429D02*
X15985143Y-12711143D01*
X16628000Y-12339714D02*
X16656571Y-12339714D01*
X16685143Y-12354000D01*
X16699428Y-12368286D01*
X16713714Y-12396857D01*
X16728000Y-12454000D01*
X16728000Y-12525429D01*
X16713714Y-12582571D01*
X16699428Y-12611143D01*
X16685143Y-12625429D01*
X16656571Y-12639714D01*
X16628000Y-12639714D01*
X16599428Y-12625429D01*
X16585143Y-12611143D01*
X16570857Y-12582571D01*
X16556571Y-12525429D01*
X16556571Y-12454000D01*
X16570857Y-12396857D01*
X16585143Y-12368286D01*
X16599428Y-12354000D01*
X16628000Y-12339714D01*
X16856571Y-12611143D02*
X16870857Y-12625429D01*
X16856571Y-12639714D01*
X16842286Y-12625429D01*
X16856571Y-12611143D01*
X16856571Y-12639714D01*
X17156571Y-12639714D02*
X16985143Y-12639714D01*
X17070857Y-12639714D02*
X17070857Y-12339714D01*
X17042286Y-12382571D01*
X17013714Y-12411143D01*
X16985143Y-12425429D01*
X17270857Y-12368286D02*
X17285143Y-12354000D01*
X17313714Y-12339714D01*
X17385143Y-12339714D01*
X17413714Y-12354000D01*
X17428000Y-12368286D01*
X17442286Y-12396857D01*
X17442286Y-12425429D01*
X17428000Y-12468286D01*
X17256571Y-12639714D01*
X17442286Y-12639714D01*
X17713714Y-12339714D02*
X17570857Y-12339714D01*
X17556571Y-12482571D01*
X17570857Y-12468286D01*
X17599428Y-12454000D01*
X17670857Y-12454000D01*
X17699428Y-12468286D01*
X17713714Y-12482571D01*
X17728000Y-12511143D01*
X17728000Y-12582571D01*
X17713714Y-12611143D01*
X17699428Y-12625429D01*
X17670857Y-12639714D01*
X17599428Y-12639714D01*
X17570857Y-12625429D01*
X17556571Y-12611143D01*
X17842286Y-12339714D02*
X17842286Y-12396857D01*
X17956571Y-12339714D02*
X17956571Y-12396857D01*
X18399428Y-12754000D02*
X18385143Y-12739714D01*
X18356571Y-12696857D01*
X18342286Y-12668286D01*
X18328000Y-12625429D01*
X18313714Y-12554000D01*
X18313714Y-12496857D01*
X18328000Y-12425429D01*
X18342286Y-12382571D01*
X18356571Y-12354000D01*
X18385143Y-12311143D01*
X18399428Y-12296857D01*
X18642286Y-12439714D02*
X18642286Y-12639714D01*
X18570857Y-12325429D02*
X18499428Y-12539714D01*
X18685143Y-12539714D01*
X19028000Y-12639714D02*
X19028000Y-12339714D01*
X19156571Y-12639714D02*
X19156571Y-12482571D01*
X19142286Y-12454000D01*
X19113714Y-12439714D01*
X19070857Y-12439714D01*
X19042286Y-12454000D01*
X19028000Y-12468286D01*
X19342286Y-12639714D02*
X19313714Y-12625429D01*
X19299428Y-12611143D01*
X19285143Y-12582571D01*
X19285143Y-12496857D01*
X19299428Y-12468286D01*
X19313714Y-12454000D01*
X19342286Y-12439714D01*
X19385143Y-12439714D01*
X19413714Y-12454000D01*
X19428000Y-12468286D01*
X19442286Y-12496857D01*
X19442286Y-12582571D01*
X19428000Y-12611143D01*
X19413714Y-12625429D01*
X19385143Y-12639714D01*
X19342286Y-12639714D01*
X19613714Y-12639714D02*
X19585143Y-12625429D01*
X19570857Y-12596857D01*
X19570857Y-12339714D01*
X19842286Y-12625429D02*
X19813714Y-12639714D01*
X19756571Y-12639714D01*
X19728000Y-12625429D01*
X19713714Y-12596857D01*
X19713714Y-12482571D01*
X19728000Y-12454000D01*
X19756571Y-12439714D01*
X19813714Y-12439714D01*
X19842286Y-12454000D01*
X19856571Y-12482571D01*
X19856571Y-12511143D01*
X19713714Y-12539714D01*
X19970857Y-12625429D02*
X19999428Y-12639714D01*
X20056571Y-12639714D01*
X20085143Y-12625429D01*
X20099428Y-12596857D01*
X20099428Y-12582571D01*
X20085143Y-12554000D01*
X20056571Y-12539714D01*
X20013714Y-12539714D01*
X19985143Y-12525429D01*
X19970857Y-12496857D01*
X19970857Y-12482571D01*
X19985143Y-12454000D01*
X20013714Y-12439714D01*
X20056571Y-12439714D01*
X20085143Y-12454000D01*
X20199428Y-12754000D02*
X20213714Y-12739714D01*
X20242286Y-12696857D01*
X20256571Y-12668286D01*
X20270857Y-12625429D01*
X20285143Y-12554000D01*
X20285143Y-12496857D01*
X20270857Y-12425429D01*
X20256571Y-12382571D01*
X20242286Y-12354000D01*
X20213714Y-12311143D01*
X20199428Y-12296857D01*
M02*
