G04 #@! TF.GenerationSoftware,KiCad,Pcbnew,(5.0.0)*
G04 #@! TF.CreationDate,2018-10-02T09:48:17+02:00*
G04 #@! TF.ProjectId,ATtiny85_Arduino_programmer,415474696E7938355F41726475696E6F,rev?*
G04 #@! TF.SameCoordinates,Original*
G04 #@! TF.FileFunction,Copper,L1,Top,Signal*
G04 #@! TF.FilePolarity,Positive*
%FSLAX46Y46*%
G04 Gerber Fmt 4.6, Leading zero omitted, Abs format (unit mm)*
G04 Created by KiCad (PCBNEW (5.0.0)) date 10/02/18 09:48:17*
%MOMM*%
%LPD*%
G01*
G04 APERTURE LIST*
G04 #@! TA.AperFunction,ComponentPad*
%ADD10O,1.524000X2.540000*%
G04 #@! TD*
G04 #@! TA.AperFunction,ComponentPad*
%ADD11C,3.937000*%
G04 #@! TD*
G04 #@! TA.AperFunction,ComponentPad*
%ADD12C,1.600000*%
G04 #@! TD*
G04 #@! TA.AperFunction,ComponentPad*
%ADD13R,1.600000X1.600000*%
G04 #@! TD*
G04 #@! TA.AperFunction,ComponentPad*
%ADD14C,1.800000*%
G04 #@! TD*
G04 #@! TA.AperFunction,ComponentPad*
%ADD15R,1.800000X1.800000*%
G04 #@! TD*
G04 #@! TA.AperFunction,ComponentPad*
%ADD16O,1.700000X1.700000*%
G04 #@! TD*
G04 #@! TA.AperFunction,ComponentPad*
%ADD17R,1.700000X1.700000*%
G04 #@! TD*
G04 #@! TA.AperFunction,ComponentPad*
%ADD18O,1.600000X1.600000*%
G04 #@! TD*
G04 #@! TA.AperFunction,ComponentPad*
%ADD19C,2.000000*%
G04 #@! TD*
G04 #@! TA.AperFunction,ComponentPad*
%ADD20O,2.400000X1.600000*%
G04 #@! TD*
G04 #@! TA.AperFunction,ComponentPad*
%ADD21R,2.400000X1.600000*%
G04 #@! TD*
G04 #@! TA.AperFunction,ViaPad*
%ADD22C,0.800000*%
G04 #@! TD*
G04 #@! TA.AperFunction,Conductor*
%ADD23C,0.800000*%
G04 #@! TD*
G04 #@! TA.AperFunction,Conductor*
%ADD24C,0.254000*%
G04 #@! TD*
G04 APERTURE END LIST*
D10*
G04 #@! TO.P,SHIELD1,AD5*
G04 #@! TO.N,Net-(SHIELD1-PadAD5)*
X189480000Y-96710501D03*
G04 #@! TO.P,SHIELD1,AD4*
G04 #@! TO.N,Net-(SHIELD1-PadAD4)*
X186940000Y-96710501D03*
G04 #@! TO.P,SHIELD1,AD3*
G04 #@! TO.N,Net-(SHIELD1-PadAD3)*
X184400000Y-96710501D03*
G04 #@! TO.P,SHIELD1,AD0*
G04 #@! TO.N,Net-(SHIELD1-PadAD0)*
X176780000Y-96710501D03*
G04 #@! TO.P,SHIELD1,AD1*
G04 #@! TO.N,Net-(SHIELD1-PadAD1)*
X179320000Y-96710501D03*
G04 #@! TO.P,SHIELD1,AD2*
G04 #@! TO.N,Net-(SHIELD1-PadAD2)*
X181860000Y-96710501D03*
G04 #@! TO.P,SHIELD1,V_IN*
G04 #@! TO.N,Net-(SHIELD1-PadV_IN)*
X171700000Y-96710501D03*
G04 #@! TO.P,SHIELD1,GND2*
G04 #@! TO.N,GND*
X169160000Y-96710501D03*
G04 #@! TO.P,SHIELD1,GND1*
X166620000Y-96710501D03*
G04 #@! TO.P,SHIELD1,3V3*
G04 #@! TO.N,Net-(SHIELD1-Pad3V3)*
X161540000Y-96710501D03*
G04 #@! TO.P,SHIELD1,RST*
G04 #@! TO.N,Net-(C1-Pad1)*
X159000000Y-96710501D03*
G04 #@! TO.P,SHIELD1,0*
G04 #@! TO.N,Net-(SHIELD1-Pad0)*
X189480000Y-48450501D03*
G04 #@! TO.P,SHIELD1,1*
G04 #@! TO.N,Net-(SHIELD1-Pad1)*
X186940000Y-48450501D03*
G04 #@! TO.P,SHIELD1,2*
G04 #@! TO.N,Net-(SHIELD1-Pad2)*
X184400000Y-48450501D03*
G04 #@! TO.P,SHIELD1,3*
G04 #@! TO.N,Net-(SHIELD1-Pad3)*
X181860000Y-48450501D03*
G04 #@! TO.P,SHIELD1,4*
G04 #@! TO.N,Net-(SHIELD1-Pad4)*
X179320000Y-48450501D03*
G04 #@! TO.P,SHIELD1,5*
G04 #@! TO.N,Net-(SHIELD1-Pad5)*
X176780000Y-48450501D03*
G04 #@! TO.P,SHIELD1,6*
G04 #@! TO.N,Net-(SHIELD1-Pad6)*
X174240000Y-48450501D03*
G04 #@! TO.P,SHIELD1,7*
G04 #@! TO.N,7*
X171700000Y-48450501D03*
G04 #@! TO.P,SHIELD1,8*
G04 #@! TO.N,8*
X167636000Y-48450501D03*
G04 #@! TO.P,SHIELD1,9*
G04 #@! TO.N,9*
X165096000Y-48450501D03*
G04 #@! TO.P,SHIELD1,10*
G04 #@! TO.N,10*
X162556000Y-48450501D03*
G04 #@! TO.P,SHIELD1,11*
G04 #@! TO.N,11*
X160016000Y-48450501D03*
G04 #@! TO.P,SHIELD1,12*
G04 #@! TO.N,12*
X157476000Y-48450501D03*
G04 #@! TO.P,SHIELD1,13*
G04 #@! TO.N,13*
X154936000Y-48450501D03*
G04 #@! TO.P,SHIELD1,GND3*
G04 #@! TO.N,GND*
X152396000Y-48450501D03*
G04 #@! TO.P,SHIELD1,AREF*
G04 #@! TO.N,Net-(SHIELD1-PadAREF)*
X149856000Y-48450501D03*
G04 #@! TO.P,SHIELD1,5V*
G04 #@! TO.N,5V*
X164080000Y-96710501D03*
D11*
G04 #@! TO.P,SHIELD1,*
G04 #@! TO.N,*
X192020000Y-91630501D03*
X192020000Y-63690501D03*
X141220000Y-48450501D03*
X139950000Y-96710501D03*
G04 #@! TD*
D12*
G04 #@! TO.P,C1,2*
G04 #@! TO.N,GND*
X151170000Y-92710000D03*
D13*
G04 #@! TO.P,C1,1*
G04 #@! TO.N,Net-(C1-Pad1)*
X153670000Y-92710000D03*
G04 #@! TD*
D14*
G04 #@! TO.P,D1,2*
G04 #@! TO.N,Net-(D1-Pad2)*
X184150000Y-54610000D03*
D15*
G04 #@! TO.P,D1,1*
G04 #@! TO.N,GND*
X186690000Y-54610000D03*
G04 #@! TD*
G04 #@! TO.P,D2,1*
G04 #@! TO.N,GND*
X186690000Y-62230000D03*
D14*
G04 #@! TO.P,D2,2*
G04 #@! TO.N,Net-(D2-Pad2)*
X184150000Y-62230000D03*
G04 #@! TD*
G04 #@! TO.P,D3,2*
G04 #@! TO.N,Net-(D3-Pad2)*
X184150000Y-69850000D03*
D15*
G04 #@! TO.P,D3,1*
G04 #@! TO.N,GND*
X186690000Y-69850000D03*
G04 #@! TD*
D16*
G04 #@! TO.P,J1,4*
G04 #@! TO.N,GND*
X134640000Y-93980000D03*
G04 #@! TO.P,J1,3*
G04 #@! TO.N,10*
X132100000Y-93980000D03*
G04 #@! TO.P,J1,5*
G04 #@! TO.N,12*
X134640000Y-91440000D03*
G04 #@! TO.P,J1,2*
G04 #@! TO.N,13*
X132100000Y-91440000D03*
G04 #@! TO.P,J1,6*
G04 #@! TO.N,5V*
X134640000Y-88900000D03*
D17*
G04 #@! TO.P,J1,1*
G04 #@! TO.N,11*
X132100000Y-88900000D03*
G04 #@! TD*
G04 #@! TO.P,J2,1*
G04 #@! TO.N,AT1*
X137160000Y-63500000D03*
D16*
G04 #@! TO.P,J2,2*
G04 #@! TO.N,AT2*
X137160000Y-66040000D03*
G04 #@! TO.P,J2,3*
G04 #@! TO.N,AT3*
X137160000Y-68580000D03*
G04 #@! TO.P,J2,4*
G04 #@! TO.N,GND*
X137160000Y-71120000D03*
G04 #@! TD*
G04 #@! TO.P,J3,4*
G04 #@! TO.N,AT5*
X152400000Y-71120000D03*
G04 #@! TO.P,J3,3*
G04 #@! TO.N,AT6*
X152400000Y-68580000D03*
G04 #@! TO.P,J3,2*
G04 #@! TO.N,AT7*
X152400000Y-66040000D03*
D17*
G04 #@! TO.P,J3,1*
G04 #@! TO.N,5V*
X152400000Y-63500000D03*
G04 #@! TD*
D16*
G04 #@! TO.P,JP1,2*
G04 #@! TO.N,AT1*
X132080000Y-63500000D03*
D17*
G04 #@! TO.P,JP1,1*
G04 #@! TO.N,10*
X129540000Y-63500000D03*
G04 #@! TD*
G04 #@! TO.P,JP2,1*
G04 #@! TO.N,11*
X160020000Y-72390000D03*
D16*
G04 #@! TO.P,JP2,2*
G04 #@! TO.N,AT5*
X157480000Y-72390000D03*
G04 #@! TD*
G04 #@! TO.P,JP3,2*
G04 #@! TO.N,AT6*
X157480000Y-68580000D03*
D17*
G04 #@! TO.P,JP3,1*
G04 #@! TO.N,12*
X160020000Y-68580000D03*
G04 #@! TD*
G04 #@! TO.P,JP4,1*
G04 #@! TO.N,13*
X160020000Y-64770000D03*
D16*
G04 #@! TO.P,JP4,2*
G04 #@! TO.N,AT7*
X157480000Y-64770000D03*
G04 #@! TD*
D18*
G04 #@! TO.P,R1,2*
G04 #@! TO.N,Net-(D1-Pad2)*
X180340000Y-54610000D03*
D12*
G04 #@! TO.P,R1,1*
G04 #@! TO.N,7*
X170180000Y-54610000D03*
G04 #@! TD*
G04 #@! TO.P,R2,1*
G04 #@! TO.N,8*
X170180000Y-62230000D03*
D18*
G04 #@! TO.P,R2,2*
G04 #@! TO.N,Net-(D2-Pad2)*
X180340000Y-62230000D03*
G04 #@! TD*
G04 #@! TO.P,R3,2*
G04 #@! TO.N,Net-(D3-Pad2)*
X180340000Y-69850000D03*
D12*
G04 #@! TO.P,R3,1*
G04 #@! TO.N,9*
X170180000Y-69850000D03*
G04 #@! TD*
D19*
G04 #@! TO.P,SW1,1*
G04 #@! TO.N,5V*
X154600000Y-60500000D03*
G04 #@! TO.P,SW1,2*
G04 #@! TO.N,Net-(SW1-Pad2)*
X150100000Y-60500000D03*
G04 #@! TO.P,SW1,1*
G04 #@! TO.N,5V*
X154600000Y-54000000D03*
G04 #@! TO.P,SW1,2*
G04 #@! TO.N,Net-(SW1-Pad2)*
X150100000Y-54000000D03*
G04 #@! TD*
D20*
G04 #@! TO.P,U1,8*
G04 #@! TO.N,Net-(SW1-Pad2)*
X148590000Y-63500000D03*
G04 #@! TO.P,U1,4*
G04 #@! TO.N,GND*
X140970000Y-71120000D03*
G04 #@! TO.P,U1,7*
G04 #@! TO.N,AT7*
X148590000Y-66040000D03*
G04 #@! TO.P,U1,3*
G04 #@! TO.N,AT3*
X140970000Y-68580000D03*
G04 #@! TO.P,U1,6*
G04 #@! TO.N,AT6*
X148590000Y-68580000D03*
G04 #@! TO.P,U1,2*
G04 #@! TO.N,AT2*
X140970000Y-66040000D03*
G04 #@! TO.P,U1,5*
G04 #@! TO.N,AT5*
X148590000Y-71120000D03*
D21*
G04 #@! TO.P,U1,1*
G04 #@! TO.N,AT1*
X140970000Y-63500000D03*
G04 #@! TD*
D17*
G04 #@! TO.P,REF\002A\002A,1*
G04 #@! TO.N,10*
X162500000Y-52000000D03*
G04 #@! TD*
G04 #@! TO.P,REF\002A\002A,1*
G04 #@! TO.N,10*
X145100000Y-52000000D03*
G04 #@! TD*
G04 #@! TO.P,REF\002A\002A,1*
G04 #@! TO.N,5V*
X143100000Y-88900000D03*
G04 #@! TD*
G04 #@! TO.P,REF\002A\002A,1*
G04 #@! TO.N,5V*
X158600000Y-88900000D03*
G04 #@! TD*
G04 #@! TO.P,REF\002A\002A,1*
G04 #@! TO.N,12*
X162700000Y-76300000D03*
G04 #@! TD*
G04 #@! TO.P,REF\002A\002A,1*
G04 #@! TO.N,5V*
X162400000Y-61500000D03*
G04 #@! TD*
G04 #@! TO.P,REF\002A\002A,1*
G04 #@! TO.N,5V*
X170900000Y-66100000D03*
G04 #@! TD*
G04 #@! TO.P,REF\002A\002A,1*
G04 #@! TO.N,12*
X162700000Y-66600000D03*
G04 #@! TD*
G04 #@! TO.P,REF\002A\002A,1*
G04 #@! TO.N,13*
X157100000Y-57200000D03*
G04 #@! TD*
G04 #@! TO.P,REF\002A\002A,1*
G04 #@! TO.N,13*
X148000000Y-57200000D03*
G04 #@! TD*
D22*
G04 #@! TO.N,5V*
X152400000Y-63500000D03*
G04 #@! TD*
D23*
G04 #@! TO.N,GND*
X186690000Y-54610000D02*
X186690000Y-69850000D01*
X137160000Y-71120000D02*
X140970000Y-71120000D01*
X166620000Y-96710501D02*
X169160000Y-96710501D01*
X186690000Y-71550000D02*
X186690000Y-69850000D01*
X186690000Y-78672501D02*
X186690000Y-71550000D01*
X169160000Y-96202501D02*
X186690000Y-78672501D01*
X169160000Y-96710501D02*
X169160000Y-96202501D01*
X150180000Y-93700000D02*
X151170000Y-92710000D01*
X134640000Y-93980000D02*
X134920000Y-93700000D01*
X134920000Y-93700000D02*
X150180000Y-93700000D01*
X152396000Y-48958501D02*
X152396000Y-48450501D01*
X143200000Y-58154501D02*
X152396000Y-48958501D01*
X143200000Y-70890000D02*
X143200000Y-58154501D01*
X140970000Y-71120000D02*
X142970000Y-71120000D01*
X142970000Y-71120000D02*
X143200000Y-70890000D01*
G04 #@! TO.N,Net-(C1-Pad1)*
X154999499Y-92710000D02*
X159000000Y-96710501D01*
X153670000Y-92710000D02*
X154999499Y-92710000D01*
G04 #@! TO.N,Net-(D1-Pad2)*
X180340000Y-54610000D02*
X184150000Y-54610000D01*
G04 #@! TO.N,Net-(D2-Pad2)*
X180340000Y-62230000D02*
X184150000Y-62230000D01*
G04 #@! TO.N,Net-(D3-Pad2)*
X184150000Y-69850000D02*
X180340000Y-69850000D01*
G04 #@! TO.N,5V*
X164080000Y-92730000D02*
X164080000Y-94640501D01*
X160250000Y-88900000D02*
X164080000Y-92730000D01*
X158600000Y-88900000D02*
X160250000Y-88900000D01*
X152400000Y-62700000D02*
X154600000Y-60500000D01*
X152400000Y-63500000D02*
X152400000Y-62700000D01*
X154600000Y-54000000D02*
X154600000Y-60500000D01*
X135842081Y-88900000D02*
X143100000Y-88900000D01*
X134640000Y-88900000D02*
X135842081Y-88900000D01*
X164080000Y-94640501D02*
X164080000Y-96710501D01*
X160700000Y-59800000D02*
X162400000Y-61500000D01*
X154600000Y-60500000D02*
X155300000Y-59800000D01*
X155300000Y-59800000D02*
X160700000Y-59800000D01*
X164080000Y-92820000D02*
X164080000Y-96710501D01*
X174800000Y-82100000D02*
X164080000Y-92820000D01*
X174800000Y-68100000D02*
X174800000Y-82100000D01*
X170900000Y-66100000D02*
X172800000Y-66100000D01*
X172800000Y-66100000D02*
X174800000Y-68100000D01*
G04 #@! TO.N,12*
X160720000Y-68580000D02*
X162700000Y-66600000D01*
X160020000Y-68580000D02*
X160720000Y-68580000D01*
X135842081Y-91440000D02*
X134640000Y-91440000D01*
X149210000Y-91440000D02*
X135842081Y-91440000D01*
X162700000Y-77950000D02*
X149210000Y-91440000D01*
X162700000Y-76300000D02*
X162700000Y-77950000D01*
X157476000Y-48450501D02*
X157476000Y-49837508D01*
X165600011Y-59346019D02*
X165600011Y-64038482D01*
X160391515Y-55050011D02*
X161304004Y-55050012D01*
X161304004Y-55050012D02*
X165600011Y-59346019D01*
X165600011Y-64038482D02*
X163038491Y-66600000D01*
X157476000Y-49837508D02*
X159449988Y-51811495D01*
X163038491Y-66600000D02*
X162700000Y-66600000D01*
X159449988Y-51811495D02*
X159449988Y-54108484D01*
X159449988Y-54108484D02*
X160391515Y-55050011D01*
G04 #@! TO.N,10*
X162556000Y-47942501D02*
X162556000Y-48450501D01*
X162500000Y-48506501D02*
X162556000Y-48450501D01*
X162500000Y-52000000D02*
X162500000Y-48506501D01*
X127680000Y-93980000D02*
X132100000Y-93980000D01*
X126600010Y-92900010D02*
X127680000Y-93980000D01*
X129540000Y-63500000D02*
X126600010Y-66439990D01*
X126600010Y-66439990D02*
X126600010Y-92900010D01*
X143450000Y-52000000D02*
X145100000Y-52000000D01*
X135150000Y-60300000D02*
X143450000Y-52000000D01*
X131090000Y-60300000D02*
X135150000Y-60300000D01*
X129540000Y-63500000D02*
X129540000Y-61850000D01*
X129540000Y-61850000D02*
X131090000Y-60300000D01*
G04 #@! TO.N,13*
X164300000Y-63500000D02*
X163030000Y-64770000D01*
X164300000Y-59884501D02*
X164300000Y-63500000D01*
X160765522Y-56350023D02*
X164300000Y-59884501D01*
X158149977Y-54646965D02*
X159853035Y-56350023D01*
X163030000Y-64770000D02*
X160020000Y-64770000D01*
X155813990Y-49646928D02*
X156175990Y-50008928D01*
X154936000Y-48736000D02*
X155813990Y-49613990D01*
X155813990Y-49613990D02*
X155813990Y-49646928D01*
X159853035Y-56350023D02*
X160765522Y-56350023D01*
X156175990Y-50375989D02*
X158149977Y-52349976D01*
X154936000Y-48450501D02*
X154936000Y-48736000D01*
X156175990Y-50008928D02*
X156175990Y-50375989D01*
X158149977Y-54500023D02*
X158149977Y-53400000D01*
X157100000Y-55550000D02*
X158149977Y-54500023D01*
X157100000Y-57200000D02*
X157100000Y-55550000D01*
X158149977Y-52349976D02*
X158149977Y-53400000D01*
X158149977Y-53400000D02*
X158149977Y-54646965D01*
X130897919Y-91440000D02*
X132100000Y-91440000D01*
X148000000Y-57200000D02*
X148000000Y-58850000D01*
X146400000Y-60450000D02*
X146400000Y-71111509D01*
X148000000Y-58850000D02*
X146400000Y-60450000D01*
X146400000Y-71111509D02*
X130349999Y-87161510D01*
X130349999Y-87161510D02*
X130349999Y-90892080D01*
X130349999Y-90892080D02*
X130897919Y-91440000D01*
G04 #@! TO.N,11*
X160020000Y-74040000D02*
X160020000Y-72390000D01*
X159919999Y-74140001D02*
X160020000Y-74040000D01*
X145209999Y-74140001D02*
X159919999Y-74140001D01*
X132100000Y-87250000D02*
X145209999Y-74140001D01*
X132100000Y-88900000D02*
X132100000Y-87250000D01*
X160110000Y-72390000D02*
X160020000Y-72390000D01*
X167000000Y-58907515D02*
X167000000Y-65500000D01*
X160016000Y-50520501D02*
X160749999Y-51254500D01*
X160016000Y-48450501D02*
X160016000Y-50520501D01*
X160749999Y-51254500D02*
X160749999Y-53570001D01*
X160749999Y-53570001D02*
X160929999Y-53750001D01*
X167000000Y-65500000D02*
X160110000Y-72390000D01*
X160929999Y-53750001D02*
X161842486Y-53750001D01*
X161842486Y-53750001D02*
X167000000Y-58907515D01*
G04 #@! TO.N,AT1*
X132080000Y-63500000D02*
X137160000Y-63500000D01*
X137160000Y-63500000D02*
X140970000Y-63500000D01*
G04 #@! TO.N,AT2*
X137160000Y-66040000D02*
X140970000Y-66040000D01*
G04 #@! TO.N,AT3*
X137160000Y-68580000D02*
X140970000Y-68580000D01*
G04 #@! TO.N,AT5*
X148590000Y-71120000D02*
X152400000Y-71120000D01*
X156210000Y-71120000D02*
X157480000Y-72390000D01*
X152400000Y-71120000D02*
X156210000Y-71120000D01*
G04 #@! TO.N,AT6*
X148590000Y-68580000D02*
X152400000Y-68580000D01*
X152400000Y-68580000D02*
X157480000Y-68580000D01*
G04 #@! TO.N,AT7*
X148590000Y-66040000D02*
X152400000Y-66040000D01*
X156210000Y-66040000D02*
X157480000Y-64770000D01*
X152400000Y-66040000D02*
X156210000Y-66040000D01*
G04 #@! TO.N,7*
X171700000Y-53090000D02*
X170180000Y-54610000D01*
X171700000Y-48450501D02*
X171700000Y-53090000D01*
G04 #@! TO.N,8*
X170180000Y-58410530D02*
X170180000Y-61098630D01*
X167636000Y-55866530D02*
X170180000Y-58410530D01*
X170180000Y-61098630D02*
X170180000Y-62230000D01*
X167636000Y-48450501D02*
X167636000Y-55866530D01*
G04 #@! TO.N,9*
X168400000Y-68070000D02*
X169380001Y-69050001D01*
X169380001Y-69050001D02*
X170180000Y-69850000D01*
X165096000Y-48450501D02*
X165096000Y-55165022D01*
X168400000Y-58469022D02*
X168400000Y-68070000D01*
X165096000Y-55165022D02*
X168400000Y-58469022D01*
G04 #@! TO.N,Net-(SW1-Pad2)*
X148590000Y-62010000D02*
X150100000Y-60500000D01*
X148590000Y-63500000D02*
X148590000Y-62010000D01*
X150100000Y-54000000D02*
X150100000Y-60500000D01*
G04 #@! TD*
D24*
G04 #@! TO.N,GND*
G36*
X139012859Y-46975736D02*
X138616500Y-47932633D01*
X138616500Y-48968369D01*
X139012859Y-49925266D01*
X139745235Y-50657642D01*
X140702132Y-51054001D01*
X141737868Y-51054001D01*
X142694765Y-50657642D01*
X143427141Y-49925266D01*
X143823500Y-48968369D01*
X143823500Y-47932633D01*
X143770598Y-47804914D01*
X148459000Y-47804914D01*
X148459000Y-49096089D01*
X148540056Y-49503583D01*
X148848821Y-49965681D01*
X149310919Y-50274445D01*
X149856000Y-50382869D01*
X150401082Y-50274445D01*
X150863180Y-49965681D01*
X151137580Y-49555012D01*
X151153941Y-49610442D01*
X151497974Y-50036131D01*
X151978723Y-50297761D01*
X152052930Y-50312721D01*
X152269000Y-50190221D01*
X152269000Y-48577501D01*
X152249000Y-48577501D01*
X152249000Y-48323501D01*
X152269000Y-48323501D01*
X152269000Y-46710781D01*
X152052930Y-46588281D01*
X151978723Y-46603241D01*
X151497974Y-46864871D01*
X151153941Y-47290560D01*
X151137580Y-47345990D01*
X150863179Y-46935321D01*
X150401081Y-46626557D01*
X149856000Y-46518133D01*
X149310918Y-46626557D01*
X148848820Y-46935322D01*
X148540056Y-47397420D01*
X148459000Y-47804914D01*
X143770598Y-47804914D01*
X143427141Y-46975736D01*
X142786405Y-46335000D01*
X190695554Y-46335000D01*
X191665001Y-47304448D01*
X191665000Y-58427616D01*
X191650602Y-58500000D01*
X191665000Y-58572384D01*
X191665000Y-58572387D01*
X191707646Y-58786782D01*
X191870095Y-59029905D01*
X191931465Y-59070911D01*
X194165001Y-61304448D01*
X194165001Y-62153596D01*
X193494765Y-61483360D01*
X192537868Y-61087001D01*
X191502132Y-61087001D01*
X190545235Y-61483360D01*
X189812859Y-62215736D01*
X189416500Y-63172633D01*
X189416500Y-64208369D01*
X189812859Y-65165266D01*
X190545235Y-65897642D01*
X191502132Y-66294001D01*
X192537868Y-66294001D01*
X193494765Y-65897642D01*
X194165001Y-65227406D01*
X194165000Y-90093595D01*
X193494765Y-89423360D01*
X192537868Y-89027001D01*
X191502132Y-89027001D01*
X190545235Y-89423360D01*
X189812859Y-90155736D01*
X189416500Y-91112633D01*
X189416500Y-92148369D01*
X189812859Y-93105266D01*
X190545235Y-93837642D01*
X191502132Y-94234001D01*
X192537868Y-94234001D01*
X193494765Y-93837642D01*
X194165000Y-93167407D01*
X194165000Y-93995553D01*
X191931463Y-96229091D01*
X191870096Y-96270095D01*
X191829092Y-96331462D01*
X191829091Y-96331463D01*
X191707646Y-96513218D01*
X191650602Y-96800000D01*
X191665001Y-96872389D01*
X191665000Y-98865000D01*
X141477407Y-98865000D01*
X142157141Y-98185266D01*
X142553500Y-97228369D01*
X142553500Y-96192633D01*
X142157141Y-95235736D01*
X141424765Y-94503360D01*
X140467868Y-94107001D01*
X139432132Y-94107001D01*
X138475235Y-94503360D01*
X137742859Y-95235736D01*
X137346500Y-96192633D01*
X137346500Y-97228369D01*
X137742859Y-98185266D01*
X138422593Y-98865000D01*
X126335000Y-98865000D01*
X126335000Y-94098710D01*
X126876065Y-94639776D01*
X126933807Y-94726193D01*
X127020223Y-94783934D01*
X127276163Y-94954948D01*
X127680000Y-95035276D01*
X127781934Y-95015000D01*
X131005571Y-95015000D01*
X131029375Y-95050625D01*
X131520582Y-95378839D01*
X131953744Y-95465000D01*
X132246256Y-95465000D01*
X132679418Y-95378839D01*
X133170625Y-95050625D01*
X133371353Y-94750214D01*
X133758642Y-95175183D01*
X134283108Y-95421486D01*
X134513000Y-95300819D01*
X134513000Y-94107000D01*
X134767000Y-94107000D01*
X134767000Y-95300819D01*
X134996892Y-95421486D01*
X135521358Y-95175183D01*
X135911645Y-94746924D01*
X136081476Y-94336890D01*
X135960155Y-94107000D01*
X134767000Y-94107000D01*
X134513000Y-94107000D01*
X134493000Y-94107000D01*
X134493000Y-93853000D01*
X134513000Y-93853000D01*
X134513000Y-93833000D01*
X134767000Y-93833000D01*
X134767000Y-93853000D01*
X135960155Y-93853000D01*
X136031533Y-93717745D01*
X150341861Y-93717745D01*
X150415995Y-93963864D01*
X150953223Y-94156965D01*
X151523454Y-94129778D01*
X151924005Y-93963864D01*
X151998139Y-93717745D01*
X151170000Y-92889605D01*
X150341861Y-93717745D01*
X136031533Y-93717745D01*
X136081476Y-93623110D01*
X135911645Y-93213076D01*
X135521358Y-92784817D01*
X135391522Y-92723843D01*
X135710625Y-92510625D01*
X135734429Y-92475000D01*
X149108066Y-92475000D01*
X149210000Y-92495276D01*
X149311934Y-92475000D01*
X149311935Y-92475000D01*
X149613837Y-92414948D01*
X149794579Y-92294180D01*
X149723035Y-92493223D01*
X149750222Y-93063454D01*
X149916136Y-93464005D01*
X150162255Y-93538139D01*
X150990395Y-92710000D01*
X150976252Y-92695858D01*
X151155858Y-92516252D01*
X151170000Y-92530395D01*
X151998139Y-91702255D01*
X151924005Y-91456136D01*
X151386777Y-91263035D01*
X150823836Y-91289874D01*
X163359776Y-78753935D01*
X163446193Y-78696193D01*
X163674948Y-78353837D01*
X163735000Y-78051935D01*
X163755276Y-77950000D01*
X163735000Y-77848066D01*
X163735000Y-77760642D01*
X163797765Y-77748157D01*
X164007809Y-77607809D01*
X164148157Y-77397765D01*
X164197440Y-77150000D01*
X164197440Y-75450000D01*
X164148157Y-75202235D01*
X164007809Y-74992191D01*
X163797765Y-74851843D01*
X163550000Y-74802560D01*
X161850000Y-74802560D01*
X161602235Y-74851843D01*
X161392191Y-74992191D01*
X161251843Y-75202235D01*
X161202560Y-75450000D01*
X161202560Y-77150000D01*
X161251843Y-77397765D01*
X161392191Y-77607809D01*
X161503863Y-77682426D01*
X148781290Y-90405000D01*
X135734429Y-90405000D01*
X135710625Y-90369375D01*
X135412239Y-90170000D01*
X135710625Y-89970625D01*
X135734429Y-89935000D01*
X141639358Y-89935000D01*
X141651843Y-89997765D01*
X141792191Y-90207809D01*
X142002235Y-90348157D01*
X142250000Y-90397440D01*
X143950000Y-90397440D01*
X144197765Y-90348157D01*
X144407809Y-90207809D01*
X144548157Y-89997765D01*
X144597440Y-89750000D01*
X144597440Y-88050000D01*
X144548157Y-87802235D01*
X144407809Y-87592191D01*
X144197765Y-87451843D01*
X143950000Y-87402560D01*
X142250000Y-87402560D01*
X142002235Y-87451843D01*
X141792191Y-87592191D01*
X141651843Y-87802235D01*
X141639358Y-87865000D01*
X135734429Y-87865000D01*
X135710625Y-87829375D01*
X135219418Y-87501161D01*
X134786256Y-87415000D01*
X134493744Y-87415000D01*
X134060582Y-87501161D01*
X133569375Y-87829375D01*
X133557184Y-87847619D01*
X133548157Y-87802235D01*
X133407809Y-87592191D01*
X133296137Y-87517573D01*
X145638710Y-75175001D01*
X159818065Y-75175001D01*
X159919999Y-75195277D01*
X160021933Y-75175001D01*
X160021934Y-75175001D01*
X160323836Y-75114949D01*
X160666192Y-74886194D01*
X160706247Y-74826248D01*
X160766193Y-74786193D01*
X160994948Y-74443837D01*
X161055000Y-74141935D01*
X161055000Y-74141934D01*
X161075276Y-74040000D01*
X161055000Y-73938066D01*
X161055000Y-73850642D01*
X161117765Y-73838157D01*
X161327809Y-73697809D01*
X161468157Y-73487765D01*
X161517440Y-73240000D01*
X161517440Y-72446270D01*
X167365001Y-66598710D01*
X167365001Y-67968061D01*
X167344724Y-68070000D01*
X167425052Y-68473836D01*
X167475068Y-68548690D01*
X167653808Y-68816193D01*
X167740225Y-68873935D01*
X168720224Y-69853935D01*
X168720227Y-69853937D01*
X168745000Y-69878710D01*
X168745000Y-70135439D01*
X168963466Y-70662862D01*
X169367138Y-71066534D01*
X169894561Y-71285000D01*
X170465439Y-71285000D01*
X170992862Y-71066534D01*
X171396534Y-70662862D01*
X171615000Y-70135439D01*
X171615000Y-69564561D01*
X171396534Y-69037138D01*
X170992862Y-68633466D01*
X170465439Y-68415000D01*
X170208710Y-68415000D01*
X170183937Y-68390227D01*
X170183935Y-68390224D01*
X169435000Y-67641290D01*
X169435000Y-67113089D01*
X169451843Y-67197765D01*
X169592191Y-67407809D01*
X169802235Y-67548157D01*
X170050000Y-67597440D01*
X171750000Y-67597440D01*
X171997765Y-67548157D01*
X172207809Y-67407809D01*
X172348157Y-67197765D01*
X172360642Y-67135000D01*
X172371290Y-67135000D01*
X173765000Y-68528711D01*
X173765001Y-81671288D01*
X164125000Y-91311290D01*
X161053937Y-88240227D01*
X160996193Y-88153807D01*
X160653837Y-87925052D01*
X160351935Y-87865000D01*
X160351934Y-87865000D01*
X160250000Y-87844724D01*
X160148066Y-87865000D01*
X160060642Y-87865000D01*
X160048157Y-87802235D01*
X159907809Y-87592191D01*
X159697765Y-87451843D01*
X159450000Y-87402560D01*
X157750000Y-87402560D01*
X157502235Y-87451843D01*
X157292191Y-87592191D01*
X157151843Y-87802235D01*
X157102560Y-88050000D01*
X157102560Y-89750000D01*
X157151843Y-89997765D01*
X157292191Y-90207809D01*
X157502235Y-90348157D01*
X157750000Y-90397440D01*
X159450000Y-90397440D01*
X159697765Y-90348157D01*
X159907809Y-90207809D01*
X159982427Y-90096137D01*
X163045000Y-93158711D01*
X163045000Y-95236957D01*
X162810000Y-95588660D01*
X162547179Y-95195321D01*
X162085081Y-94886557D01*
X161540000Y-94778133D01*
X160994918Y-94886557D01*
X160532820Y-95195322D01*
X160270000Y-95588660D01*
X160007179Y-95195321D01*
X159545081Y-94886557D01*
X159000000Y-94778133D01*
X158609098Y-94855889D01*
X155803436Y-92050227D01*
X155745692Y-91963807D01*
X155403336Y-91735052D01*
X155101434Y-91675000D01*
X155101433Y-91675000D01*
X155069430Y-91668634D01*
X155068157Y-91662235D01*
X154927809Y-91452191D01*
X154717765Y-91311843D01*
X154470000Y-91262560D01*
X152870000Y-91262560D01*
X152622235Y-91311843D01*
X152412191Y-91452191D01*
X152271843Y-91662235D01*
X152225307Y-91896187D01*
X152177745Y-91881861D01*
X151349605Y-92710000D01*
X152177745Y-93538139D01*
X152225307Y-93523813D01*
X152271843Y-93757765D01*
X152412191Y-93967809D01*
X152622235Y-94108157D01*
X152870000Y-94157440D01*
X154470000Y-94157440D01*
X154717765Y-94108157D01*
X154847356Y-94021567D01*
X157603000Y-96777212D01*
X157603000Y-97356089D01*
X157684056Y-97763583D01*
X157992821Y-98225681D01*
X158454919Y-98534445D01*
X159000000Y-98642869D01*
X159545082Y-98534445D01*
X160007180Y-98225681D01*
X160270000Y-97832343D01*
X160532821Y-98225681D01*
X160994919Y-98534445D01*
X161540000Y-98642869D01*
X162085082Y-98534445D01*
X162547180Y-98225681D01*
X162810000Y-97832343D01*
X163072821Y-98225681D01*
X163534919Y-98534445D01*
X164080000Y-98642869D01*
X164625082Y-98534445D01*
X165087180Y-98225681D01*
X165361580Y-97815012D01*
X165377941Y-97870442D01*
X165721974Y-98296131D01*
X166202723Y-98557761D01*
X166276930Y-98572721D01*
X166493000Y-98450221D01*
X166493000Y-96837501D01*
X166747000Y-96837501D01*
X166747000Y-98450221D01*
X166963070Y-98572721D01*
X167037277Y-98557761D01*
X167518026Y-98296131D01*
X167862059Y-97870442D01*
X167890000Y-97775778D01*
X167917941Y-97870442D01*
X168261974Y-98296131D01*
X168742723Y-98557761D01*
X168816930Y-98572721D01*
X169033000Y-98450221D01*
X169033000Y-96837501D01*
X166747000Y-96837501D01*
X166493000Y-96837501D01*
X166473000Y-96837501D01*
X166473000Y-96583501D01*
X166493000Y-96583501D01*
X166493000Y-94970781D01*
X166747000Y-94970781D01*
X166747000Y-96583501D01*
X169033000Y-96583501D01*
X169033000Y-94970781D01*
X169287000Y-94970781D01*
X169287000Y-96583501D01*
X169307000Y-96583501D01*
X169307000Y-96837501D01*
X169287000Y-96837501D01*
X169287000Y-98450221D01*
X169503070Y-98572721D01*
X169577277Y-98557761D01*
X170058026Y-98296131D01*
X170402059Y-97870442D01*
X170418420Y-97815012D01*
X170692821Y-98225681D01*
X171154919Y-98534445D01*
X171700000Y-98642869D01*
X172245082Y-98534445D01*
X172707180Y-98225681D01*
X173015944Y-97763583D01*
X173097000Y-97356089D01*
X173097000Y-96064914D01*
X175383000Y-96064914D01*
X175383000Y-97356089D01*
X175464056Y-97763583D01*
X175772821Y-98225681D01*
X176234919Y-98534445D01*
X176780000Y-98642869D01*
X177325082Y-98534445D01*
X177787180Y-98225681D01*
X178050000Y-97832343D01*
X178312821Y-98225681D01*
X178774919Y-98534445D01*
X179320000Y-98642869D01*
X179865082Y-98534445D01*
X180327180Y-98225681D01*
X180590000Y-97832343D01*
X180852821Y-98225681D01*
X181314919Y-98534445D01*
X181860000Y-98642869D01*
X182405082Y-98534445D01*
X182867180Y-98225681D01*
X183130000Y-97832343D01*
X183392821Y-98225681D01*
X183854919Y-98534445D01*
X184400000Y-98642869D01*
X184945082Y-98534445D01*
X185407180Y-98225681D01*
X185670000Y-97832343D01*
X185932821Y-98225681D01*
X186394919Y-98534445D01*
X186940000Y-98642869D01*
X187485082Y-98534445D01*
X187947180Y-98225681D01*
X188210000Y-97832343D01*
X188472821Y-98225681D01*
X188934919Y-98534445D01*
X189480000Y-98642869D01*
X190025082Y-98534445D01*
X190487180Y-98225681D01*
X190795944Y-97763583D01*
X190877000Y-97356089D01*
X190877000Y-96064913D01*
X190795944Y-95657419D01*
X190487179Y-95195321D01*
X190025081Y-94886557D01*
X189480000Y-94778133D01*
X188934918Y-94886557D01*
X188472820Y-95195322D01*
X188210000Y-95588660D01*
X187947179Y-95195321D01*
X187485081Y-94886557D01*
X186940000Y-94778133D01*
X186394918Y-94886557D01*
X185932820Y-95195322D01*
X185670000Y-95588660D01*
X185407179Y-95195321D01*
X184945081Y-94886557D01*
X184400000Y-94778133D01*
X183854918Y-94886557D01*
X183392820Y-95195322D01*
X183130000Y-95588660D01*
X182867179Y-95195321D01*
X182405081Y-94886557D01*
X181860000Y-94778133D01*
X181314918Y-94886557D01*
X180852820Y-95195322D01*
X180590000Y-95588660D01*
X180327179Y-95195321D01*
X179865081Y-94886557D01*
X179320000Y-94778133D01*
X178774918Y-94886557D01*
X178312820Y-95195322D01*
X178050000Y-95588660D01*
X177787179Y-95195321D01*
X177325081Y-94886557D01*
X176780000Y-94778133D01*
X176234918Y-94886557D01*
X175772820Y-95195322D01*
X175464056Y-95657420D01*
X175383000Y-96064914D01*
X173097000Y-96064914D01*
X173097000Y-96064913D01*
X173015944Y-95657419D01*
X172707179Y-95195321D01*
X172245081Y-94886557D01*
X171700000Y-94778133D01*
X171154918Y-94886557D01*
X170692820Y-95195322D01*
X170418420Y-95605991D01*
X170402059Y-95550560D01*
X170058026Y-95124871D01*
X169577277Y-94863241D01*
X169503070Y-94848281D01*
X169287000Y-94970781D01*
X169033000Y-94970781D01*
X168816930Y-94848281D01*
X168742723Y-94863241D01*
X168261974Y-95124871D01*
X167917941Y-95550560D01*
X167890000Y-95645224D01*
X167862059Y-95550560D01*
X167518026Y-95124871D01*
X167037277Y-94863241D01*
X166963070Y-94848281D01*
X166747000Y-94970781D01*
X166493000Y-94970781D01*
X166276930Y-94848281D01*
X166202723Y-94863241D01*
X165721974Y-95124871D01*
X165377941Y-95550560D01*
X165361580Y-95605990D01*
X165115000Y-95236958D01*
X165115000Y-93248710D01*
X175459776Y-82903935D01*
X175546193Y-82846193D01*
X175774948Y-82503837D01*
X175835000Y-82201935D01*
X175835000Y-82201930D01*
X175855275Y-82100001D01*
X175835000Y-81998071D01*
X175835000Y-69850000D01*
X178876887Y-69850000D01*
X178988260Y-70409909D01*
X179305423Y-70884577D01*
X179780091Y-71201740D01*
X180198667Y-71285000D01*
X180481333Y-71285000D01*
X180899909Y-71201740D01*
X181373944Y-70885000D01*
X183014183Y-70885000D01*
X183280493Y-71151310D01*
X183844670Y-71385000D01*
X184455330Y-71385000D01*
X185019507Y-71151310D01*
X185195861Y-70974956D01*
X185251673Y-71109699D01*
X185430302Y-71288327D01*
X185663691Y-71385000D01*
X186404250Y-71385000D01*
X186563000Y-71226250D01*
X186563000Y-69977000D01*
X186817000Y-69977000D01*
X186817000Y-71226250D01*
X186975750Y-71385000D01*
X187716309Y-71385000D01*
X187949698Y-71288327D01*
X188128327Y-71109699D01*
X188225000Y-70876310D01*
X188225000Y-70135750D01*
X188066250Y-69977000D01*
X186817000Y-69977000D01*
X186563000Y-69977000D01*
X186543000Y-69977000D01*
X186543000Y-69723000D01*
X186563000Y-69723000D01*
X186563000Y-68473750D01*
X186817000Y-68473750D01*
X186817000Y-69723000D01*
X188066250Y-69723000D01*
X188225000Y-69564250D01*
X188225000Y-68823690D01*
X188128327Y-68590301D01*
X187949698Y-68411673D01*
X187716309Y-68315000D01*
X186975750Y-68315000D01*
X186817000Y-68473750D01*
X186563000Y-68473750D01*
X186404250Y-68315000D01*
X185663691Y-68315000D01*
X185430302Y-68411673D01*
X185251673Y-68590301D01*
X185195861Y-68725044D01*
X185019507Y-68548690D01*
X184455330Y-68315000D01*
X183844670Y-68315000D01*
X183280493Y-68548690D01*
X183014183Y-68815000D01*
X181373944Y-68815000D01*
X180899909Y-68498260D01*
X180481333Y-68415000D01*
X180198667Y-68415000D01*
X179780091Y-68498260D01*
X179305423Y-68815423D01*
X178988260Y-69290091D01*
X178876887Y-69850000D01*
X175835000Y-69850000D01*
X175835000Y-68201934D01*
X175855276Y-68099999D01*
X175774948Y-67696163D01*
X175734080Y-67635000D01*
X175546193Y-67353807D01*
X175459776Y-67296065D01*
X173603937Y-65440227D01*
X173546193Y-65353807D01*
X173203837Y-65125052D01*
X172901935Y-65065000D01*
X172901934Y-65065000D01*
X172800000Y-65044724D01*
X172698066Y-65065000D01*
X172360642Y-65065000D01*
X172348157Y-65002235D01*
X172207809Y-64792191D01*
X171997765Y-64651843D01*
X171750000Y-64602560D01*
X170050000Y-64602560D01*
X169802235Y-64651843D01*
X169592191Y-64792191D01*
X169451843Y-65002235D01*
X169435000Y-65086911D01*
X169435000Y-63474643D01*
X169894561Y-63665000D01*
X170465439Y-63665000D01*
X170992862Y-63446534D01*
X171396534Y-63042862D01*
X171615000Y-62515439D01*
X171615000Y-62230000D01*
X178876887Y-62230000D01*
X178988260Y-62789909D01*
X179305423Y-63264577D01*
X179780091Y-63581740D01*
X180198667Y-63665000D01*
X180481333Y-63665000D01*
X180899909Y-63581740D01*
X181373944Y-63265000D01*
X183014183Y-63265000D01*
X183280493Y-63531310D01*
X183844670Y-63765000D01*
X184455330Y-63765000D01*
X185019507Y-63531310D01*
X185195861Y-63354956D01*
X185251673Y-63489699D01*
X185430302Y-63668327D01*
X185663691Y-63765000D01*
X186404250Y-63765000D01*
X186563000Y-63606250D01*
X186563000Y-62357000D01*
X186817000Y-62357000D01*
X186817000Y-63606250D01*
X186975750Y-63765000D01*
X187716309Y-63765000D01*
X187949698Y-63668327D01*
X188128327Y-63489699D01*
X188225000Y-63256310D01*
X188225000Y-62515750D01*
X188066250Y-62357000D01*
X186817000Y-62357000D01*
X186563000Y-62357000D01*
X186543000Y-62357000D01*
X186543000Y-62103000D01*
X186563000Y-62103000D01*
X186563000Y-60853750D01*
X186817000Y-60853750D01*
X186817000Y-62103000D01*
X188066250Y-62103000D01*
X188225000Y-61944250D01*
X188225000Y-61203690D01*
X188128327Y-60970301D01*
X187949698Y-60791673D01*
X187716309Y-60695000D01*
X186975750Y-60695000D01*
X186817000Y-60853750D01*
X186563000Y-60853750D01*
X186404250Y-60695000D01*
X185663691Y-60695000D01*
X185430302Y-60791673D01*
X185251673Y-60970301D01*
X185195861Y-61105044D01*
X185019507Y-60928690D01*
X184455330Y-60695000D01*
X183844670Y-60695000D01*
X183280493Y-60928690D01*
X183014183Y-61195000D01*
X181373944Y-61195000D01*
X180899909Y-60878260D01*
X180481333Y-60795000D01*
X180198667Y-60795000D01*
X179780091Y-60878260D01*
X179305423Y-61195423D01*
X178988260Y-61670091D01*
X178876887Y-62230000D01*
X171615000Y-62230000D01*
X171615000Y-61944561D01*
X171396534Y-61417138D01*
X171215000Y-61235604D01*
X171215000Y-58512464D01*
X171235276Y-58410529D01*
X171154948Y-58006693D01*
X171114523Y-57946193D01*
X170926193Y-57664337D01*
X170839776Y-57606595D01*
X168671000Y-55437820D01*
X168671000Y-54324561D01*
X168745000Y-54324561D01*
X168745000Y-54895439D01*
X168963466Y-55422862D01*
X169367138Y-55826534D01*
X169894561Y-56045000D01*
X170465439Y-56045000D01*
X170992862Y-55826534D01*
X171396534Y-55422862D01*
X171615000Y-54895439D01*
X171615000Y-54638710D01*
X171643710Y-54610000D01*
X178876887Y-54610000D01*
X178988260Y-55169909D01*
X179305423Y-55644577D01*
X179780091Y-55961740D01*
X180198667Y-56045000D01*
X180481333Y-56045000D01*
X180899909Y-55961740D01*
X181373944Y-55645000D01*
X183014183Y-55645000D01*
X183280493Y-55911310D01*
X183844670Y-56145000D01*
X184455330Y-56145000D01*
X185019507Y-55911310D01*
X185195861Y-55734956D01*
X185251673Y-55869699D01*
X185430302Y-56048327D01*
X185663691Y-56145000D01*
X186404250Y-56145000D01*
X186563000Y-55986250D01*
X186563000Y-54737000D01*
X186817000Y-54737000D01*
X186817000Y-55986250D01*
X186975750Y-56145000D01*
X187716309Y-56145000D01*
X187949698Y-56048327D01*
X188128327Y-55869699D01*
X188225000Y-55636310D01*
X188225000Y-54895750D01*
X188066250Y-54737000D01*
X186817000Y-54737000D01*
X186563000Y-54737000D01*
X186543000Y-54737000D01*
X186543000Y-54483000D01*
X186563000Y-54483000D01*
X186563000Y-53233750D01*
X186817000Y-53233750D01*
X186817000Y-54483000D01*
X188066250Y-54483000D01*
X188225000Y-54324250D01*
X188225000Y-53583690D01*
X188128327Y-53350301D01*
X187949698Y-53171673D01*
X187716309Y-53075000D01*
X186975750Y-53075000D01*
X186817000Y-53233750D01*
X186563000Y-53233750D01*
X186404250Y-53075000D01*
X185663691Y-53075000D01*
X185430302Y-53171673D01*
X185251673Y-53350301D01*
X185195861Y-53485044D01*
X185019507Y-53308690D01*
X184455330Y-53075000D01*
X183844670Y-53075000D01*
X183280493Y-53308690D01*
X183014183Y-53575000D01*
X181373944Y-53575000D01*
X180899909Y-53258260D01*
X180481333Y-53175000D01*
X180198667Y-53175000D01*
X179780091Y-53258260D01*
X179305423Y-53575423D01*
X178988260Y-54050091D01*
X178876887Y-54610000D01*
X171643710Y-54610000D01*
X172359776Y-53893935D01*
X172446193Y-53836193D01*
X172674948Y-53493837D01*
X172735000Y-53191935D01*
X172755276Y-53090000D01*
X172735000Y-52988066D01*
X172735000Y-49924045D01*
X172970000Y-49572343D01*
X173232821Y-49965681D01*
X173694919Y-50274445D01*
X174240000Y-50382869D01*
X174785082Y-50274445D01*
X175247180Y-49965681D01*
X175510000Y-49572343D01*
X175772821Y-49965681D01*
X176234919Y-50274445D01*
X176780000Y-50382869D01*
X177325082Y-50274445D01*
X177787180Y-49965681D01*
X178050000Y-49572343D01*
X178312821Y-49965681D01*
X178774919Y-50274445D01*
X179320000Y-50382869D01*
X179865082Y-50274445D01*
X180327180Y-49965681D01*
X180590000Y-49572343D01*
X180852821Y-49965681D01*
X181314919Y-50274445D01*
X181860000Y-50382869D01*
X182405082Y-50274445D01*
X182867180Y-49965681D01*
X183130000Y-49572343D01*
X183392821Y-49965681D01*
X183854919Y-50274445D01*
X184400000Y-50382869D01*
X184945082Y-50274445D01*
X185407180Y-49965681D01*
X185670000Y-49572343D01*
X185932821Y-49965681D01*
X186394919Y-50274445D01*
X186940000Y-50382869D01*
X187485082Y-50274445D01*
X187947180Y-49965681D01*
X188210000Y-49572343D01*
X188472821Y-49965681D01*
X188934919Y-50274445D01*
X189480000Y-50382869D01*
X190025082Y-50274445D01*
X190487180Y-49965681D01*
X190795944Y-49503583D01*
X190877000Y-49096089D01*
X190877000Y-47804913D01*
X190795944Y-47397419D01*
X190487179Y-46935321D01*
X190025081Y-46626557D01*
X189480000Y-46518133D01*
X188934918Y-46626557D01*
X188472820Y-46935322D01*
X188210000Y-47328660D01*
X187947179Y-46935321D01*
X187485081Y-46626557D01*
X186940000Y-46518133D01*
X186394918Y-46626557D01*
X185932820Y-46935322D01*
X185670000Y-47328660D01*
X185407179Y-46935321D01*
X184945081Y-46626557D01*
X184400000Y-46518133D01*
X183854918Y-46626557D01*
X183392820Y-46935322D01*
X183130000Y-47328660D01*
X182867179Y-46935321D01*
X182405081Y-46626557D01*
X181860000Y-46518133D01*
X181314918Y-46626557D01*
X180852820Y-46935322D01*
X180590000Y-47328660D01*
X180327179Y-46935321D01*
X179865081Y-46626557D01*
X179320000Y-46518133D01*
X178774918Y-46626557D01*
X178312820Y-46935322D01*
X178050000Y-47328660D01*
X177787179Y-46935321D01*
X177325081Y-46626557D01*
X176780000Y-46518133D01*
X176234918Y-46626557D01*
X175772820Y-46935322D01*
X175510000Y-47328660D01*
X175247179Y-46935321D01*
X174785081Y-46626557D01*
X174240000Y-46518133D01*
X173694918Y-46626557D01*
X173232820Y-46935322D01*
X172970000Y-47328660D01*
X172707179Y-46935321D01*
X172245081Y-46626557D01*
X171700000Y-46518133D01*
X171154918Y-46626557D01*
X170692820Y-46935322D01*
X170384056Y-47397420D01*
X170303000Y-47804914D01*
X170303000Y-49096089D01*
X170384056Y-49503583D01*
X170665000Y-49924045D01*
X170665001Y-52661288D01*
X170151290Y-53175000D01*
X169894561Y-53175000D01*
X169367138Y-53393466D01*
X168963466Y-53797138D01*
X168745000Y-54324561D01*
X168671000Y-54324561D01*
X168671000Y-49924045D01*
X168951944Y-49503583D01*
X169033000Y-49096089D01*
X169033000Y-47804913D01*
X168951944Y-47397419D01*
X168643179Y-46935321D01*
X168181081Y-46626557D01*
X167636000Y-46518133D01*
X167090918Y-46626557D01*
X166628820Y-46935322D01*
X166366000Y-47328660D01*
X166103179Y-46935321D01*
X165641081Y-46626557D01*
X165096000Y-46518133D01*
X164550918Y-46626557D01*
X164088820Y-46935322D01*
X163826000Y-47328660D01*
X163563179Y-46935321D01*
X163101081Y-46626557D01*
X162556000Y-46518133D01*
X162010918Y-46626557D01*
X161548820Y-46935322D01*
X161286000Y-47328660D01*
X161023179Y-46935321D01*
X160561081Y-46626557D01*
X160016000Y-46518133D01*
X159470918Y-46626557D01*
X159008820Y-46935322D01*
X158746000Y-47328660D01*
X158483179Y-46935321D01*
X158021081Y-46626557D01*
X157476000Y-46518133D01*
X156930918Y-46626557D01*
X156468820Y-46935322D01*
X156206000Y-47328660D01*
X155943179Y-46935321D01*
X155481081Y-46626557D01*
X154936000Y-46518133D01*
X154390918Y-46626557D01*
X153928820Y-46935322D01*
X153654420Y-47345991D01*
X153638059Y-47290560D01*
X153294026Y-46864871D01*
X152813277Y-46603241D01*
X152739070Y-46588281D01*
X152523000Y-46710781D01*
X152523000Y-48323501D01*
X152543000Y-48323501D01*
X152543000Y-48577501D01*
X152523000Y-48577501D01*
X152523000Y-50190221D01*
X152739070Y-50312721D01*
X152813277Y-50297761D01*
X153294026Y-50036131D01*
X153638059Y-49610442D01*
X153654420Y-49555012D01*
X153928821Y-49965681D01*
X154390919Y-50274445D01*
X154936000Y-50382869D01*
X155046288Y-50360931D01*
X155067797Y-50393121D01*
X155132755Y-50436525D01*
X155140990Y-50477923D01*
X155140990Y-50477924D01*
X155201042Y-50779826D01*
X155429798Y-51122182D01*
X155516215Y-51179924D01*
X157114977Y-52778687D01*
X157114978Y-53298062D01*
X157114977Y-53298066D01*
X157114977Y-54071312D01*
X156440225Y-54746065D01*
X156353808Y-54803807D01*
X156296066Y-54890224D01*
X156125052Y-55146164D01*
X156044724Y-55550000D01*
X156065001Y-55651939D01*
X156065001Y-55739358D01*
X156002235Y-55751843D01*
X155792191Y-55892191D01*
X155651843Y-56102235D01*
X155635000Y-56186911D01*
X155635000Y-55277239D01*
X155986086Y-54926153D01*
X156235000Y-54325222D01*
X156235000Y-53674778D01*
X155986086Y-53073847D01*
X155526153Y-52613914D01*
X154925222Y-52365000D01*
X154274778Y-52365000D01*
X153673847Y-52613914D01*
X153213914Y-53073847D01*
X152965000Y-53674778D01*
X152965000Y-54325222D01*
X153213914Y-54926153D01*
X153565000Y-55277239D01*
X153565001Y-59222760D01*
X153213914Y-59573847D01*
X152965000Y-60174778D01*
X152965000Y-60671289D01*
X151740225Y-61896065D01*
X151653808Y-61953807D01*
X151621232Y-62002560D01*
X151550000Y-62002560D01*
X151302235Y-62051843D01*
X151092191Y-62192191D01*
X150951843Y-62402235D01*
X150902560Y-62650000D01*
X150902560Y-64350000D01*
X150951843Y-64597765D01*
X151092191Y-64807809D01*
X151302235Y-64948157D01*
X151347619Y-64957184D01*
X151329375Y-64969375D01*
X151305571Y-65005000D01*
X150023944Y-65005000D01*
X149672242Y-64770000D01*
X150024577Y-64534577D01*
X150341740Y-64059909D01*
X150453113Y-63500000D01*
X150341740Y-62940091D01*
X150024577Y-62465423D01*
X149769035Y-62294675D01*
X149928710Y-62135000D01*
X150425222Y-62135000D01*
X151026153Y-61886086D01*
X151486086Y-61426153D01*
X151735000Y-60825222D01*
X151735000Y-60174778D01*
X151486086Y-59573847D01*
X151135000Y-59222761D01*
X151135000Y-55277239D01*
X151486086Y-54926153D01*
X151735000Y-54325222D01*
X151735000Y-53674778D01*
X151486086Y-53073847D01*
X151026153Y-52613914D01*
X150425222Y-52365000D01*
X149774778Y-52365000D01*
X149173847Y-52613914D01*
X148713914Y-53073847D01*
X148465000Y-53674778D01*
X148465000Y-54325222D01*
X148713914Y-54926153D01*
X149065000Y-55277239D01*
X149065000Y-55745326D01*
X148850000Y-55702560D01*
X147150000Y-55702560D01*
X146902235Y-55751843D01*
X146692191Y-55892191D01*
X146551843Y-56102235D01*
X146502560Y-56350000D01*
X146502560Y-58050000D01*
X146551843Y-58297765D01*
X146692191Y-58507809D01*
X146803863Y-58582426D01*
X145740227Y-59646063D01*
X145653807Y-59703807D01*
X145480760Y-59962791D01*
X145425052Y-60046164D01*
X145344724Y-60450000D01*
X145365000Y-60551934D01*
X145365001Y-70682797D01*
X129690226Y-86357573D01*
X129603806Y-86415317D01*
X129375052Y-86757673D01*
X129375051Y-86757674D01*
X129294723Y-87161510D01*
X129314999Y-87263445D01*
X129315000Y-90790141D01*
X129294723Y-90892080D01*
X129375051Y-91295916D01*
X129375052Y-91295917D01*
X129603807Y-91638273D01*
X129690224Y-91696015D01*
X130093982Y-92099773D01*
X130151726Y-92186193D01*
X130494082Y-92414948D01*
X130897919Y-92495276D01*
X130999853Y-92475000D01*
X131005571Y-92475000D01*
X131029375Y-92510625D01*
X131327761Y-92710000D01*
X131029375Y-92909375D01*
X131005571Y-92945000D01*
X128108711Y-92945000D01*
X127635010Y-92471300D01*
X127635010Y-71476890D01*
X135718524Y-71476890D01*
X135888355Y-71886924D01*
X136278642Y-72315183D01*
X136803108Y-72561486D01*
X137033000Y-72440819D01*
X137033000Y-71247000D01*
X137287000Y-71247000D01*
X137287000Y-72440819D01*
X137516892Y-72561486D01*
X138041358Y-72315183D01*
X138431645Y-71886924D01*
X138601476Y-71476890D01*
X138597333Y-71469039D01*
X139178096Y-71469039D01*
X139195633Y-71551819D01*
X139465500Y-72044896D01*
X139903517Y-72397166D01*
X140443000Y-72555000D01*
X140843000Y-72555000D01*
X140843000Y-71247000D01*
X141097000Y-71247000D01*
X141097000Y-72555000D01*
X141497000Y-72555000D01*
X142036483Y-72397166D01*
X142474500Y-72044896D01*
X142744367Y-71551819D01*
X142761904Y-71469039D01*
X142639915Y-71247000D01*
X141097000Y-71247000D01*
X140843000Y-71247000D01*
X139300085Y-71247000D01*
X139178096Y-71469039D01*
X138597333Y-71469039D01*
X138480155Y-71247000D01*
X137287000Y-71247000D01*
X137033000Y-71247000D01*
X135839845Y-71247000D01*
X135718524Y-71476890D01*
X127635010Y-71476890D01*
X127635010Y-66868700D01*
X129506271Y-64997440D01*
X130390000Y-64997440D01*
X130637765Y-64948157D01*
X130847809Y-64807809D01*
X130988157Y-64597765D01*
X130997184Y-64552381D01*
X131009375Y-64570625D01*
X131500582Y-64898839D01*
X131933744Y-64985000D01*
X132226256Y-64985000D01*
X132659418Y-64898839D01*
X133150625Y-64570625D01*
X133174429Y-64535000D01*
X135699358Y-64535000D01*
X135711843Y-64597765D01*
X135852191Y-64807809D01*
X136062235Y-64948157D01*
X136107619Y-64957184D01*
X136089375Y-64969375D01*
X135761161Y-65460582D01*
X135645908Y-66040000D01*
X135761161Y-66619418D01*
X136089375Y-67110625D01*
X136387761Y-67310000D01*
X136089375Y-67509375D01*
X135761161Y-68000582D01*
X135645908Y-68580000D01*
X135761161Y-69159418D01*
X136089375Y-69650625D01*
X136408478Y-69863843D01*
X136278642Y-69924817D01*
X135888355Y-70353076D01*
X135718524Y-70763110D01*
X135839845Y-70993000D01*
X137033000Y-70993000D01*
X137033000Y-70973000D01*
X137287000Y-70973000D01*
X137287000Y-70993000D01*
X138480155Y-70993000D01*
X138601476Y-70763110D01*
X138431645Y-70353076D01*
X138041358Y-69924817D01*
X137911522Y-69863843D01*
X138230625Y-69650625D01*
X138254429Y-69615000D01*
X139536056Y-69615000D01*
X139891499Y-69852499D01*
X139465500Y-70195104D01*
X139195633Y-70688181D01*
X139178096Y-70770961D01*
X139300085Y-70993000D01*
X140843000Y-70993000D01*
X140843000Y-70973000D01*
X141097000Y-70973000D01*
X141097000Y-70993000D01*
X142639915Y-70993000D01*
X142761904Y-70770961D01*
X142744367Y-70688181D01*
X142474500Y-70195104D01*
X142048501Y-69852499D01*
X142404577Y-69614577D01*
X142721740Y-69139909D01*
X142833113Y-68580000D01*
X142721740Y-68020091D01*
X142404577Y-67545423D01*
X142052242Y-67310000D01*
X142404577Y-67074577D01*
X142721740Y-66599909D01*
X142833113Y-66040000D01*
X142721740Y-65480091D01*
X142404577Y-65005423D01*
X142283894Y-64924785D01*
X142417765Y-64898157D01*
X142627809Y-64757809D01*
X142768157Y-64547765D01*
X142817440Y-64300000D01*
X142817440Y-62700000D01*
X142768157Y-62452235D01*
X142627809Y-62242191D01*
X142417765Y-62101843D01*
X142170000Y-62052560D01*
X139770000Y-62052560D01*
X139522235Y-62101843D01*
X139312191Y-62242191D01*
X139171843Y-62452235D01*
X139169304Y-62465000D01*
X138620642Y-62465000D01*
X138608157Y-62402235D01*
X138467809Y-62192191D01*
X138257765Y-62051843D01*
X138010000Y-62002560D01*
X136310000Y-62002560D01*
X136062235Y-62051843D01*
X135852191Y-62192191D01*
X135711843Y-62402235D01*
X135699358Y-62465000D01*
X133174429Y-62465000D01*
X133150625Y-62429375D01*
X132659418Y-62101161D01*
X132226256Y-62015000D01*
X131933744Y-62015000D01*
X131500582Y-62101161D01*
X131009375Y-62429375D01*
X130997184Y-62447619D01*
X130988157Y-62402235D01*
X130847809Y-62192191D01*
X130736137Y-62117573D01*
X131518711Y-61335000D01*
X135048066Y-61335000D01*
X135150000Y-61355276D01*
X135251934Y-61335000D01*
X135251935Y-61335000D01*
X135553837Y-61274948D01*
X135896193Y-61046193D01*
X135953937Y-60959773D01*
X143717574Y-53196137D01*
X143792191Y-53307809D01*
X144002235Y-53448157D01*
X144250000Y-53497440D01*
X145950000Y-53497440D01*
X146197765Y-53448157D01*
X146407809Y-53307809D01*
X146548157Y-53097765D01*
X146597440Y-52850000D01*
X146597440Y-51150000D01*
X146548157Y-50902235D01*
X146407809Y-50692191D01*
X146197765Y-50551843D01*
X145950000Y-50502560D01*
X144250000Y-50502560D01*
X144002235Y-50551843D01*
X143792191Y-50692191D01*
X143651843Y-50902235D01*
X143639358Y-50965000D01*
X143551934Y-50965000D01*
X143450000Y-50944724D01*
X143348065Y-50965000D01*
X143046163Y-51025052D01*
X142703807Y-51253807D01*
X142646065Y-51340224D01*
X134721290Y-59265000D01*
X131191934Y-59265000D01*
X131089999Y-59244724D01*
X130988065Y-59265000D01*
X130686163Y-59325052D01*
X130343807Y-59553807D01*
X130286065Y-59640224D01*
X128880225Y-61046065D01*
X128793808Y-61103807D01*
X128736066Y-61190224D01*
X128565052Y-61446164D01*
X128484724Y-61850000D01*
X128505001Y-61951939D01*
X128505001Y-62039358D01*
X128442235Y-62051843D01*
X128232191Y-62192191D01*
X128091843Y-62402235D01*
X128042560Y-62650000D01*
X128042560Y-63533729D01*
X126335000Y-65241290D01*
X126335000Y-46335000D01*
X139653595Y-46335000D01*
X139012859Y-46975736D01*
X139012859Y-46975736D01*
G37*
X139012859Y-46975736D02*
X138616500Y-47932633D01*
X138616500Y-48968369D01*
X139012859Y-49925266D01*
X139745235Y-50657642D01*
X140702132Y-51054001D01*
X141737868Y-51054001D01*
X142694765Y-50657642D01*
X143427141Y-49925266D01*
X143823500Y-48968369D01*
X143823500Y-47932633D01*
X143770598Y-47804914D01*
X148459000Y-47804914D01*
X148459000Y-49096089D01*
X148540056Y-49503583D01*
X148848821Y-49965681D01*
X149310919Y-50274445D01*
X149856000Y-50382869D01*
X150401082Y-50274445D01*
X150863180Y-49965681D01*
X151137580Y-49555012D01*
X151153941Y-49610442D01*
X151497974Y-50036131D01*
X151978723Y-50297761D01*
X152052930Y-50312721D01*
X152269000Y-50190221D01*
X152269000Y-48577501D01*
X152249000Y-48577501D01*
X152249000Y-48323501D01*
X152269000Y-48323501D01*
X152269000Y-46710781D01*
X152052930Y-46588281D01*
X151978723Y-46603241D01*
X151497974Y-46864871D01*
X151153941Y-47290560D01*
X151137580Y-47345990D01*
X150863179Y-46935321D01*
X150401081Y-46626557D01*
X149856000Y-46518133D01*
X149310918Y-46626557D01*
X148848820Y-46935322D01*
X148540056Y-47397420D01*
X148459000Y-47804914D01*
X143770598Y-47804914D01*
X143427141Y-46975736D01*
X142786405Y-46335000D01*
X190695554Y-46335000D01*
X191665001Y-47304448D01*
X191665000Y-58427616D01*
X191650602Y-58500000D01*
X191665000Y-58572384D01*
X191665000Y-58572387D01*
X191707646Y-58786782D01*
X191870095Y-59029905D01*
X191931465Y-59070911D01*
X194165001Y-61304448D01*
X194165001Y-62153596D01*
X193494765Y-61483360D01*
X192537868Y-61087001D01*
X191502132Y-61087001D01*
X190545235Y-61483360D01*
X189812859Y-62215736D01*
X189416500Y-63172633D01*
X189416500Y-64208369D01*
X189812859Y-65165266D01*
X190545235Y-65897642D01*
X191502132Y-66294001D01*
X192537868Y-66294001D01*
X193494765Y-65897642D01*
X194165001Y-65227406D01*
X194165000Y-90093595D01*
X193494765Y-89423360D01*
X192537868Y-89027001D01*
X191502132Y-89027001D01*
X190545235Y-89423360D01*
X189812859Y-90155736D01*
X189416500Y-91112633D01*
X189416500Y-92148369D01*
X189812859Y-93105266D01*
X190545235Y-93837642D01*
X191502132Y-94234001D01*
X192537868Y-94234001D01*
X193494765Y-93837642D01*
X194165000Y-93167407D01*
X194165000Y-93995553D01*
X191931463Y-96229091D01*
X191870096Y-96270095D01*
X191829092Y-96331462D01*
X191829091Y-96331463D01*
X191707646Y-96513218D01*
X191650602Y-96800000D01*
X191665001Y-96872389D01*
X191665000Y-98865000D01*
X141477407Y-98865000D01*
X142157141Y-98185266D01*
X142553500Y-97228369D01*
X142553500Y-96192633D01*
X142157141Y-95235736D01*
X141424765Y-94503360D01*
X140467868Y-94107001D01*
X139432132Y-94107001D01*
X138475235Y-94503360D01*
X137742859Y-95235736D01*
X137346500Y-96192633D01*
X137346500Y-97228369D01*
X137742859Y-98185266D01*
X138422593Y-98865000D01*
X126335000Y-98865000D01*
X126335000Y-94098710D01*
X126876065Y-94639776D01*
X126933807Y-94726193D01*
X127020223Y-94783934D01*
X127276163Y-94954948D01*
X127680000Y-95035276D01*
X127781934Y-95015000D01*
X131005571Y-95015000D01*
X131029375Y-95050625D01*
X131520582Y-95378839D01*
X131953744Y-95465000D01*
X132246256Y-95465000D01*
X132679418Y-95378839D01*
X133170625Y-95050625D01*
X133371353Y-94750214D01*
X133758642Y-95175183D01*
X134283108Y-95421486D01*
X134513000Y-95300819D01*
X134513000Y-94107000D01*
X134767000Y-94107000D01*
X134767000Y-95300819D01*
X134996892Y-95421486D01*
X135521358Y-95175183D01*
X135911645Y-94746924D01*
X136081476Y-94336890D01*
X135960155Y-94107000D01*
X134767000Y-94107000D01*
X134513000Y-94107000D01*
X134493000Y-94107000D01*
X134493000Y-93853000D01*
X134513000Y-93853000D01*
X134513000Y-93833000D01*
X134767000Y-93833000D01*
X134767000Y-93853000D01*
X135960155Y-93853000D01*
X136031533Y-93717745D01*
X150341861Y-93717745D01*
X150415995Y-93963864D01*
X150953223Y-94156965D01*
X151523454Y-94129778D01*
X151924005Y-93963864D01*
X151998139Y-93717745D01*
X151170000Y-92889605D01*
X150341861Y-93717745D01*
X136031533Y-93717745D01*
X136081476Y-93623110D01*
X135911645Y-93213076D01*
X135521358Y-92784817D01*
X135391522Y-92723843D01*
X135710625Y-92510625D01*
X135734429Y-92475000D01*
X149108066Y-92475000D01*
X149210000Y-92495276D01*
X149311934Y-92475000D01*
X149311935Y-92475000D01*
X149613837Y-92414948D01*
X149794579Y-92294180D01*
X149723035Y-92493223D01*
X149750222Y-93063454D01*
X149916136Y-93464005D01*
X150162255Y-93538139D01*
X150990395Y-92710000D01*
X150976252Y-92695858D01*
X151155858Y-92516252D01*
X151170000Y-92530395D01*
X151998139Y-91702255D01*
X151924005Y-91456136D01*
X151386777Y-91263035D01*
X150823836Y-91289874D01*
X163359776Y-78753935D01*
X163446193Y-78696193D01*
X163674948Y-78353837D01*
X163735000Y-78051935D01*
X163755276Y-77950000D01*
X163735000Y-77848066D01*
X163735000Y-77760642D01*
X163797765Y-77748157D01*
X164007809Y-77607809D01*
X164148157Y-77397765D01*
X164197440Y-77150000D01*
X164197440Y-75450000D01*
X164148157Y-75202235D01*
X164007809Y-74992191D01*
X163797765Y-74851843D01*
X163550000Y-74802560D01*
X161850000Y-74802560D01*
X161602235Y-74851843D01*
X161392191Y-74992191D01*
X161251843Y-75202235D01*
X161202560Y-75450000D01*
X161202560Y-77150000D01*
X161251843Y-77397765D01*
X161392191Y-77607809D01*
X161503863Y-77682426D01*
X148781290Y-90405000D01*
X135734429Y-90405000D01*
X135710625Y-90369375D01*
X135412239Y-90170000D01*
X135710625Y-89970625D01*
X135734429Y-89935000D01*
X141639358Y-89935000D01*
X141651843Y-89997765D01*
X141792191Y-90207809D01*
X142002235Y-90348157D01*
X142250000Y-90397440D01*
X143950000Y-90397440D01*
X144197765Y-90348157D01*
X144407809Y-90207809D01*
X144548157Y-89997765D01*
X144597440Y-89750000D01*
X144597440Y-88050000D01*
X144548157Y-87802235D01*
X144407809Y-87592191D01*
X144197765Y-87451843D01*
X143950000Y-87402560D01*
X142250000Y-87402560D01*
X142002235Y-87451843D01*
X141792191Y-87592191D01*
X141651843Y-87802235D01*
X141639358Y-87865000D01*
X135734429Y-87865000D01*
X135710625Y-87829375D01*
X135219418Y-87501161D01*
X134786256Y-87415000D01*
X134493744Y-87415000D01*
X134060582Y-87501161D01*
X133569375Y-87829375D01*
X133557184Y-87847619D01*
X133548157Y-87802235D01*
X133407809Y-87592191D01*
X133296137Y-87517573D01*
X145638710Y-75175001D01*
X159818065Y-75175001D01*
X159919999Y-75195277D01*
X160021933Y-75175001D01*
X160021934Y-75175001D01*
X160323836Y-75114949D01*
X160666192Y-74886194D01*
X160706247Y-74826248D01*
X160766193Y-74786193D01*
X160994948Y-74443837D01*
X161055000Y-74141935D01*
X161055000Y-74141934D01*
X161075276Y-74040000D01*
X161055000Y-73938066D01*
X161055000Y-73850642D01*
X161117765Y-73838157D01*
X161327809Y-73697809D01*
X161468157Y-73487765D01*
X161517440Y-73240000D01*
X161517440Y-72446270D01*
X167365001Y-66598710D01*
X167365001Y-67968061D01*
X167344724Y-68070000D01*
X167425052Y-68473836D01*
X167475068Y-68548690D01*
X167653808Y-68816193D01*
X167740225Y-68873935D01*
X168720224Y-69853935D01*
X168720227Y-69853937D01*
X168745000Y-69878710D01*
X168745000Y-70135439D01*
X168963466Y-70662862D01*
X169367138Y-71066534D01*
X169894561Y-71285000D01*
X170465439Y-71285000D01*
X170992862Y-71066534D01*
X171396534Y-70662862D01*
X171615000Y-70135439D01*
X171615000Y-69564561D01*
X171396534Y-69037138D01*
X170992862Y-68633466D01*
X170465439Y-68415000D01*
X170208710Y-68415000D01*
X170183937Y-68390227D01*
X170183935Y-68390224D01*
X169435000Y-67641290D01*
X169435000Y-67113089D01*
X169451843Y-67197765D01*
X169592191Y-67407809D01*
X169802235Y-67548157D01*
X170050000Y-67597440D01*
X171750000Y-67597440D01*
X171997765Y-67548157D01*
X172207809Y-67407809D01*
X172348157Y-67197765D01*
X172360642Y-67135000D01*
X172371290Y-67135000D01*
X173765000Y-68528711D01*
X173765001Y-81671288D01*
X164125000Y-91311290D01*
X161053937Y-88240227D01*
X160996193Y-88153807D01*
X160653837Y-87925052D01*
X160351935Y-87865000D01*
X160351934Y-87865000D01*
X160250000Y-87844724D01*
X160148066Y-87865000D01*
X160060642Y-87865000D01*
X160048157Y-87802235D01*
X159907809Y-87592191D01*
X159697765Y-87451843D01*
X159450000Y-87402560D01*
X157750000Y-87402560D01*
X157502235Y-87451843D01*
X157292191Y-87592191D01*
X157151843Y-87802235D01*
X157102560Y-88050000D01*
X157102560Y-89750000D01*
X157151843Y-89997765D01*
X157292191Y-90207809D01*
X157502235Y-90348157D01*
X157750000Y-90397440D01*
X159450000Y-90397440D01*
X159697765Y-90348157D01*
X159907809Y-90207809D01*
X159982427Y-90096137D01*
X163045000Y-93158711D01*
X163045000Y-95236957D01*
X162810000Y-95588660D01*
X162547179Y-95195321D01*
X162085081Y-94886557D01*
X161540000Y-94778133D01*
X160994918Y-94886557D01*
X160532820Y-95195322D01*
X160270000Y-95588660D01*
X160007179Y-95195321D01*
X159545081Y-94886557D01*
X159000000Y-94778133D01*
X158609098Y-94855889D01*
X155803436Y-92050227D01*
X155745692Y-91963807D01*
X155403336Y-91735052D01*
X155101434Y-91675000D01*
X155101433Y-91675000D01*
X155069430Y-91668634D01*
X155068157Y-91662235D01*
X154927809Y-91452191D01*
X154717765Y-91311843D01*
X154470000Y-91262560D01*
X152870000Y-91262560D01*
X152622235Y-91311843D01*
X152412191Y-91452191D01*
X152271843Y-91662235D01*
X152225307Y-91896187D01*
X152177745Y-91881861D01*
X151349605Y-92710000D01*
X152177745Y-93538139D01*
X152225307Y-93523813D01*
X152271843Y-93757765D01*
X152412191Y-93967809D01*
X152622235Y-94108157D01*
X152870000Y-94157440D01*
X154470000Y-94157440D01*
X154717765Y-94108157D01*
X154847356Y-94021567D01*
X157603000Y-96777212D01*
X157603000Y-97356089D01*
X157684056Y-97763583D01*
X157992821Y-98225681D01*
X158454919Y-98534445D01*
X159000000Y-98642869D01*
X159545082Y-98534445D01*
X160007180Y-98225681D01*
X160270000Y-97832343D01*
X160532821Y-98225681D01*
X160994919Y-98534445D01*
X161540000Y-98642869D01*
X162085082Y-98534445D01*
X162547180Y-98225681D01*
X162810000Y-97832343D01*
X163072821Y-98225681D01*
X163534919Y-98534445D01*
X164080000Y-98642869D01*
X164625082Y-98534445D01*
X165087180Y-98225681D01*
X165361580Y-97815012D01*
X165377941Y-97870442D01*
X165721974Y-98296131D01*
X166202723Y-98557761D01*
X166276930Y-98572721D01*
X166493000Y-98450221D01*
X166493000Y-96837501D01*
X166747000Y-96837501D01*
X166747000Y-98450221D01*
X166963070Y-98572721D01*
X167037277Y-98557761D01*
X167518026Y-98296131D01*
X167862059Y-97870442D01*
X167890000Y-97775778D01*
X167917941Y-97870442D01*
X168261974Y-98296131D01*
X168742723Y-98557761D01*
X168816930Y-98572721D01*
X169033000Y-98450221D01*
X169033000Y-96837501D01*
X166747000Y-96837501D01*
X166493000Y-96837501D01*
X166473000Y-96837501D01*
X166473000Y-96583501D01*
X166493000Y-96583501D01*
X166493000Y-94970781D01*
X166747000Y-94970781D01*
X166747000Y-96583501D01*
X169033000Y-96583501D01*
X169033000Y-94970781D01*
X169287000Y-94970781D01*
X169287000Y-96583501D01*
X169307000Y-96583501D01*
X169307000Y-96837501D01*
X169287000Y-96837501D01*
X169287000Y-98450221D01*
X169503070Y-98572721D01*
X169577277Y-98557761D01*
X170058026Y-98296131D01*
X170402059Y-97870442D01*
X170418420Y-97815012D01*
X170692821Y-98225681D01*
X171154919Y-98534445D01*
X171700000Y-98642869D01*
X172245082Y-98534445D01*
X172707180Y-98225681D01*
X173015944Y-97763583D01*
X173097000Y-97356089D01*
X173097000Y-96064914D01*
X175383000Y-96064914D01*
X175383000Y-97356089D01*
X175464056Y-97763583D01*
X175772821Y-98225681D01*
X176234919Y-98534445D01*
X176780000Y-98642869D01*
X177325082Y-98534445D01*
X177787180Y-98225681D01*
X178050000Y-97832343D01*
X178312821Y-98225681D01*
X178774919Y-98534445D01*
X179320000Y-98642869D01*
X179865082Y-98534445D01*
X180327180Y-98225681D01*
X180590000Y-97832343D01*
X180852821Y-98225681D01*
X181314919Y-98534445D01*
X181860000Y-98642869D01*
X182405082Y-98534445D01*
X182867180Y-98225681D01*
X183130000Y-97832343D01*
X183392821Y-98225681D01*
X183854919Y-98534445D01*
X184400000Y-98642869D01*
X184945082Y-98534445D01*
X185407180Y-98225681D01*
X185670000Y-97832343D01*
X185932821Y-98225681D01*
X186394919Y-98534445D01*
X186940000Y-98642869D01*
X187485082Y-98534445D01*
X187947180Y-98225681D01*
X188210000Y-97832343D01*
X188472821Y-98225681D01*
X188934919Y-98534445D01*
X189480000Y-98642869D01*
X190025082Y-98534445D01*
X190487180Y-98225681D01*
X190795944Y-97763583D01*
X190877000Y-97356089D01*
X190877000Y-96064913D01*
X190795944Y-95657419D01*
X190487179Y-95195321D01*
X190025081Y-94886557D01*
X189480000Y-94778133D01*
X188934918Y-94886557D01*
X188472820Y-95195322D01*
X188210000Y-95588660D01*
X187947179Y-95195321D01*
X187485081Y-94886557D01*
X186940000Y-94778133D01*
X186394918Y-94886557D01*
X185932820Y-95195322D01*
X185670000Y-95588660D01*
X185407179Y-95195321D01*
X184945081Y-94886557D01*
X184400000Y-94778133D01*
X183854918Y-94886557D01*
X183392820Y-95195322D01*
X183130000Y-95588660D01*
X182867179Y-95195321D01*
X182405081Y-94886557D01*
X181860000Y-94778133D01*
X181314918Y-94886557D01*
X180852820Y-95195322D01*
X180590000Y-95588660D01*
X180327179Y-95195321D01*
X179865081Y-94886557D01*
X179320000Y-94778133D01*
X178774918Y-94886557D01*
X178312820Y-95195322D01*
X178050000Y-95588660D01*
X177787179Y-95195321D01*
X177325081Y-94886557D01*
X176780000Y-94778133D01*
X176234918Y-94886557D01*
X175772820Y-95195322D01*
X175464056Y-95657420D01*
X175383000Y-96064914D01*
X173097000Y-96064914D01*
X173097000Y-96064913D01*
X173015944Y-95657419D01*
X172707179Y-95195321D01*
X172245081Y-94886557D01*
X171700000Y-94778133D01*
X171154918Y-94886557D01*
X170692820Y-95195322D01*
X170418420Y-95605991D01*
X170402059Y-95550560D01*
X170058026Y-95124871D01*
X169577277Y-94863241D01*
X169503070Y-94848281D01*
X169287000Y-94970781D01*
X169033000Y-94970781D01*
X168816930Y-94848281D01*
X168742723Y-94863241D01*
X168261974Y-95124871D01*
X167917941Y-95550560D01*
X167890000Y-95645224D01*
X167862059Y-95550560D01*
X167518026Y-95124871D01*
X167037277Y-94863241D01*
X166963070Y-94848281D01*
X166747000Y-94970781D01*
X166493000Y-94970781D01*
X166276930Y-94848281D01*
X166202723Y-94863241D01*
X165721974Y-95124871D01*
X165377941Y-95550560D01*
X165361580Y-95605990D01*
X165115000Y-95236958D01*
X165115000Y-93248710D01*
X175459776Y-82903935D01*
X175546193Y-82846193D01*
X175774948Y-82503837D01*
X175835000Y-82201935D01*
X175835000Y-82201930D01*
X175855275Y-82100001D01*
X175835000Y-81998071D01*
X175835000Y-69850000D01*
X178876887Y-69850000D01*
X178988260Y-70409909D01*
X179305423Y-70884577D01*
X179780091Y-71201740D01*
X180198667Y-71285000D01*
X180481333Y-71285000D01*
X180899909Y-71201740D01*
X181373944Y-70885000D01*
X183014183Y-70885000D01*
X183280493Y-71151310D01*
X183844670Y-71385000D01*
X184455330Y-71385000D01*
X185019507Y-71151310D01*
X185195861Y-70974956D01*
X185251673Y-71109699D01*
X185430302Y-71288327D01*
X185663691Y-71385000D01*
X186404250Y-71385000D01*
X186563000Y-71226250D01*
X186563000Y-69977000D01*
X186817000Y-69977000D01*
X186817000Y-71226250D01*
X186975750Y-71385000D01*
X187716309Y-71385000D01*
X187949698Y-71288327D01*
X188128327Y-71109699D01*
X188225000Y-70876310D01*
X188225000Y-70135750D01*
X188066250Y-69977000D01*
X186817000Y-69977000D01*
X186563000Y-69977000D01*
X186543000Y-69977000D01*
X186543000Y-69723000D01*
X186563000Y-69723000D01*
X186563000Y-68473750D01*
X186817000Y-68473750D01*
X186817000Y-69723000D01*
X188066250Y-69723000D01*
X188225000Y-69564250D01*
X188225000Y-68823690D01*
X188128327Y-68590301D01*
X187949698Y-68411673D01*
X187716309Y-68315000D01*
X186975750Y-68315000D01*
X186817000Y-68473750D01*
X186563000Y-68473750D01*
X186404250Y-68315000D01*
X185663691Y-68315000D01*
X185430302Y-68411673D01*
X185251673Y-68590301D01*
X185195861Y-68725044D01*
X185019507Y-68548690D01*
X184455330Y-68315000D01*
X183844670Y-68315000D01*
X183280493Y-68548690D01*
X183014183Y-68815000D01*
X181373944Y-68815000D01*
X180899909Y-68498260D01*
X180481333Y-68415000D01*
X180198667Y-68415000D01*
X179780091Y-68498260D01*
X179305423Y-68815423D01*
X178988260Y-69290091D01*
X178876887Y-69850000D01*
X175835000Y-69850000D01*
X175835000Y-68201934D01*
X175855276Y-68099999D01*
X175774948Y-67696163D01*
X175734080Y-67635000D01*
X175546193Y-67353807D01*
X175459776Y-67296065D01*
X173603937Y-65440227D01*
X173546193Y-65353807D01*
X173203837Y-65125052D01*
X172901935Y-65065000D01*
X172901934Y-65065000D01*
X172800000Y-65044724D01*
X172698066Y-65065000D01*
X172360642Y-65065000D01*
X172348157Y-65002235D01*
X172207809Y-64792191D01*
X171997765Y-64651843D01*
X171750000Y-64602560D01*
X170050000Y-64602560D01*
X169802235Y-64651843D01*
X169592191Y-64792191D01*
X169451843Y-65002235D01*
X169435000Y-65086911D01*
X169435000Y-63474643D01*
X169894561Y-63665000D01*
X170465439Y-63665000D01*
X170992862Y-63446534D01*
X171396534Y-63042862D01*
X171615000Y-62515439D01*
X171615000Y-62230000D01*
X178876887Y-62230000D01*
X178988260Y-62789909D01*
X179305423Y-63264577D01*
X179780091Y-63581740D01*
X180198667Y-63665000D01*
X180481333Y-63665000D01*
X180899909Y-63581740D01*
X181373944Y-63265000D01*
X183014183Y-63265000D01*
X183280493Y-63531310D01*
X183844670Y-63765000D01*
X184455330Y-63765000D01*
X185019507Y-63531310D01*
X185195861Y-63354956D01*
X185251673Y-63489699D01*
X185430302Y-63668327D01*
X185663691Y-63765000D01*
X186404250Y-63765000D01*
X186563000Y-63606250D01*
X186563000Y-62357000D01*
X186817000Y-62357000D01*
X186817000Y-63606250D01*
X186975750Y-63765000D01*
X187716309Y-63765000D01*
X187949698Y-63668327D01*
X188128327Y-63489699D01*
X188225000Y-63256310D01*
X188225000Y-62515750D01*
X188066250Y-62357000D01*
X186817000Y-62357000D01*
X186563000Y-62357000D01*
X186543000Y-62357000D01*
X186543000Y-62103000D01*
X186563000Y-62103000D01*
X186563000Y-60853750D01*
X186817000Y-60853750D01*
X186817000Y-62103000D01*
X188066250Y-62103000D01*
X188225000Y-61944250D01*
X188225000Y-61203690D01*
X188128327Y-60970301D01*
X187949698Y-60791673D01*
X187716309Y-60695000D01*
X186975750Y-60695000D01*
X186817000Y-60853750D01*
X186563000Y-60853750D01*
X186404250Y-60695000D01*
X185663691Y-60695000D01*
X185430302Y-60791673D01*
X185251673Y-60970301D01*
X185195861Y-61105044D01*
X185019507Y-60928690D01*
X184455330Y-60695000D01*
X183844670Y-60695000D01*
X183280493Y-60928690D01*
X183014183Y-61195000D01*
X181373944Y-61195000D01*
X180899909Y-60878260D01*
X180481333Y-60795000D01*
X180198667Y-60795000D01*
X179780091Y-60878260D01*
X179305423Y-61195423D01*
X178988260Y-61670091D01*
X178876887Y-62230000D01*
X171615000Y-62230000D01*
X171615000Y-61944561D01*
X171396534Y-61417138D01*
X171215000Y-61235604D01*
X171215000Y-58512464D01*
X171235276Y-58410529D01*
X171154948Y-58006693D01*
X171114523Y-57946193D01*
X170926193Y-57664337D01*
X170839776Y-57606595D01*
X168671000Y-55437820D01*
X168671000Y-54324561D01*
X168745000Y-54324561D01*
X168745000Y-54895439D01*
X168963466Y-55422862D01*
X169367138Y-55826534D01*
X169894561Y-56045000D01*
X170465439Y-56045000D01*
X170992862Y-55826534D01*
X171396534Y-55422862D01*
X171615000Y-54895439D01*
X171615000Y-54638710D01*
X171643710Y-54610000D01*
X178876887Y-54610000D01*
X178988260Y-55169909D01*
X179305423Y-55644577D01*
X179780091Y-55961740D01*
X180198667Y-56045000D01*
X180481333Y-56045000D01*
X180899909Y-55961740D01*
X181373944Y-55645000D01*
X183014183Y-55645000D01*
X183280493Y-55911310D01*
X183844670Y-56145000D01*
X184455330Y-56145000D01*
X185019507Y-55911310D01*
X185195861Y-55734956D01*
X185251673Y-55869699D01*
X185430302Y-56048327D01*
X185663691Y-56145000D01*
X186404250Y-56145000D01*
X186563000Y-55986250D01*
X186563000Y-54737000D01*
X186817000Y-54737000D01*
X186817000Y-55986250D01*
X186975750Y-56145000D01*
X187716309Y-56145000D01*
X187949698Y-56048327D01*
X188128327Y-55869699D01*
X188225000Y-55636310D01*
X188225000Y-54895750D01*
X188066250Y-54737000D01*
X186817000Y-54737000D01*
X186563000Y-54737000D01*
X186543000Y-54737000D01*
X186543000Y-54483000D01*
X186563000Y-54483000D01*
X186563000Y-53233750D01*
X186817000Y-53233750D01*
X186817000Y-54483000D01*
X188066250Y-54483000D01*
X188225000Y-54324250D01*
X188225000Y-53583690D01*
X188128327Y-53350301D01*
X187949698Y-53171673D01*
X187716309Y-53075000D01*
X186975750Y-53075000D01*
X186817000Y-53233750D01*
X186563000Y-53233750D01*
X186404250Y-53075000D01*
X185663691Y-53075000D01*
X185430302Y-53171673D01*
X185251673Y-53350301D01*
X185195861Y-53485044D01*
X185019507Y-53308690D01*
X184455330Y-53075000D01*
X183844670Y-53075000D01*
X183280493Y-53308690D01*
X183014183Y-53575000D01*
X181373944Y-53575000D01*
X180899909Y-53258260D01*
X180481333Y-53175000D01*
X180198667Y-53175000D01*
X179780091Y-53258260D01*
X179305423Y-53575423D01*
X178988260Y-54050091D01*
X178876887Y-54610000D01*
X171643710Y-54610000D01*
X172359776Y-53893935D01*
X172446193Y-53836193D01*
X172674948Y-53493837D01*
X172735000Y-53191935D01*
X172755276Y-53090000D01*
X172735000Y-52988066D01*
X172735000Y-49924045D01*
X172970000Y-49572343D01*
X173232821Y-49965681D01*
X173694919Y-50274445D01*
X174240000Y-50382869D01*
X174785082Y-50274445D01*
X175247180Y-49965681D01*
X175510000Y-49572343D01*
X175772821Y-49965681D01*
X176234919Y-50274445D01*
X176780000Y-50382869D01*
X177325082Y-50274445D01*
X177787180Y-49965681D01*
X178050000Y-49572343D01*
X178312821Y-49965681D01*
X178774919Y-50274445D01*
X179320000Y-50382869D01*
X179865082Y-50274445D01*
X180327180Y-49965681D01*
X180590000Y-49572343D01*
X180852821Y-49965681D01*
X181314919Y-50274445D01*
X181860000Y-50382869D01*
X182405082Y-50274445D01*
X182867180Y-49965681D01*
X183130000Y-49572343D01*
X183392821Y-49965681D01*
X183854919Y-50274445D01*
X184400000Y-50382869D01*
X184945082Y-50274445D01*
X185407180Y-49965681D01*
X185670000Y-49572343D01*
X185932821Y-49965681D01*
X186394919Y-50274445D01*
X186940000Y-50382869D01*
X187485082Y-50274445D01*
X187947180Y-49965681D01*
X188210000Y-49572343D01*
X188472821Y-49965681D01*
X188934919Y-50274445D01*
X189480000Y-50382869D01*
X190025082Y-50274445D01*
X190487180Y-49965681D01*
X190795944Y-49503583D01*
X190877000Y-49096089D01*
X190877000Y-47804913D01*
X190795944Y-47397419D01*
X190487179Y-46935321D01*
X190025081Y-46626557D01*
X189480000Y-46518133D01*
X188934918Y-46626557D01*
X188472820Y-46935322D01*
X188210000Y-47328660D01*
X187947179Y-46935321D01*
X187485081Y-46626557D01*
X186940000Y-46518133D01*
X186394918Y-46626557D01*
X185932820Y-46935322D01*
X185670000Y-47328660D01*
X185407179Y-46935321D01*
X184945081Y-46626557D01*
X184400000Y-46518133D01*
X183854918Y-46626557D01*
X183392820Y-46935322D01*
X183130000Y-47328660D01*
X182867179Y-46935321D01*
X182405081Y-46626557D01*
X181860000Y-46518133D01*
X181314918Y-46626557D01*
X180852820Y-46935322D01*
X180590000Y-47328660D01*
X180327179Y-46935321D01*
X179865081Y-46626557D01*
X179320000Y-46518133D01*
X178774918Y-46626557D01*
X178312820Y-46935322D01*
X178050000Y-47328660D01*
X177787179Y-46935321D01*
X177325081Y-46626557D01*
X176780000Y-46518133D01*
X176234918Y-46626557D01*
X175772820Y-46935322D01*
X175510000Y-47328660D01*
X175247179Y-46935321D01*
X174785081Y-46626557D01*
X174240000Y-46518133D01*
X173694918Y-46626557D01*
X173232820Y-46935322D01*
X172970000Y-47328660D01*
X172707179Y-46935321D01*
X172245081Y-46626557D01*
X171700000Y-46518133D01*
X171154918Y-46626557D01*
X170692820Y-46935322D01*
X170384056Y-47397420D01*
X170303000Y-47804914D01*
X170303000Y-49096089D01*
X170384056Y-49503583D01*
X170665000Y-49924045D01*
X170665001Y-52661288D01*
X170151290Y-53175000D01*
X169894561Y-53175000D01*
X169367138Y-53393466D01*
X168963466Y-53797138D01*
X168745000Y-54324561D01*
X168671000Y-54324561D01*
X168671000Y-49924045D01*
X168951944Y-49503583D01*
X169033000Y-49096089D01*
X169033000Y-47804913D01*
X168951944Y-47397419D01*
X168643179Y-46935321D01*
X168181081Y-46626557D01*
X167636000Y-46518133D01*
X167090918Y-46626557D01*
X166628820Y-46935322D01*
X166366000Y-47328660D01*
X166103179Y-46935321D01*
X165641081Y-46626557D01*
X165096000Y-46518133D01*
X164550918Y-46626557D01*
X164088820Y-46935322D01*
X163826000Y-47328660D01*
X163563179Y-46935321D01*
X163101081Y-46626557D01*
X162556000Y-46518133D01*
X162010918Y-46626557D01*
X161548820Y-46935322D01*
X161286000Y-47328660D01*
X161023179Y-46935321D01*
X160561081Y-46626557D01*
X160016000Y-46518133D01*
X159470918Y-46626557D01*
X159008820Y-46935322D01*
X158746000Y-47328660D01*
X158483179Y-46935321D01*
X158021081Y-46626557D01*
X157476000Y-46518133D01*
X156930918Y-46626557D01*
X156468820Y-46935322D01*
X156206000Y-47328660D01*
X155943179Y-46935321D01*
X155481081Y-46626557D01*
X154936000Y-46518133D01*
X154390918Y-46626557D01*
X153928820Y-46935322D01*
X153654420Y-47345991D01*
X153638059Y-47290560D01*
X153294026Y-46864871D01*
X152813277Y-46603241D01*
X152739070Y-46588281D01*
X152523000Y-46710781D01*
X152523000Y-48323501D01*
X152543000Y-48323501D01*
X152543000Y-48577501D01*
X152523000Y-48577501D01*
X152523000Y-50190221D01*
X152739070Y-50312721D01*
X152813277Y-50297761D01*
X153294026Y-50036131D01*
X153638059Y-49610442D01*
X153654420Y-49555012D01*
X153928821Y-49965681D01*
X154390919Y-50274445D01*
X154936000Y-50382869D01*
X155046288Y-50360931D01*
X155067797Y-50393121D01*
X155132755Y-50436525D01*
X155140990Y-50477923D01*
X155140990Y-50477924D01*
X155201042Y-50779826D01*
X155429798Y-51122182D01*
X155516215Y-51179924D01*
X157114977Y-52778687D01*
X157114978Y-53298062D01*
X157114977Y-53298066D01*
X157114977Y-54071312D01*
X156440225Y-54746065D01*
X156353808Y-54803807D01*
X156296066Y-54890224D01*
X156125052Y-55146164D01*
X156044724Y-55550000D01*
X156065001Y-55651939D01*
X156065001Y-55739358D01*
X156002235Y-55751843D01*
X155792191Y-55892191D01*
X155651843Y-56102235D01*
X155635000Y-56186911D01*
X155635000Y-55277239D01*
X155986086Y-54926153D01*
X156235000Y-54325222D01*
X156235000Y-53674778D01*
X155986086Y-53073847D01*
X155526153Y-52613914D01*
X154925222Y-52365000D01*
X154274778Y-52365000D01*
X153673847Y-52613914D01*
X153213914Y-53073847D01*
X152965000Y-53674778D01*
X152965000Y-54325222D01*
X153213914Y-54926153D01*
X153565000Y-55277239D01*
X153565001Y-59222760D01*
X153213914Y-59573847D01*
X152965000Y-60174778D01*
X152965000Y-60671289D01*
X151740225Y-61896065D01*
X151653808Y-61953807D01*
X151621232Y-62002560D01*
X151550000Y-62002560D01*
X151302235Y-62051843D01*
X151092191Y-62192191D01*
X150951843Y-62402235D01*
X150902560Y-62650000D01*
X150902560Y-64350000D01*
X150951843Y-64597765D01*
X151092191Y-64807809D01*
X151302235Y-64948157D01*
X151347619Y-64957184D01*
X151329375Y-64969375D01*
X151305571Y-65005000D01*
X150023944Y-65005000D01*
X149672242Y-64770000D01*
X150024577Y-64534577D01*
X150341740Y-64059909D01*
X150453113Y-63500000D01*
X150341740Y-62940091D01*
X150024577Y-62465423D01*
X149769035Y-62294675D01*
X149928710Y-62135000D01*
X150425222Y-62135000D01*
X151026153Y-61886086D01*
X151486086Y-61426153D01*
X151735000Y-60825222D01*
X151735000Y-60174778D01*
X151486086Y-59573847D01*
X151135000Y-59222761D01*
X151135000Y-55277239D01*
X151486086Y-54926153D01*
X151735000Y-54325222D01*
X151735000Y-53674778D01*
X151486086Y-53073847D01*
X151026153Y-52613914D01*
X150425222Y-52365000D01*
X149774778Y-52365000D01*
X149173847Y-52613914D01*
X148713914Y-53073847D01*
X148465000Y-53674778D01*
X148465000Y-54325222D01*
X148713914Y-54926153D01*
X149065000Y-55277239D01*
X149065000Y-55745326D01*
X148850000Y-55702560D01*
X147150000Y-55702560D01*
X146902235Y-55751843D01*
X146692191Y-55892191D01*
X146551843Y-56102235D01*
X146502560Y-56350000D01*
X146502560Y-58050000D01*
X146551843Y-58297765D01*
X146692191Y-58507809D01*
X146803863Y-58582426D01*
X145740227Y-59646063D01*
X145653807Y-59703807D01*
X145480760Y-59962791D01*
X145425052Y-60046164D01*
X145344724Y-60450000D01*
X145365000Y-60551934D01*
X145365001Y-70682797D01*
X129690226Y-86357573D01*
X129603806Y-86415317D01*
X129375052Y-86757673D01*
X129375051Y-86757674D01*
X129294723Y-87161510D01*
X129314999Y-87263445D01*
X129315000Y-90790141D01*
X129294723Y-90892080D01*
X129375051Y-91295916D01*
X129375052Y-91295917D01*
X129603807Y-91638273D01*
X129690224Y-91696015D01*
X130093982Y-92099773D01*
X130151726Y-92186193D01*
X130494082Y-92414948D01*
X130897919Y-92495276D01*
X130999853Y-92475000D01*
X131005571Y-92475000D01*
X131029375Y-92510625D01*
X131327761Y-92710000D01*
X131029375Y-92909375D01*
X131005571Y-92945000D01*
X128108711Y-92945000D01*
X127635010Y-92471300D01*
X127635010Y-71476890D01*
X135718524Y-71476890D01*
X135888355Y-71886924D01*
X136278642Y-72315183D01*
X136803108Y-72561486D01*
X137033000Y-72440819D01*
X137033000Y-71247000D01*
X137287000Y-71247000D01*
X137287000Y-72440819D01*
X137516892Y-72561486D01*
X138041358Y-72315183D01*
X138431645Y-71886924D01*
X138601476Y-71476890D01*
X138597333Y-71469039D01*
X139178096Y-71469039D01*
X139195633Y-71551819D01*
X139465500Y-72044896D01*
X139903517Y-72397166D01*
X140443000Y-72555000D01*
X140843000Y-72555000D01*
X140843000Y-71247000D01*
X141097000Y-71247000D01*
X141097000Y-72555000D01*
X141497000Y-72555000D01*
X142036483Y-72397166D01*
X142474500Y-72044896D01*
X142744367Y-71551819D01*
X142761904Y-71469039D01*
X142639915Y-71247000D01*
X141097000Y-71247000D01*
X140843000Y-71247000D01*
X139300085Y-71247000D01*
X139178096Y-71469039D01*
X138597333Y-71469039D01*
X138480155Y-71247000D01*
X137287000Y-71247000D01*
X137033000Y-71247000D01*
X135839845Y-71247000D01*
X135718524Y-71476890D01*
X127635010Y-71476890D01*
X127635010Y-66868700D01*
X129506271Y-64997440D01*
X130390000Y-64997440D01*
X130637765Y-64948157D01*
X130847809Y-64807809D01*
X130988157Y-64597765D01*
X130997184Y-64552381D01*
X131009375Y-64570625D01*
X131500582Y-64898839D01*
X131933744Y-64985000D01*
X132226256Y-64985000D01*
X132659418Y-64898839D01*
X133150625Y-64570625D01*
X133174429Y-64535000D01*
X135699358Y-64535000D01*
X135711843Y-64597765D01*
X135852191Y-64807809D01*
X136062235Y-64948157D01*
X136107619Y-64957184D01*
X136089375Y-64969375D01*
X135761161Y-65460582D01*
X135645908Y-66040000D01*
X135761161Y-66619418D01*
X136089375Y-67110625D01*
X136387761Y-67310000D01*
X136089375Y-67509375D01*
X135761161Y-68000582D01*
X135645908Y-68580000D01*
X135761161Y-69159418D01*
X136089375Y-69650625D01*
X136408478Y-69863843D01*
X136278642Y-69924817D01*
X135888355Y-70353076D01*
X135718524Y-70763110D01*
X135839845Y-70993000D01*
X137033000Y-70993000D01*
X137033000Y-70973000D01*
X137287000Y-70973000D01*
X137287000Y-70993000D01*
X138480155Y-70993000D01*
X138601476Y-70763110D01*
X138431645Y-70353076D01*
X138041358Y-69924817D01*
X137911522Y-69863843D01*
X138230625Y-69650625D01*
X138254429Y-69615000D01*
X139536056Y-69615000D01*
X139891499Y-69852499D01*
X139465500Y-70195104D01*
X139195633Y-70688181D01*
X139178096Y-70770961D01*
X139300085Y-70993000D01*
X140843000Y-70993000D01*
X140843000Y-70973000D01*
X141097000Y-70973000D01*
X141097000Y-70993000D01*
X142639915Y-70993000D01*
X142761904Y-70770961D01*
X142744367Y-70688181D01*
X142474500Y-70195104D01*
X142048501Y-69852499D01*
X142404577Y-69614577D01*
X142721740Y-69139909D01*
X142833113Y-68580000D01*
X142721740Y-68020091D01*
X142404577Y-67545423D01*
X142052242Y-67310000D01*
X142404577Y-67074577D01*
X142721740Y-66599909D01*
X142833113Y-66040000D01*
X142721740Y-65480091D01*
X142404577Y-65005423D01*
X142283894Y-64924785D01*
X142417765Y-64898157D01*
X142627809Y-64757809D01*
X142768157Y-64547765D01*
X142817440Y-64300000D01*
X142817440Y-62700000D01*
X142768157Y-62452235D01*
X142627809Y-62242191D01*
X142417765Y-62101843D01*
X142170000Y-62052560D01*
X139770000Y-62052560D01*
X139522235Y-62101843D01*
X139312191Y-62242191D01*
X139171843Y-62452235D01*
X139169304Y-62465000D01*
X138620642Y-62465000D01*
X138608157Y-62402235D01*
X138467809Y-62192191D01*
X138257765Y-62051843D01*
X138010000Y-62002560D01*
X136310000Y-62002560D01*
X136062235Y-62051843D01*
X135852191Y-62192191D01*
X135711843Y-62402235D01*
X135699358Y-62465000D01*
X133174429Y-62465000D01*
X133150625Y-62429375D01*
X132659418Y-62101161D01*
X132226256Y-62015000D01*
X131933744Y-62015000D01*
X131500582Y-62101161D01*
X131009375Y-62429375D01*
X130997184Y-62447619D01*
X130988157Y-62402235D01*
X130847809Y-62192191D01*
X130736137Y-62117573D01*
X131518711Y-61335000D01*
X135048066Y-61335000D01*
X135150000Y-61355276D01*
X135251934Y-61335000D01*
X135251935Y-61335000D01*
X135553837Y-61274948D01*
X135896193Y-61046193D01*
X135953937Y-60959773D01*
X143717574Y-53196137D01*
X143792191Y-53307809D01*
X144002235Y-53448157D01*
X144250000Y-53497440D01*
X145950000Y-53497440D01*
X146197765Y-53448157D01*
X146407809Y-53307809D01*
X146548157Y-53097765D01*
X146597440Y-52850000D01*
X146597440Y-51150000D01*
X146548157Y-50902235D01*
X146407809Y-50692191D01*
X146197765Y-50551843D01*
X145950000Y-50502560D01*
X144250000Y-50502560D01*
X144002235Y-50551843D01*
X143792191Y-50692191D01*
X143651843Y-50902235D01*
X143639358Y-50965000D01*
X143551934Y-50965000D01*
X143450000Y-50944724D01*
X143348065Y-50965000D01*
X143046163Y-51025052D01*
X142703807Y-51253807D01*
X142646065Y-51340224D01*
X134721290Y-59265000D01*
X131191934Y-59265000D01*
X131089999Y-59244724D01*
X130988065Y-59265000D01*
X130686163Y-59325052D01*
X130343807Y-59553807D01*
X130286065Y-59640224D01*
X128880225Y-61046065D01*
X128793808Y-61103807D01*
X128736066Y-61190224D01*
X128565052Y-61446164D01*
X128484724Y-61850000D01*
X128505001Y-61951939D01*
X128505001Y-62039358D01*
X128442235Y-62051843D01*
X128232191Y-62192191D01*
X128091843Y-62402235D01*
X128042560Y-62650000D01*
X128042560Y-63533729D01*
X126335000Y-65241290D01*
X126335000Y-46335000D01*
X139653595Y-46335000D01*
X139012859Y-46975736D01*
G04 #@! TD*
M02*
