G04 #@! TF.GenerationSoftware,KiCad,Pcbnew,(5.0.0)*
G04 #@! TF.CreationDate,2018-10-02T09:48:17+02:00*
G04 #@! TF.ProjectId,ATtiny85_Arduino_programmer,415474696E7938355F41726475696E6F,rev?*
G04 #@! TF.SameCoordinates,Original*
G04 #@! TF.FileFunction,Soldermask,Top*
G04 #@! TF.FilePolarity,Negative*
%FSLAX46Y46*%
G04 Gerber Fmt 4.6, Leading zero omitted, Abs format (unit mm)*
G04 Created by KiCad (PCBNEW (5.0.0)) date 10/02/18 09:48:17*
%MOMM*%
%LPD*%
G01*
G04 APERTURE LIST*
%ADD10O,1.924000X2.940000*%
%ADD11C,4.337000*%
%ADD12C,2.000000*%
%ADD13R,2.000000X2.000000*%
%ADD14C,2.200000*%
%ADD15R,2.200000X2.200000*%
%ADD16O,2.100000X2.100000*%
%ADD17R,2.100000X2.100000*%
%ADD18O,2.000000X2.000000*%
%ADD19C,2.400000*%
%ADD20O,2.800000X2.000000*%
%ADD21R,2.800000X2.000000*%
G04 APERTURE END LIST*
D10*
G04 #@! TO.C,SHIELD1*
X189480000Y-96710501D03*
X186940000Y-96710501D03*
X184400000Y-96710501D03*
X176780000Y-96710501D03*
X179320000Y-96710501D03*
X181860000Y-96710501D03*
X171700000Y-96710501D03*
X169160000Y-96710501D03*
X166620000Y-96710501D03*
X161540000Y-96710501D03*
X159000000Y-96710501D03*
X189480000Y-48450501D03*
X186940000Y-48450501D03*
X184400000Y-48450501D03*
X181860000Y-48450501D03*
X179320000Y-48450501D03*
X176780000Y-48450501D03*
X174240000Y-48450501D03*
X171700000Y-48450501D03*
X167636000Y-48450501D03*
X165096000Y-48450501D03*
X162556000Y-48450501D03*
X160016000Y-48450501D03*
X157476000Y-48450501D03*
X154936000Y-48450501D03*
X152396000Y-48450501D03*
X149856000Y-48450501D03*
X164080000Y-96710501D03*
D11*
X192020000Y-91630501D03*
X192020000Y-63690501D03*
X141220000Y-48450501D03*
X139950000Y-96710501D03*
G04 #@! TD*
D12*
G04 #@! TO.C,C1*
X151170000Y-92710000D03*
D13*
X153670000Y-92710000D03*
G04 #@! TD*
D14*
G04 #@! TO.C,D1*
X184150000Y-54610000D03*
D15*
X186690000Y-54610000D03*
G04 #@! TD*
G04 #@! TO.C,D2*
X186690000Y-62230000D03*
D14*
X184150000Y-62230000D03*
G04 #@! TD*
G04 #@! TO.C,D3*
X184150000Y-69850000D03*
D15*
X186690000Y-69850000D03*
G04 #@! TD*
D16*
G04 #@! TO.C,J1*
X134640000Y-93980000D03*
X132100000Y-93980000D03*
X134640000Y-91440000D03*
X132100000Y-91440000D03*
X134640000Y-88900000D03*
D17*
X132100000Y-88900000D03*
G04 #@! TD*
G04 #@! TO.C,J2*
X137160000Y-63500000D03*
D16*
X137160000Y-66040000D03*
X137160000Y-68580000D03*
X137160000Y-71120000D03*
G04 #@! TD*
G04 #@! TO.C,J3*
X152400000Y-71120000D03*
X152400000Y-68580000D03*
X152400000Y-66040000D03*
D17*
X152400000Y-63500000D03*
G04 #@! TD*
D16*
G04 #@! TO.C,JP1*
X132080000Y-63500000D03*
D17*
X129540000Y-63500000D03*
G04 #@! TD*
G04 #@! TO.C,JP2*
X160020000Y-72390000D03*
D16*
X157480000Y-72390000D03*
G04 #@! TD*
G04 #@! TO.C,JP3*
X157480000Y-68580000D03*
D17*
X160020000Y-68580000D03*
G04 #@! TD*
G04 #@! TO.C,JP4*
X160020000Y-64770000D03*
D16*
X157480000Y-64770000D03*
G04 #@! TD*
D18*
G04 #@! TO.C,R1*
X180340000Y-54610000D03*
D12*
X170180000Y-54610000D03*
G04 #@! TD*
G04 #@! TO.C,R2*
X170180000Y-62230000D03*
D18*
X180340000Y-62230000D03*
G04 #@! TD*
G04 #@! TO.C,R3*
X180340000Y-69850000D03*
D12*
X170180000Y-69850000D03*
G04 #@! TD*
D19*
G04 #@! TO.C,SW1*
X154600000Y-60500000D03*
X150100000Y-60500000D03*
X154600000Y-54000000D03*
X150100000Y-54000000D03*
G04 #@! TD*
D20*
G04 #@! TO.C,U1*
X148590000Y-63500000D03*
X140970000Y-71120000D03*
X148590000Y-66040000D03*
X140970000Y-68580000D03*
X148590000Y-68580000D03*
X140970000Y-66040000D03*
X148590000Y-71120000D03*
D21*
X140970000Y-63500000D03*
G04 #@! TD*
D17*
G04 #@! TO.C,REF\002A\002A*
X162500000Y-52000000D03*
G04 #@! TD*
G04 #@! TO.C,REF\002A\002A*
X145100000Y-52000000D03*
G04 #@! TD*
G04 #@! TO.C,REF\002A\002A*
X143100000Y-88900000D03*
G04 #@! TD*
G04 #@! TO.C,REF\002A\002A*
X158600000Y-88900000D03*
G04 #@! TD*
G04 #@! TO.C,REF\002A\002A*
X162700000Y-76300000D03*
G04 #@! TD*
G04 #@! TO.C,REF\002A\002A*
X162400000Y-61500000D03*
G04 #@! TD*
G04 #@! TO.C,REF\002A\002A*
X170900000Y-66100000D03*
G04 #@! TD*
G04 #@! TO.C,REF\002A\002A*
X162700000Y-66600000D03*
G04 #@! TD*
G04 #@! TO.C,REF\002A\002A*
X157100000Y-57200000D03*
G04 #@! TD*
G04 #@! TO.C,REF\002A\002A*
X148000000Y-57200000D03*
G04 #@! TD*
M02*
