%FSLAX45Y45*%
G04 Gerber Fmt 4.5, Leading zero omitted, Abs format (unit mm)*
G04 Created by KiCad (PCBNEW (5.0.0)) date 10/05/18 03:01:42*
%MOMM*%
%LPD*%
G01*
G04 APERTURE LIST*
%ADD10C,0.200000*%
%ADD11C,0.300000*%
G04 APERTURE END LIST*
D10*
X19478640Y-9426760D02*
X19478640Y-6099360D01*
X19082400Y-4560120D02*
X13723000Y-4560120D01*
X19224640Y-4702360D02*
X19082400Y-4560120D01*
X19224640Y-5845360D02*
X19224640Y-4702360D01*
X19478640Y-6099360D02*
X19224640Y-5845360D01*
X19224640Y-9680760D02*
X19478640Y-9426760D01*
X19224640Y-9950000D02*
X19224640Y-9680760D01*
X13723000Y-9950000D02*
X19224640Y-9950000D01*
X13723000Y-4560120D02*
X13723000Y-9950000D01*
D10*
D11*
X13999428Y-10425714D02*
X13999428Y-10125714D01*
X14070857Y-10125714D01*
X14113714Y-10140000D01*
X14142286Y-10168572D01*
X14156571Y-10197143D01*
X14170857Y-10254286D01*
X14170857Y-10297143D01*
X14156571Y-10354286D01*
X14142286Y-10382857D01*
X14113714Y-10411429D01*
X14070857Y-10425714D01*
X13999428Y-10425714D01*
X14299428Y-10425714D02*
X14299428Y-10225714D01*
X14299428Y-10282857D02*
X14313714Y-10254286D01*
X14328000Y-10240000D01*
X14356571Y-10225714D01*
X14385143Y-10225714D01*
X14485143Y-10425714D02*
X14485143Y-10225714D01*
X14485143Y-10125714D02*
X14470857Y-10140000D01*
X14485143Y-10154286D01*
X14499428Y-10140000D01*
X14485143Y-10125714D01*
X14485143Y-10154286D01*
X14670857Y-10425714D02*
X14642286Y-10411429D01*
X14628000Y-10382857D01*
X14628000Y-10125714D01*
X14828000Y-10425714D02*
X14799428Y-10411429D01*
X14785143Y-10382857D01*
X14785143Y-10125714D01*
X15170857Y-10425714D02*
X15170857Y-10125714D01*
X15270857Y-10340000D01*
X15370857Y-10125714D01*
X15370857Y-10425714D01*
X15642286Y-10425714D02*
X15642286Y-10268572D01*
X15628000Y-10240000D01*
X15599428Y-10225714D01*
X15542286Y-10225714D01*
X15513714Y-10240000D01*
X15642286Y-10411429D02*
X15613714Y-10425714D01*
X15542286Y-10425714D01*
X15513714Y-10411429D01*
X15499428Y-10382857D01*
X15499428Y-10354286D01*
X15513714Y-10325714D01*
X15542286Y-10311429D01*
X15613714Y-10311429D01*
X15642286Y-10297143D01*
X15785143Y-10225714D02*
X15785143Y-10525714D01*
X15785143Y-10240000D02*
X15813714Y-10225714D01*
X15870857Y-10225714D01*
X15899428Y-10240000D01*
X15913714Y-10254286D01*
X15928000Y-10282857D01*
X15928000Y-10368572D01*
X15913714Y-10397143D01*
X15899428Y-10411429D01*
X15870857Y-10425714D01*
X15813714Y-10425714D01*
X15785143Y-10411429D01*
X16056571Y-10397143D02*
X16070857Y-10411429D01*
X16056571Y-10425714D01*
X16042286Y-10411429D01*
X16056571Y-10397143D01*
X16056571Y-10425714D01*
X16056571Y-10240000D02*
X16070857Y-10254286D01*
X16056571Y-10268572D01*
X16042286Y-10254286D01*
X16056571Y-10240000D01*
X16056571Y-10268572D01*
M02*
