M48
;DRILL file {KiCad (5.0.0)} date 11/01/18 21:29:12
;FORMAT={-:-/ absolute / metric / decimal}
FMAT,2
METRIC,TZ
T1C0.800
T2C0.900
T3C1.000
T4C1.016
T5C1.100
T6C1.500
T7C3.175
%
G90
G05
M71
T1
X155.5Y-91.
X158.Y-91.
X157.913Y-72.109
X157.913Y-79.729
X160.453Y-72.109
X160.453Y-79.729
X162.993Y-72.109
X162.993Y-79.729
X165.533Y-72.109
X165.533Y-79.729
T2
X145.Y-75.5
X145.Y-77.5
X145.Y-79.5
T3
X145.Y-85.92
X145.Y-88.46
X145.Y-91.
X147.54Y-85.92
X147.54Y-88.46
X147.54Y-91.
X185.46Y-80.
X188.Y-80.
X157.929Y-82.982
X160.469Y-82.982
X163.009Y-82.982
X165.549Y-82.982
X157.919Y-68.829
X160.459Y-68.829
X162.999Y-68.829
X165.539Y-68.829
X185.46Y-70.
X188.Y-70.
X185.46Y-75.
X188.Y-75.
X185.46Y-85.
X188.Y-85.
T4
X149.776Y-48.431
X152.316Y-48.431
X154.856Y-48.431
X157.396Y-48.431
X158.92Y-96.691
X159.936Y-48.431
X161.46Y-96.691
X162.476Y-48.431
X164.Y-96.691
X165.016Y-48.431
X166.54Y-96.691
X167.556Y-48.431
X169.08Y-96.691
X171.62Y-48.431
X171.62Y-96.691
X174.16Y-48.431
X176.7Y-48.431
X176.7Y-96.691
X179.24Y-48.431
X179.24Y-96.691
X181.78Y-48.431
X181.78Y-96.691
X184.32Y-48.431
X184.32Y-96.691
X186.86Y-48.431
X186.86Y-96.691
X189.4Y-48.431
X189.4Y-96.691
T5
X145.Y-63.5
X145.Y-70.
X149.5Y-63.5
X149.5Y-70.
T6
X145.Y-73.4
X145.Y-81.6
T7
X139.87Y-96.691
X141.14Y-48.431
X191.94Y-63.671
X191.94Y-91.611
T0
M30
