G04 #@! TF.GenerationSoftware,KiCad,Pcbnew,(5.0.0)*
G04 #@! TF.CreationDate,2018-11-01T21:51:16+01:00*
G04 #@! TF.ProjectId,ATtiny85_Arduino_programmer,415474696E7938355F41726475696E6F,rev?*
G04 #@! TF.SameCoordinates,Original*
G04 #@! TF.FileFunction,Copper,L1,Top,Signal*
G04 #@! TF.FilePolarity,Positive*
%FSLAX46Y46*%
G04 Gerber Fmt 4.6, Leading zero omitted, Abs format (unit mm)*
G04 Created by KiCad (PCBNEW (5.0.0)) date 11/01/18 21:51:16*
%MOMM*%
%LPD*%
G01*
G04 APERTURE LIST*
G04 #@! TA.AperFunction,ComponentPad*
%ADD10R,2.500000X1.500000*%
G04 #@! TD*
G04 #@! TA.AperFunction,ComponentPad*
%ADD11O,2.500000X1.500000*%
G04 #@! TD*
G04 #@! TA.AperFunction,ComponentPad*
%ADD12O,3.500000X2.200000*%
G04 #@! TD*
G04 #@! TA.AperFunction,SMDPad,CuDef*
%ADD13R,1.500000X1.300000*%
G04 #@! TD*
G04 #@! TA.AperFunction,ComponentPad*
%ADD14O,1.600000X2.400000*%
G04 #@! TD*
G04 #@! TA.AperFunction,ComponentPad*
%ADD15R,1.600000X2.400000*%
G04 #@! TD*
G04 #@! TA.AperFunction,ComponentPad*
%ADD16C,2.000000*%
G04 #@! TD*
G04 #@! TA.AperFunction,ComponentPad*
%ADD17O,1.524000X2.540000*%
G04 #@! TD*
G04 #@! TA.AperFunction,ComponentPad*
%ADD18C,3.937000*%
G04 #@! TD*
G04 #@! TA.AperFunction,SMDPad,CuDef*
%ADD19R,1.000000X1.500000*%
G04 #@! TD*
G04 #@! TA.AperFunction,ComponentPad*
%ADD20O,1.700000X1.700000*%
G04 #@! TD*
G04 #@! TA.AperFunction,ComponentPad*
%ADD21R,1.700000X1.700000*%
G04 #@! TD*
G04 #@! TA.AperFunction,ComponentPad*
%ADD22C,1.600000*%
G04 #@! TD*
G04 #@! TA.AperFunction,ComponentPad*
%ADD23R,1.600000X1.600000*%
G04 #@! TD*
G04 #@! TA.AperFunction,Conductor*
%ADD24C,0.800000*%
G04 #@! TD*
G04 #@! TA.AperFunction,Conductor*
%ADD25C,0.254000*%
G04 #@! TD*
G04 APERTURE END LIST*
D10*
G04 #@! TO.P,SW2,1*
G04 #@! TO.N,5V*
X145000000Y-75500000D03*
D11*
G04 #@! TO.P,SW2,2*
X145000000Y-77500000D03*
G04 #@! TO.P,SW2,3*
G04 #@! TO.N,Net-(SW1-Pad2)*
X145000000Y-79500000D03*
D12*
G04 #@! TO.P,SW2,*
G04 #@! TO.N,*
X145000000Y-73400000D03*
X145000000Y-81600000D03*
G04 #@! TD*
D13*
G04 #@! TO.P,D3,1*
G04 #@! TO.N,GND*
X187350000Y-63000000D03*
G04 #@! TO.P,D3,2*
G04 #@! TO.N,Net-(D3-Pad2)*
X184650000Y-63000000D03*
G04 #@! TD*
G04 #@! TO.P,D2,1*
G04 #@! TO.N,GND*
X187350000Y-58000000D03*
G04 #@! TO.P,D2,2*
G04 #@! TO.N,Net-(D2-Pad2)*
X184650000Y-58000000D03*
G04 #@! TD*
G04 #@! TO.P,D1,1*
G04 #@! TO.N,GND*
X187350000Y-53000000D03*
G04 #@! TO.P,D1,2*
G04 #@! TO.N,Net-(D1-Pad2)*
X184650000Y-53000000D03*
G04 #@! TD*
G04 #@! TO.P,R1,1*
G04 #@! TO.N,7*
X176650000Y-53000000D03*
G04 #@! TO.P,R1,2*
G04 #@! TO.N,Net-(D1-Pad2)*
X179350000Y-53000000D03*
G04 #@! TD*
G04 #@! TO.P,R3,1*
G04 #@! TO.N,9*
X176650000Y-63000000D03*
G04 #@! TO.P,R3,2*
G04 #@! TO.N,Net-(D3-Pad2)*
X179350000Y-63000000D03*
G04 #@! TD*
G04 #@! TO.P,R2,1*
G04 #@! TO.N,8*
X176650000Y-58000000D03*
G04 #@! TO.P,R2,2*
G04 #@! TO.N,Net-(D2-Pad2)*
X179350000Y-58000000D03*
G04 #@! TD*
D14*
G04 #@! TO.P,U1,8*
G04 #@! TO.N,Net-(SW1-Pad2)*
X157912707Y-72108569D03*
G04 #@! TO.P,U1,4*
G04 #@! TO.N,GND*
X165532707Y-79728569D03*
G04 #@! TO.P,U1,7*
G04 #@! TO.N,AT7*
X160452707Y-72108569D03*
G04 #@! TO.P,U1,3*
G04 #@! TO.N,AT3*
X162992707Y-79728569D03*
G04 #@! TO.P,U1,6*
G04 #@! TO.N,AT6*
X162992707Y-72108569D03*
G04 #@! TO.P,U1,2*
G04 #@! TO.N,AT2*
X160452707Y-79728569D03*
G04 #@! TO.P,U1,5*
G04 #@! TO.N,AT5*
X165532707Y-72108569D03*
D15*
G04 #@! TO.P,U1,1*
G04 #@! TO.N,AT1*
X157912707Y-79728569D03*
G04 #@! TD*
D16*
G04 #@! TO.P,SW1,1*
G04 #@! TO.N,5V*
X145000000Y-63500000D03*
G04 #@! TO.P,SW1,2*
G04 #@! TO.N,Net-(SW1-Pad2)*
X149500000Y-63500000D03*
G04 #@! TO.P,SW1,1*
G04 #@! TO.N,5V*
X145000000Y-70000000D03*
G04 #@! TO.P,SW1,2*
G04 #@! TO.N,Net-(SW1-Pad2)*
X149500000Y-70000000D03*
G04 #@! TD*
D17*
G04 #@! TO.P,SHIELD1,AD5*
G04 #@! TO.N,Net-(SHIELD1-PadAD5)*
X189400000Y-96690501D03*
G04 #@! TO.P,SHIELD1,AD4*
G04 #@! TO.N,Net-(SHIELD1-PadAD4)*
X186860000Y-96690501D03*
G04 #@! TO.P,SHIELD1,AD3*
G04 #@! TO.N,Net-(SHIELD1-PadAD3)*
X184320000Y-96690501D03*
G04 #@! TO.P,SHIELD1,AD0*
G04 #@! TO.N,Net-(SHIELD1-PadAD0)*
X176700000Y-96690501D03*
G04 #@! TO.P,SHIELD1,AD1*
G04 #@! TO.N,Net-(SHIELD1-PadAD1)*
X179240000Y-96690501D03*
G04 #@! TO.P,SHIELD1,AD2*
G04 #@! TO.N,Net-(SHIELD1-PadAD2)*
X181780000Y-96690501D03*
G04 #@! TO.P,SHIELD1,V_IN*
G04 #@! TO.N,Net-(SHIELD1-PadV_IN)*
X171620000Y-96690501D03*
G04 #@! TO.P,SHIELD1,GND2*
G04 #@! TO.N,GND*
X169080000Y-96690501D03*
G04 #@! TO.P,SHIELD1,GND1*
X166540000Y-96690501D03*
G04 #@! TO.P,SHIELD1,3V3*
G04 #@! TO.N,Net-(SHIELD1-Pad3V3)*
X161460000Y-96690501D03*
G04 #@! TO.P,SHIELD1,RST*
G04 #@! TO.N,Net-(C1-Pad1)*
X158920000Y-96690501D03*
G04 #@! TO.P,SHIELD1,0*
G04 #@! TO.N,Net-(SHIELD1-Pad0)*
X189400000Y-48430501D03*
G04 #@! TO.P,SHIELD1,1*
G04 #@! TO.N,Net-(SHIELD1-Pad1)*
X186860000Y-48430501D03*
G04 #@! TO.P,SHIELD1,2*
G04 #@! TO.N,Net-(SHIELD1-Pad2)*
X184320000Y-48430501D03*
G04 #@! TO.P,SHIELD1,3*
G04 #@! TO.N,Net-(SHIELD1-Pad3)*
X181780000Y-48430501D03*
G04 #@! TO.P,SHIELD1,4*
G04 #@! TO.N,Net-(SHIELD1-Pad4)*
X179240000Y-48430501D03*
G04 #@! TO.P,SHIELD1,5*
G04 #@! TO.N,Net-(SHIELD1-Pad5)*
X176700000Y-48430501D03*
G04 #@! TO.P,SHIELD1,6*
G04 #@! TO.N,Net-(SHIELD1-Pad6)*
X174160000Y-48430501D03*
G04 #@! TO.P,SHIELD1,7*
G04 #@! TO.N,7*
X171620000Y-48430501D03*
G04 #@! TO.P,SHIELD1,8*
G04 #@! TO.N,8*
X167556000Y-48430501D03*
G04 #@! TO.P,SHIELD1,9*
G04 #@! TO.N,9*
X165016000Y-48430501D03*
G04 #@! TO.P,SHIELD1,10*
G04 #@! TO.N,10*
X162476000Y-48430501D03*
G04 #@! TO.P,SHIELD1,11*
G04 #@! TO.N,11*
X159936000Y-48430501D03*
G04 #@! TO.P,SHIELD1,12*
G04 #@! TO.N,12*
X157396000Y-48430501D03*
G04 #@! TO.P,SHIELD1,13*
G04 #@! TO.N,13*
X154856000Y-48430501D03*
G04 #@! TO.P,SHIELD1,GND3*
G04 #@! TO.N,GND*
X152316000Y-48430501D03*
G04 #@! TO.P,SHIELD1,AREF*
G04 #@! TO.N,Net-(SHIELD1-PadAREF)*
X149776000Y-48430501D03*
G04 #@! TO.P,SHIELD1,5V*
G04 #@! TO.N,5V*
X164000000Y-96690501D03*
D18*
G04 #@! TO.P,SHIELD1,*
G04 #@! TO.N,*
X191940000Y-91610501D03*
X191940000Y-63670501D03*
X141140000Y-48430501D03*
X139870000Y-96690501D03*
G04 #@! TD*
D19*
G04 #@! TO.P,JP8,1*
G04 #@! TO.N,13*
X179350000Y-85000000D03*
G04 #@! TO.P,JP8,2*
G04 #@! TO.N,AT7*
X180650000Y-85000000D03*
G04 #@! TD*
G04 #@! TO.P,JP7,2*
G04 #@! TO.N,AT6*
X180650000Y-80000000D03*
G04 #@! TO.P,JP7,1*
G04 #@! TO.N,12*
X179350000Y-80000000D03*
G04 #@! TD*
G04 #@! TO.P,JP6,1*
G04 #@! TO.N,11*
X179350000Y-75000000D03*
G04 #@! TO.P,JP6,2*
G04 #@! TO.N,AT5*
X180650000Y-75000000D03*
G04 #@! TD*
G04 #@! TO.P,JP5,2*
G04 #@! TO.N,AT1*
X180650000Y-70000000D03*
G04 #@! TO.P,JP5,1*
G04 #@! TO.N,10*
X179350000Y-70000000D03*
G04 #@! TD*
D20*
G04 #@! TO.P,JP4,2*
G04 #@! TO.N,AT7*
X185460000Y-85000000D03*
D21*
G04 #@! TO.P,JP4,1*
G04 #@! TO.N,13*
X188000000Y-85000000D03*
G04 #@! TD*
G04 #@! TO.P,JP3,1*
G04 #@! TO.N,12*
X188000000Y-80000000D03*
D20*
G04 #@! TO.P,JP3,2*
G04 #@! TO.N,AT6*
X185460000Y-80000000D03*
G04 #@! TD*
G04 #@! TO.P,JP2,2*
G04 #@! TO.N,AT5*
X185460000Y-75000000D03*
D21*
G04 #@! TO.P,JP2,1*
G04 #@! TO.N,11*
X188000000Y-75000000D03*
G04 #@! TD*
G04 #@! TO.P,JP1,1*
G04 #@! TO.N,10*
X188000000Y-70000000D03*
D20*
G04 #@! TO.P,JP1,2*
G04 #@! TO.N,AT1*
X185460000Y-70000000D03*
G04 #@! TD*
D21*
G04 #@! TO.P,J3,1*
G04 #@! TO.N,5V*
X157918607Y-68829009D03*
D20*
G04 #@! TO.P,J3,2*
G04 #@! TO.N,AT7*
X160458607Y-68829009D03*
G04 #@! TO.P,J3,3*
G04 #@! TO.N,AT6*
X162998607Y-68829009D03*
G04 #@! TO.P,J3,4*
G04 #@! TO.N,AT5*
X165538607Y-68829009D03*
G04 #@! TD*
G04 #@! TO.P,J2,4*
G04 #@! TO.N,GND*
X165548767Y-82981889D03*
G04 #@! TO.P,J2,3*
G04 #@! TO.N,AT3*
X163008767Y-82981889D03*
G04 #@! TO.P,J2,2*
G04 #@! TO.N,AT2*
X160468767Y-82981889D03*
D21*
G04 #@! TO.P,J2,1*
G04 #@! TO.N,AT1*
X157928767Y-82981889D03*
G04 #@! TD*
D20*
G04 #@! TO.P,J1,4*
G04 #@! TO.N,GND*
X147540000Y-91000000D03*
G04 #@! TO.P,J1,3*
G04 #@! TO.N,10*
X145000000Y-91000000D03*
G04 #@! TO.P,J1,5*
G04 #@! TO.N,12*
X147540000Y-88460000D03*
G04 #@! TO.P,J1,2*
G04 #@! TO.N,13*
X145000000Y-88460000D03*
G04 #@! TO.P,J1,6*
G04 #@! TO.N,5V*
X147540000Y-85920000D03*
D21*
G04 #@! TO.P,J1,1*
G04 #@! TO.N,11*
X145000000Y-85920000D03*
G04 #@! TD*
D22*
G04 #@! TO.P,C1,2*
G04 #@! TO.N,GND*
X155500000Y-91000000D03*
D23*
G04 #@! TO.P,C1,1*
G04 #@! TO.N,Net-(C1-Pad1)*
X158000000Y-91000000D03*
G04 #@! TD*
D24*
G04 #@! TO.N,GND*
X165532707Y-82965829D02*
X165548767Y-82981889D01*
X165532707Y-79728569D02*
X165532707Y-82965829D01*
X166540000Y-96690501D02*
X169080000Y-96690501D01*
X187350000Y-53000000D02*
X187350000Y-63000000D01*
X147540000Y-91000000D02*
X155500000Y-91000000D01*
G04 #@! TO.N,Net-(C1-Pad1)*
X159600000Y-96010501D02*
X158920000Y-96690501D01*
X159600000Y-93900000D02*
X159600000Y-96010501D01*
X158300000Y-92600000D02*
X159600000Y-93900000D01*
X158000000Y-91000000D02*
X158300000Y-91300000D01*
X158300000Y-91300000D02*
X158300000Y-92600000D01*
G04 #@! TO.N,Net-(D1-Pad2)*
X180000000Y-53000000D02*
X184000000Y-53000000D01*
G04 #@! TO.N,Net-(D2-Pad2)*
X180000000Y-58000000D02*
X184000000Y-58000000D01*
G04 #@! TO.N,Net-(D3-Pad2)*
X180000000Y-63000000D02*
X184000000Y-63000000D01*
G04 #@! TO.N,12*
X179469601Y-78249999D02*
X178509600Y-79210000D01*
X186300001Y-78249999D02*
X179469601Y-78249999D01*
X188000000Y-79949998D02*
X186300001Y-78249999D01*
X188000000Y-80000000D02*
X188000000Y-79949998D01*
X178509600Y-79210000D02*
X179249999Y-79950399D01*
X178509600Y-76650001D02*
X178509600Y-79210000D01*
X178129999Y-76650001D02*
X178509600Y-76650001D01*
X177949999Y-76470001D02*
X178129999Y-76650001D01*
X177949999Y-76028490D02*
X177949999Y-76470001D01*
X157396000Y-48430501D02*
X157396000Y-55436000D01*
X157396000Y-55436000D02*
X158635990Y-56675990D01*
X158635990Y-56675990D02*
X158635990Y-56714481D01*
X158635990Y-56714481D02*
X177949999Y-76028490D01*
G04 #@! TO.N,5V*
X145000000Y-63500000D02*
X145000000Y-70000000D01*
X145999999Y-62500001D02*
X145000000Y-63500000D01*
X147687997Y-62500001D02*
X145999999Y-62500001D01*
X152629009Y-68829009D02*
X151400001Y-67600001D01*
X157918607Y-68829009D02*
X152629009Y-68829009D01*
X151400001Y-67600001D02*
X151400001Y-62587999D01*
X151400001Y-62587999D02*
X150412001Y-61599999D01*
X150412001Y-61599999D02*
X148587999Y-61599999D01*
X148587999Y-61599999D02*
X147687997Y-62500001D01*
X142950000Y-77500000D02*
X145000000Y-77500000D01*
X142349990Y-78100010D02*
X142950000Y-77500000D01*
X143521569Y-83600010D02*
X142349990Y-82428431D01*
X142349990Y-82428431D02*
X142349990Y-78100010D01*
X147540000Y-84717919D02*
X146422091Y-83600010D01*
X146422091Y-83600010D02*
X143521569Y-83600010D01*
X147540000Y-85920000D02*
X147540000Y-84717919D01*
X145000000Y-75500000D02*
X145000000Y-77500000D01*
X142950000Y-75500000D02*
X145000000Y-75500000D01*
X142349990Y-74899990D02*
X142950000Y-75500000D01*
X142349990Y-71235797D02*
X142349990Y-74899990D01*
X143585787Y-70000000D02*
X142349990Y-71235797D01*
X145000000Y-70000000D02*
X143585787Y-70000000D01*
X147540000Y-85940000D02*
X147540000Y-85920000D01*
X164000000Y-96300000D02*
X159700001Y-92000001D01*
X164000000Y-96690501D02*
X164000000Y-96300000D01*
X159700001Y-92000001D02*
X159700001Y-89479999D01*
X159700001Y-89479999D02*
X159520001Y-89299999D01*
X159520001Y-89299999D02*
X150899999Y-89299999D01*
X150899999Y-89299999D02*
X147540000Y-85940000D01*
G04 #@! TO.N,10*
X178720000Y-69059998D02*
X178720000Y-70000000D01*
X179529999Y-68249999D02*
X178720000Y-69059998D01*
X187899999Y-68249999D02*
X179529999Y-68249999D01*
X188000000Y-68350000D02*
X187899999Y-68249999D01*
X178720000Y-70000000D02*
X179249999Y-70000000D01*
X188000000Y-70000000D02*
X188000000Y-68350000D01*
X176650000Y-70000000D02*
X178720000Y-70000000D01*
X162476000Y-48430501D02*
X162476000Y-55826000D01*
X162476000Y-55826000D02*
X176650000Y-70000000D01*
G04 #@! TO.N,13*
X154856000Y-48430501D02*
X154856000Y-48938501D01*
X179529999Y-86750001D02*
X178630000Y-85850002D01*
X186300001Y-86750001D02*
X179529999Y-86750001D01*
X188000000Y-85000000D02*
X188000000Y-85050002D01*
X188000000Y-85050002D02*
X186300001Y-86750001D01*
X178630000Y-85850002D02*
X178630000Y-84760000D01*
X178870000Y-85000000D02*
X179249999Y-85000000D01*
X178630000Y-84760000D02*
X178870000Y-85000000D01*
G04 #@! TO.N,11*
X179529999Y-73249999D02*
X178760000Y-74019998D01*
X178760000Y-74019998D02*
X178760000Y-75000000D01*
X186300001Y-73249999D02*
X179529999Y-73249999D01*
X188000000Y-74949998D02*
X186300001Y-73249999D01*
X178760000Y-75000000D02*
X179249999Y-75000000D01*
X188000000Y-75000000D02*
X188000000Y-74949998D01*
X178760000Y-74450000D02*
X178760000Y-75000000D01*
X159936000Y-48430501D02*
X159936000Y-55626000D01*
X159936000Y-55626000D02*
X178760000Y-74450000D01*
G04 #@! TO.N,AT1*
X184257919Y-70000000D02*
X180750001Y-70000000D01*
X185460000Y-70000000D02*
X184257919Y-70000000D01*
X157928767Y-79744629D02*
X157912707Y-79728569D01*
X157928767Y-82981889D02*
X157928767Y-79744629D01*
X184610001Y-71520001D02*
X184610001Y-70849999D01*
X184840001Y-71750001D02*
X184610001Y-71520001D01*
X188070003Y-71750001D02*
X184840001Y-71750001D01*
X189750001Y-73429999D02*
X188070003Y-71750001D01*
X184610001Y-70849999D02*
X185460000Y-70000000D01*
X157912707Y-77728569D02*
X158231276Y-77410000D01*
X157912707Y-79728569D02*
X157912707Y-77728569D01*
X189750001Y-81570001D02*
X189750001Y-73429999D01*
X158231276Y-77410000D02*
X166898295Y-77410000D01*
X166898295Y-77410000D02*
X171238296Y-81750001D01*
X171238296Y-81750001D02*
X189570001Y-81750001D01*
X189570001Y-81750001D02*
X189750001Y-81570001D01*
G04 #@! TO.N,AT2*
X160468767Y-79744629D02*
X160452707Y-79728569D01*
X160468767Y-82981889D02*
X160468767Y-79744629D01*
G04 #@! TO.N,AT3*
X163008767Y-79744629D02*
X162992707Y-79728569D01*
X163008767Y-82981889D02*
X163008767Y-79744629D01*
G04 #@! TO.N,AT5*
X185460000Y-75000000D02*
X180750001Y-75000000D01*
X165532707Y-68834909D02*
X165538607Y-68829009D01*
X165532707Y-72108569D02*
X165532707Y-68834909D01*
G04 #@! TO.N,AT6*
X185460000Y-80000000D02*
X180750001Y-80000000D01*
X162992707Y-68834909D02*
X162998607Y-68829009D01*
X162992707Y-72108569D02*
X162992707Y-68834909D01*
G04 #@! TO.N,AT7*
X185460000Y-85000000D02*
X180750001Y-85000000D01*
X160452707Y-68834909D02*
X160458607Y-68829009D01*
X160452707Y-72108569D02*
X160452707Y-68834909D01*
G04 #@! TO.N,7*
X171620000Y-50420000D02*
X171620000Y-48430501D01*
X174200000Y-53000000D02*
X171620000Y-50420000D01*
X176000000Y-53000000D02*
X174200000Y-53000000D01*
G04 #@! TO.N,8*
X167556000Y-50504340D02*
X167556000Y-48430501D01*
X176000000Y-58000000D02*
X175051660Y-58000000D01*
X175051660Y-58000000D02*
X167556000Y-50504340D01*
G04 #@! TO.N,9*
X165016000Y-50500501D02*
X165016000Y-48430501D01*
X165016000Y-52356000D02*
X165016000Y-50500501D01*
X176000000Y-63000000D02*
X175660000Y-63000000D01*
X175660000Y-63000000D02*
X165016000Y-52356000D01*
G04 #@! TO.N,Net-(SW1-Pad2)*
X149500000Y-63500000D02*
X149500000Y-70000000D01*
X156312707Y-72108569D02*
X157912707Y-72108569D01*
X154604138Y-70400000D02*
X156312707Y-72108569D01*
X151800000Y-70400000D02*
X154604138Y-70400000D01*
X149500000Y-70000000D02*
X151400000Y-70000000D01*
X151400000Y-70000000D02*
X151800000Y-70400000D01*
X149500000Y-70000000D02*
X149000000Y-70500000D01*
X147800000Y-71700000D02*
X149500000Y-70000000D01*
X147800000Y-77533466D02*
X147800000Y-71700000D01*
X146183456Y-79150010D02*
X147800000Y-77533466D01*
X145149990Y-79150010D02*
X146183456Y-79150010D01*
X145000000Y-79500000D02*
X145000000Y-79300000D01*
X145000000Y-79300000D02*
X145149990Y-79150010D01*
G04 #@! TD*
D25*
G04 #@! TO.N,GND*
G36*
X138932859Y-46955736D02*
X138536500Y-47912633D01*
X138536500Y-48948369D01*
X138932859Y-49905266D01*
X139665235Y-50637642D01*
X140622132Y-51034001D01*
X141657868Y-51034001D01*
X142614765Y-50637642D01*
X143347141Y-49905266D01*
X143743500Y-48948369D01*
X143743500Y-47912633D01*
X143690598Y-47784914D01*
X148379000Y-47784914D01*
X148379000Y-49076089D01*
X148460056Y-49483583D01*
X148768821Y-49945681D01*
X149230919Y-50254445D01*
X149776000Y-50362869D01*
X150321082Y-50254445D01*
X150783180Y-49945681D01*
X151057580Y-49535012D01*
X151073941Y-49590442D01*
X151417974Y-50016131D01*
X151898723Y-50277761D01*
X151972930Y-50292721D01*
X152189000Y-50170221D01*
X152189000Y-48557501D01*
X152169000Y-48557501D01*
X152169000Y-48303501D01*
X152189000Y-48303501D01*
X152189000Y-46690781D01*
X152443000Y-46690781D01*
X152443000Y-48303501D01*
X152463000Y-48303501D01*
X152463000Y-48557501D01*
X152443000Y-48557501D01*
X152443000Y-50170221D01*
X152659070Y-50292721D01*
X152733277Y-50277761D01*
X153214026Y-50016131D01*
X153558059Y-49590442D01*
X153574420Y-49535012D01*
X153848821Y-49945681D01*
X154310919Y-50254445D01*
X154856000Y-50362869D01*
X155401082Y-50254445D01*
X155863180Y-49945681D01*
X156126000Y-49552343D01*
X156361000Y-49904044D01*
X156361001Y-55334061D01*
X156340724Y-55436000D01*
X156421052Y-55839836D01*
X156421053Y-55839837D01*
X156649808Y-56182193D01*
X156736225Y-56239935D01*
X157754546Y-57258257D01*
X157889797Y-57460674D01*
X157976216Y-57518417D01*
X176900211Y-76442413D01*
X176894723Y-76470001D01*
X176914999Y-76571935D01*
X176914999Y-76571936D01*
X176975051Y-76873838D01*
X177203807Y-77216194D01*
X177290224Y-77273936D01*
X177326062Y-77309774D01*
X177383806Y-77396194D01*
X177474600Y-77456861D01*
X177474601Y-79108061D01*
X177454324Y-79210000D01*
X177534652Y-79613836D01*
X177696173Y-79855569D01*
X177763408Y-79956193D01*
X177849824Y-80013934D01*
X178202560Y-80366671D01*
X178202560Y-80715001D01*
X171667007Y-80715001D01*
X167702232Y-76750227D01*
X167644488Y-76663807D01*
X167302132Y-76435052D01*
X167000230Y-76375000D01*
X167000229Y-76375000D01*
X166898295Y-76354724D01*
X166796361Y-76375000D01*
X158333210Y-76375000D01*
X158231276Y-76354724D01*
X158129342Y-76375000D01*
X158129341Y-76375000D01*
X157827439Y-76435052D01*
X157485083Y-76663807D01*
X157427339Y-76750227D01*
X157252932Y-76924634D01*
X157166515Y-76982376D01*
X157108773Y-77068793D01*
X156937759Y-77324733D01*
X156857431Y-77728569D01*
X156877708Y-77830508D01*
X156877708Y-77927873D01*
X156864942Y-77930412D01*
X156654898Y-78070760D01*
X156514550Y-78280804D01*
X156465267Y-78528569D01*
X156465267Y-80928569D01*
X156514550Y-81176334D01*
X156654898Y-81386378D01*
X156864942Y-81526726D01*
X156865583Y-81526853D01*
X156831002Y-81533732D01*
X156620958Y-81674080D01*
X156480610Y-81884124D01*
X156431327Y-82131889D01*
X156431327Y-83831889D01*
X156480610Y-84079654D01*
X156620958Y-84289698D01*
X156831002Y-84430046D01*
X157078767Y-84479329D01*
X158778767Y-84479329D01*
X159026532Y-84430046D01*
X159236576Y-84289698D01*
X159376924Y-84079654D01*
X159385951Y-84034270D01*
X159398142Y-84052514D01*
X159889349Y-84380728D01*
X160322511Y-84466889D01*
X160615023Y-84466889D01*
X161048185Y-84380728D01*
X161539392Y-84052514D01*
X161738767Y-83754128D01*
X161938142Y-84052514D01*
X162429349Y-84380728D01*
X162862511Y-84466889D01*
X163155023Y-84466889D01*
X163588185Y-84380728D01*
X164079392Y-84052514D01*
X164292610Y-83733411D01*
X164353584Y-83863247D01*
X164781843Y-84253534D01*
X165191877Y-84423365D01*
X165421767Y-84302044D01*
X165421767Y-83108889D01*
X165675767Y-83108889D01*
X165675767Y-84302044D01*
X165905657Y-84423365D01*
X166315691Y-84253534D01*
X166743950Y-83863247D01*
X166990253Y-83338781D01*
X166869586Y-83108889D01*
X165675767Y-83108889D01*
X165421767Y-83108889D01*
X165401767Y-83108889D01*
X165401767Y-82854889D01*
X165421767Y-82854889D01*
X165421767Y-81661734D01*
X165675767Y-81661734D01*
X165675767Y-82854889D01*
X166869586Y-82854889D01*
X166990253Y-82624997D01*
X166743950Y-82100531D01*
X166315691Y-81710244D01*
X165905657Y-81540413D01*
X165675767Y-81661734D01*
X165421767Y-81661734D01*
X165191877Y-81540413D01*
X164781843Y-81710244D01*
X164353584Y-82100531D01*
X164292610Y-82230367D01*
X164079392Y-81911264D01*
X164043767Y-81887460D01*
X164043767Y-81138477D01*
X164265206Y-80807070D01*
X164607811Y-81233069D01*
X165100888Y-81502936D01*
X165183668Y-81520473D01*
X165405707Y-81398484D01*
X165405707Y-79855569D01*
X165659707Y-79855569D01*
X165659707Y-81398484D01*
X165881746Y-81520473D01*
X165964526Y-81502936D01*
X166457603Y-81233069D01*
X166809873Y-80795052D01*
X166967707Y-80255569D01*
X166967707Y-79855569D01*
X165659707Y-79855569D01*
X165405707Y-79855569D01*
X165385707Y-79855569D01*
X165385707Y-79601569D01*
X165405707Y-79601569D01*
X165405707Y-79581569D01*
X165659707Y-79581569D01*
X165659707Y-79601569D01*
X166967707Y-79601569D01*
X166967707Y-79201569D01*
X166860824Y-78836239D01*
X170434361Y-82409777D01*
X170492103Y-82496194D01*
X170834459Y-82724949D01*
X171238295Y-82805277D01*
X171340230Y-82785001D01*
X189468067Y-82785001D01*
X189570001Y-82805277D01*
X189671935Y-82785001D01*
X189671936Y-82785001D01*
X189973838Y-82724949D01*
X190316194Y-82496194D01*
X190373938Y-82409774D01*
X190409774Y-82373938D01*
X190496194Y-82316194D01*
X190724949Y-81973838D01*
X190785001Y-81671936D01*
X190785001Y-81671931D01*
X190805276Y-81570002D01*
X190785001Y-81468072D01*
X190785001Y-73531933D01*
X190805277Y-73429999D01*
X190724949Y-73026162D01*
X190553935Y-72770222D01*
X190496194Y-72683806D01*
X190409777Y-72626064D01*
X189178154Y-71394442D01*
X189307809Y-71307809D01*
X189448157Y-71097765D01*
X189497440Y-70850000D01*
X189497440Y-69150000D01*
X189448157Y-68902235D01*
X189307809Y-68692191D01*
X189097765Y-68551843D01*
X189035000Y-68539358D01*
X189035000Y-68451934D01*
X189055276Y-68350000D01*
X189019319Y-68169232D01*
X188974948Y-67946163D01*
X188746193Y-67603807D01*
X188686247Y-67563752D01*
X188646192Y-67503806D01*
X188303836Y-67275051D01*
X188001934Y-67214999D01*
X188001933Y-67214999D01*
X187899999Y-67194723D01*
X187798065Y-67214999D01*
X179631933Y-67214999D01*
X179529999Y-67194723D01*
X179428064Y-67214999D01*
X179126162Y-67275051D01*
X178783806Y-67503806D01*
X178726064Y-67590223D01*
X178060227Y-68256061D01*
X177973807Y-68313805D01*
X177780868Y-68602560D01*
X177745052Y-68656162D01*
X177683620Y-68965000D01*
X177078711Y-68965000D01*
X163511000Y-55397290D01*
X163511000Y-49904045D01*
X163746000Y-49552343D01*
X163981000Y-49904045D01*
X163981000Y-50602435D01*
X163981001Y-50602440D01*
X163981000Y-52254065D01*
X163960724Y-52356000D01*
X163981000Y-52457934D01*
X164041052Y-52759836D01*
X164269807Y-53102193D01*
X164356227Y-53159937D01*
X174856065Y-63659776D01*
X174913807Y-63746193D01*
X175256163Y-63974948D01*
X175368323Y-63997258D01*
X175442191Y-64107809D01*
X175652235Y-64248157D01*
X175900000Y-64297440D01*
X177400000Y-64297440D01*
X177647765Y-64248157D01*
X177857809Y-64107809D01*
X177998157Y-63897765D01*
X178000000Y-63888500D01*
X178001843Y-63897765D01*
X178142191Y-64107809D01*
X178352235Y-64248157D01*
X178600000Y-64297440D01*
X180100000Y-64297440D01*
X180347765Y-64248157D01*
X180557809Y-64107809D01*
X180606459Y-64035000D01*
X183393541Y-64035000D01*
X183442191Y-64107809D01*
X183652235Y-64248157D01*
X183900000Y-64297440D01*
X185400000Y-64297440D01*
X185647765Y-64248157D01*
X185857809Y-64107809D01*
X185998157Y-63897765D01*
X186003721Y-63869791D01*
X186061673Y-64009699D01*
X186240302Y-64188327D01*
X186473691Y-64285000D01*
X187064250Y-64285000D01*
X187223000Y-64126250D01*
X187223000Y-63127000D01*
X187477000Y-63127000D01*
X187477000Y-64126250D01*
X187635750Y-64285000D01*
X188226309Y-64285000D01*
X188459698Y-64188327D01*
X188638327Y-64009699D01*
X188735000Y-63776310D01*
X188735000Y-63285750D01*
X188576250Y-63127000D01*
X187477000Y-63127000D01*
X187223000Y-63127000D01*
X187203000Y-63127000D01*
X187203000Y-62873000D01*
X187223000Y-62873000D01*
X187223000Y-61873750D01*
X187477000Y-61873750D01*
X187477000Y-62873000D01*
X188576250Y-62873000D01*
X188735000Y-62714250D01*
X188735000Y-62223690D01*
X188638327Y-61990301D01*
X188459698Y-61811673D01*
X188226309Y-61715000D01*
X187635750Y-61715000D01*
X187477000Y-61873750D01*
X187223000Y-61873750D01*
X187064250Y-61715000D01*
X186473691Y-61715000D01*
X186240302Y-61811673D01*
X186061673Y-61990301D01*
X186003721Y-62130209D01*
X185998157Y-62102235D01*
X185857809Y-61892191D01*
X185647765Y-61751843D01*
X185400000Y-61702560D01*
X183900000Y-61702560D01*
X183652235Y-61751843D01*
X183442191Y-61892191D01*
X183393541Y-61965000D01*
X180606459Y-61965000D01*
X180557809Y-61892191D01*
X180347765Y-61751843D01*
X180100000Y-61702560D01*
X178600000Y-61702560D01*
X178352235Y-61751843D01*
X178142191Y-61892191D01*
X178001843Y-62102235D01*
X178000000Y-62111500D01*
X177998157Y-62102235D01*
X177857809Y-61892191D01*
X177647765Y-61751843D01*
X177400000Y-61702560D01*
X175900000Y-61702560D01*
X175838503Y-61714792D01*
X166051000Y-51927290D01*
X166051000Y-49904045D01*
X166286000Y-49552343D01*
X166521000Y-49904045D01*
X166521000Y-50402405D01*
X166500724Y-50504340D01*
X166521000Y-50606274D01*
X166581052Y-50908176D01*
X166809807Y-51250533D01*
X166896227Y-51308277D01*
X174247725Y-58659776D01*
X174305467Y-58746193D01*
X174568786Y-58922137D01*
X174647823Y-58974948D01*
X175051659Y-59055276D01*
X175153594Y-59035000D01*
X175393541Y-59035000D01*
X175442191Y-59107809D01*
X175652235Y-59248157D01*
X175900000Y-59297440D01*
X177400000Y-59297440D01*
X177647765Y-59248157D01*
X177857809Y-59107809D01*
X177998157Y-58897765D01*
X178000000Y-58888500D01*
X178001843Y-58897765D01*
X178142191Y-59107809D01*
X178352235Y-59248157D01*
X178600000Y-59297440D01*
X180100000Y-59297440D01*
X180347765Y-59248157D01*
X180557809Y-59107809D01*
X180606459Y-59035000D01*
X183393541Y-59035000D01*
X183442191Y-59107809D01*
X183652235Y-59248157D01*
X183900000Y-59297440D01*
X185400000Y-59297440D01*
X185647765Y-59248157D01*
X185857809Y-59107809D01*
X185998157Y-58897765D01*
X186003721Y-58869791D01*
X186061673Y-59009699D01*
X186240302Y-59188327D01*
X186473691Y-59285000D01*
X187064250Y-59285000D01*
X187223000Y-59126250D01*
X187223000Y-58127000D01*
X187477000Y-58127000D01*
X187477000Y-59126250D01*
X187635750Y-59285000D01*
X188226309Y-59285000D01*
X188459698Y-59188327D01*
X188638327Y-59009699D01*
X188735000Y-58776310D01*
X188735000Y-58285750D01*
X188576250Y-58127000D01*
X187477000Y-58127000D01*
X187223000Y-58127000D01*
X187203000Y-58127000D01*
X187203000Y-57873000D01*
X187223000Y-57873000D01*
X187223000Y-56873750D01*
X187477000Y-56873750D01*
X187477000Y-57873000D01*
X188576250Y-57873000D01*
X188735000Y-57714250D01*
X188735000Y-57223690D01*
X188638327Y-56990301D01*
X188459698Y-56811673D01*
X188226309Y-56715000D01*
X187635750Y-56715000D01*
X187477000Y-56873750D01*
X187223000Y-56873750D01*
X187064250Y-56715000D01*
X186473691Y-56715000D01*
X186240302Y-56811673D01*
X186061673Y-56990301D01*
X186003721Y-57130209D01*
X185998157Y-57102235D01*
X185857809Y-56892191D01*
X185647765Y-56751843D01*
X185400000Y-56702560D01*
X183900000Y-56702560D01*
X183652235Y-56751843D01*
X183442191Y-56892191D01*
X183393541Y-56965000D01*
X180606459Y-56965000D01*
X180557809Y-56892191D01*
X180347765Y-56751843D01*
X180100000Y-56702560D01*
X178600000Y-56702560D01*
X178352235Y-56751843D01*
X178142191Y-56892191D01*
X178001843Y-57102235D01*
X178000000Y-57111500D01*
X177998157Y-57102235D01*
X177857809Y-56892191D01*
X177647765Y-56751843D01*
X177400000Y-56702560D01*
X175900000Y-56702560D01*
X175652235Y-56751843D01*
X175442191Y-56892191D01*
X175428320Y-56912950D01*
X168591000Y-50075630D01*
X168591000Y-49904045D01*
X168871944Y-49483583D01*
X168953000Y-49076089D01*
X168953000Y-47784914D01*
X170223000Y-47784914D01*
X170223000Y-49076089D01*
X170304056Y-49483583D01*
X170585000Y-49904044D01*
X170585000Y-50318065D01*
X170564724Y-50420000D01*
X170585000Y-50521934D01*
X170645052Y-50823836D01*
X170873807Y-51166193D01*
X170960227Y-51223937D01*
X173396065Y-53659776D01*
X173453807Y-53746193D01*
X173796163Y-53974948D01*
X174200000Y-54055276D01*
X174301934Y-54035000D01*
X175393541Y-54035000D01*
X175442191Y-54107809D01*
X175652235Y-54248157D01*
X175900000Y-54297440D01*
X177400000Y-54297440D01*
X177647765Y-54248157D01*
X177857809Y-54107809D01*
X177998157Y-53897765D01*
X178000000Y-53888500D01*
X178001843Y-53897765D01*
X178142191Y-54107809D01*
X178352235Y-54248157D01*
X178600000Y-54297440D01*
X180100000Y-54297440D01*
X180347765Y-54248157D01*
X180557809Y-54107809D01*
X180606459Y-54035000D01*
X183393541Y-54035000D01*
X183442191Y-54107809D01*
X183652235Y-54248157D01*
X183900000Y-54297440D01*
X185400000Y-54297440D01*
X185647765Y-54248157D01*
X185857809Y-54107809D01*
X185998157Y-53897765D01*
X186003721Y-53869791D01*
X186061673Y-54009699D01*
X186240302Y-54188327D01*
X186473691Y-54285000D01*
X187064250Y-54285000D01*
X187223000Y-54126250D01*
X187223000Y-53127000D01*
X187477000Y-53127000D01*
X187477000Y-54126250D01*
X187635750Y-54285000D01*
X188226309Y-54285000D01*
X188459698Y-54188327D01*
X188638327Y-54009699D01*
X188735000Y-53776310D01*
X188735000Y-53285750D01*
X188576250Y-53127000D01*
X187477000Y-53127000D01*
X187223000Y-53127000D01*
X187203000Y-53127000D01*
X187203000Y-52873000D01*
X187223000Y-52873000D01*
X187223000Y-51873750D01*
X187477000Y-51873750D01*
X187477000Y-52873000D01*
X188576250Y-52873000D01*
X188735000Y-52714250D01*
X188735000Y-52223690D01*
X188638327Y-51990301D01*
X188459698Y-51811673D01*
X188226309Y-51715000D01*
X187635750Y-51715000D01*
X187477000Y-51873750D01*
X187223000Y-51873750D01*
X187064250Y-51715000D01*
X186473691Y-51715000D01*
X186240302Y-51811673D01*
X186061673Y-51990301D01*
X186003721Y-52130209D01*
X185998157Y-52102235D01*
X185857809Y-51892191D01*
X185647765Y-51751843D01*
X185400000Y-51702560D01*
X183900000Y-51702560D01*
X183652235Y-51751843D01*
X183442191Y-51892191D01*
X183393541Y-51965000D01*
X180606459Y-51965000D01*
X180557809Y-51892191D01*
X180347765Y-51751843D01*
X180100000Y-51702560D01*
X178600000Y-51702560D01*
X178352235Y-51751843D01*
X178142191Y-51892191D01*
X178001843Y-52102235D01*
X178000000Y-52111500D01*
X177998157Y-52102235D01*
X177857809Y-51892191D01*
X177647765Y-51751843D01*
X177400000Y-51702560D01*
X175900000Y-51702560D01*
X175652235Y-51751843D01*
X175442191Y-51892191D01*
X175393541Y-51965000D01*
X174628711Y-51965000D01*
X172655000Y-49991290D01*
X172655000Y-49904045D01*
X172890000Y-49552343D01*
X173152821Y-49945681D01*
X173614919Y-50254445D01*
X174160000Y-50362869D01*
X174705082Y-50254445D01*
X175167180Y-49945681D01*
X175430000Y-49552343D01*
X175692821Y-49945681D01*
X176154919Y-50254445D01*
X176700000Y-50362869D01*
X177245082Y-50254445D01*
X177707180Y-49945681D01*
X177970000Y-49552343D01*
X178232821Y-49945681D01*
X178694919Y-50254445D01*
X179240000Y-50362869D01*
X179785082Y-50254445D01*
X180247180Y-49945681D01*
X180510000Y-49552343D01*
X180772821Y-49945681D01*
X181234919Y-50254445D01*
X181780000Y-50362869D01*
X182325082Y-50254445D01*
X182787180Y-49945681D01*
X183050000Y-49552343D01*
X183312821Y-49945681D01*
X183774919Y-50254445D01*
X184320000Y-50362869D01*
X184865082Y-50254445D01*
X185327180Y-49945681D01*
X185590000Y-49552343D01*
X185852821Y-49945681D01*
X186314919Y-50254445D01*
X186860000Y-50362869D01*
X187405082Y-50254445D01*
X187867180Y-49945681D01*
X188130000Y-49552343D01*
X188392821Y-49945681D01*
X188854919Y-50254445D01*
X189400000Y-50362869D01*
X189945082Y-50254445D01*
X190407180Y-49945681D01*
X190715944Y-49483583D01*
X190797000Y-49076089D01*
X190797000Y-47784913D01*
X190715944Y-47377419D01*
X190407179Y-46915321D01*
X189945081Y-46606557D01*
X189400000Y-46498133D01*
X188854918Y-46606557D01*
X188392820Y-46915322D01*
X188130000Y-47308660D01*
X187867179Y-46915321D01*
X187405081Y-46606557D01*
X186860000Y-46498133D01*
X186314918Y-46606557D01*
X185852820Y-46915322D01*
X185590000Y-47308660D01*
X185327179Y-46915321D01*
X184865081Y-46606557D01*
X184320000Y-46498133D01*
X183774918Y-46606557D01*
X183312820Y-46915322D01*
X183050000Y-47308660D01*
X182787179Y-46915321D01*
X182325081Y-46606557D01*
X181780000Y-46498133D01*
X181234918Y-46606557D01*
X180772820Y-46915322D01*
X180510000Y-47308660D01*
X180247179Y-46915321D01*
X179785081Y-46606557D01*
X179240000Y-46498133D01*
X178694918Y-46606557D01*
X178232820Y-46915322D01*
X177970000Y-47308660D01*
X177707179Y-46915321D01*
X177245081Y-46606557D01*
X176700000Y-46498133D01*
X176154918Y-46606557D01*
X175692820Y-46915322D01*
X175430000Y-47308660D01*
X175167179Y-46915321D01*
X174705081Y-46606557D01*
X174160000Y-46498133D01*
X173614918Y-46606557D01*
X173152820Y-46915322D01*
X172890000Y-47308660D01*
X172627179Y-46915321D01*
X172165081Y-46606557D01*
X171620000Y-46498133D01*
X171074918Y-46606557D01*
X170612820Y-46915322D01*
X170304056Y-47377420D01*
X170223000Y-47784914D01*
X168953000Y-47784914D01*
X168953000Y-47784913D01*
X168871944Y-47377419D01*
X168563179Y-46915321D01*
X168101081Y-46606557D01*
X167556000Y-46498133D01*
X167010918Y-46606557D01*
X166548820Y-46915322D01*
X166286000Y-47308660D01*
X166023179Y-46915321D01*
X165561081Y-46606557D01*
X165016000Y-46498133D01*
X164470918Y-46606557D01*
X164008820Y-46915322D01*
X163746000Y-47308660D01*
X163483179Y-46915321D01*
X163021081Y-46606557D01*
X162476000Y-46498133D01*
X161930918Y-46606557D01*
X161468820Y-46915322D01*
X161206000Y-47308660D01*
X160943179Y-46915321D01*
X160481081Y-46606557D01*
X159936000Y-46498133D01*
X159390918Y-46606557D01*
X158928820Y-46915322D01*
X158666000Y-47308660D01*
X158403179Y-46915321D01*
X157941081Y-46606557D01*
X157396000Y-46498133D01*
X156850918Y-46606557D01*
X156388820Y-46915322D01*
X156126000Y-47308660D01*
X155863179Y-46915321D01*
X155401081Y-46606557D01*
X154856000Y-46498133D01*
X154310918Y-46606557D01*
X153848820Y-46915322D01*
X153574420Y-47325991D01*
X153558059Y-47270560D01*
X153214026Y-46844871D01*
X152733277Y-46583241D01*
X152659070Y-46568281D01*
X152443000Y-46690781D01*
X152189000Y-46690781D01*
X151972930Y-46568281D01*
X151898723Y-46583241D01*
X151417974Y-46844871D01*
X151073941Y-47270560D01*
X151057580Y-47325990D01*
X150783179Y-46915321D01*
X150321081Y-46606557D01*
X149776000Y-46498133D01*
X149230918Y-46606557D01*
X148768820Y-46915322D01*
X148460056Y-47377420D01*
X148379000Y-47784914D01*
X143690598Y-47784914D01*
X143347141Y-46955736D01*
X142727605Y-46336200D01*
X190519554Y-46336200D01*
X191511401Y-47328048D01*
X191511400Y-58381216D01*
X191497002Y-58453600D01*
X191511400Y-58525984D01*
X191511400Y-58525987D01*
X191554046Y-58740382D01*
X191716495Y-58983505D01*
X191777865Y-59024511D01*
X194051401Y-61298048D01*
X194051401Y-62099996D01*
X193414765Y-61463360D01*
X192457868Y-61067001D01*
X191422132Y-61067001D01*
X190465235Y-61463360D01*
X189732859Y-62195736D01*
X189336500Y-63152633D01*
X189336500Y-64188369D01*
X189732859Y-65145266D01*
X190465235Y-65877642D01*
X191422132Y-66274001D01*
X192457868Y-66274001D01*
X193414765Y-65877642D01*
X194051401Y-65241006D01*
X194051400Y-90039995D01*
X193414765Y-89403360D01*
X192457868Y-89007001D01*
X191422132Y-89007001D01*
X190465235Y-89403360D01*
X189732859Y-90135736D01*
X189336500Y-91092633D01*
X189336500Y-92128369D01*
X189732859Y-93085266D01*
X190465235Y-93817642D01*
X191422132Y-94214001D01*
X192457868Y-94214001D01*
X193414765Y-93817642D01*
X194051400Y-93181007D01*
X194051400Y-93963153D01*
X191777863Y-96236691D01*
X191716496Y-96277695D01*
X191675492Y-96339062D01*
X191675491Y-96339063D01*
X191554046Y-96520818D01*
X191497002Y-96807600D01*
X191511401Y-96879989D01*
X191511400Y-98765000D01*
X141477407Y-98765000D01*
X142077141Y-98165266D01*
X142473500Y-97208369D01*
X142473500Y-96172633D01*
X142077141Y-95215736D01*
X141344765Y-94483360D01*
X140387868Y-94087001D01*
X139352132Y-94087001D01*
X138395235Y-94483360D01*
X137965000Y-94913595D01*
X137965000Y-71235797D01*
X141294714Y-71235797D01*
X141314990Y-71337732D01*
X141314991Y-74798051D01*
X141294714Y-74899990D01*
X141375042Y-75303826D01*
X141455973Y-75424948D01*
X141603798Y-75646183D01*
X141690215Y-75703925D01*
X142146063Y-76159773D01*
X142203807Y-76246193D01*
X142531275Y-76465000D01*
X142546163Y-76474948D01*
X142672108Y-76500000D01*
X142546163Y-76525052D01*
X142203807Y-76753807D01*
X142146063Y-76840227D01*
X141690215Y-77296075D01*
X141603798Y-77353817D01*
X141546056Y-77440234D01*
X141375042Y-77696174D01*
X141294714Y-78100010D01*
X141314991Y-78201949D01*
X141314990Y-82326496D01*
X141294714Y-82428431D01*
X141314990Y-82530365D01*
X141375042Y-82832267D01*
X141603797Y-83174624D01*
X141690217Y-83232368D01*
X142717634Y-84259786D01*
X142775376Y-84346203D01*
X142963410Y-84471843D01*
X143117732Y-84574958D01*
X143521569Y-84655286D01*
X143623503Y-84635010D01*
X143676944Y-84635010D01*
X143551843Y-84822235D01*
X143502560Y-85070000D01*
X143502560Y-86770000D01*
X143551843Y-87017765D01*
X143692191Y-87227809D01*
X143902235Y-87368157D01*
X143947619Y-87377184D01*
X143929375Y-87389375D01*
X143601161Y-87880582D01*
X143485908Y-88460000D01*
X143601161Y-89039418D01*
X143929375Y-89530625D01*
X144227761Y-89730000D01*
X143929375Y-89929375D01*
X143601161Y-90420582D01*
X143485908Y-91000000D01*
X143601161Y-91579418D01*
X143929375Y-92070625D01*
X144420582Y-92398839D01*
X144853744Y-92485000D01*
X145146256Y-92485000D01*
X145579418Y-92398839D01*
X146070625Y-92070625D01*
X146271353Y-91770214D01*
X146658642Y-92195183D01*
X147183108Y-92441486D01*
X147413000Y-92320819D01*
X147413000Y-91127000D01*
X147667000Y-91127000D01*
X147667000Y-92320819D01*
X147896892Y-92441486D01*
X148421358Y-92195183D01*
X148592176Y-92007745D01*
X154671861Y-92007745D01*
X154745995Y-92253864D01*
X155283223Y-92446965D01*
X155853454Y-92419778D01*
X156254005Y-92253864D01*
X156328139Y-92007745D01*
X155500000Y-91179605D01*
X154671861Y-92007745D01*
X148592176Y-92007745D01*
X148811645Y-91766924D01*
X148981476Y-91356890D01*
X148860155Y-91127000D01*
X147667000Y-91127000D01*
X147413000Y-91127000D01*
X147393000Y-91127000D01*
X147393000Y-90873000D01*
X147413000Y-90873000D01*
X147413000Y-90853000D01*
X147667000Y-90853000D01*
X147667000Y-90873000D01*
X148860155Y-90873000D01*
X148981476Y-90643110D01*
X148811645Y-90233076D01*
X148421358Y-89804817D01*
X148291522Y-89743843D01*
X148610625Y-89530625D01*
X148938839Y-89039418D01*
X148978138Y-88841849D01*
X150096064Y-89959775D01*
X150153806Y-90046192D01*
X150240222Y-90103933D01*
X150496162Y-90274947D01*
X150899998Y-90355275D01*
X151001933Y-90334999D01*
X154214144Y-90334999D01*
X154053035Y-90783223D01*
X154080222Y-91353454D01*
X154246136Y-91754005D01*
X154492255Y-91828139D01*
X155320395Y-91000000D01*
X155306252Y-90985858D01*
X155485858Y-90806252D01*
X155500000Y-90820395D01*
X155514142Y-90806252D01*
X155693748Y-90985858D01*
X155679605Y-91000000D01*
X156507745Y-91828139D01*
X156555307Y-91813813D01*
X156601843Y-92047765D01*
X156742191Y-92257809D01*
X156952235Y-92398157D01*
X157200000Y-92447440D01*
X157265001Y-92447440D01*
X157265001Y-92498061D01*
X157244724Y-92600000D01*
X157325052Y-93003836D01*
X157325053Y-93003837D01*
X157553808Y-93346193D01*
X157640225Y-93403935D01*
X158565000Y-94328711D01*
X158565000Y-94828747D01*
X158374918Y-94866557D01*
X157912820Y-95175322D01*
X157604056Y-95637420D01*
X157523000Y-96044914D01*
X157523000Y-97336089D01*
X157604056Y-97743583D01*
X157912821Y-98205681D01*
X158374919Y-98514445D01*
X158920000Y-98622869D01*
X159465082Y-98514445D01*
X159927180Y-98205681D01*
X160190000Y-97812343D01*
X160452821Y-98205681D01*
X160914919Y-98514445D01*
X161460000Y-98622869D01*
X162005082Y-98514445D01*
X162467180Y-98205681D01*
X162730000Y-97812343D01*
X162992821Y-98205681D01*
X163454919Y-98514445D01*
X164000000Y-98622869D01*
X164545082Y-98514445D01*
X165007180Y-98205681D01*
X165281580Y-97795012D01*
X165297941Y-97850442D01*
X165641974Y-98276131D01*
X166122723Y-98537761D01*
X166196930Y-98552721D01*
X166413000Y-98430221D01*
X166413000Y-96817501D01*
X166667000Y-96817501D01*
X166667000Y-98430221D01*
X166883070Y-98552721D01*
X166957277Y-98537761D01*
X167438026Y-98276131D01*
X167782059Y-97850442D01*
X167810000Y-97755778D01*
X167837941Y-97850442D01*
X168181974Y-98276131D01*
X168662723Y-98537761D01*
X168736930Y-98552721D01*
X168953000Y-98430221D01*
X168953000Y-96817501D01*
X166667000Y-96817501D01*
X166413000Y-96817501D01*
X166393000Y-96817501D01*
X166393000Y-96563501D01*
X166413000Y-96563501D01*
X166413000Y-94950781D01*
X166667000Y-94950781D01*
X166667000Y-96563501D01*
X168953000Y-96563501D01*
X168953000Y-94950781D01*
X169207000Y-94950781D01*
X169207000Y-96563501D01*
X169227000Y-96563501D01*
X169227000Y-96817501D01*
X169207000Y-96817501D01*
X169207000Y-98430221D01*
X169423070Y-98552721D01*
X169497277Y-98537761D01*
X169978026Y-98276131D01*
X170322059Y-97850442D01*
X170338420Y-97795012D01*
X170612821Y-98205681D01*
X171074919Y-98514445D01*
X171620000Y-98622869D01*
X172165082Y-98514445D01*
X172627180Y-98205681D01*
X172935944Y-97743583D01*
X173017000Y-97336089D01*
X173017000Y-96044914D01*
X175303000Y-96044914D01*
X175303000Y-97336089D01*
X175384056Y-97743583D01*
X175692821Y-98205681D01*
X176154919Y-98514445D01*
X176700000Y-98622869D01*
X177245082Y-98514445D01*
X177707180Y-98205681D01*
X177970000Y-97812343D01*
X178232821Y-98205681D01*
X178694919Y-98514445D01*
X179240000Y-98622869D01*
X179785082Y-98514445D01*
X180247180Y-98205681D01*
X180510000Y-97812343D01*
X180772821Y-98205681D01*
X181234919Y-98514445D01*
X181780000Y-98622869D01*
X182325082Y-98514445D01*
X182787180Y-98205681D01*
X183050000Y-97812343D01*
X183312821Y-98205681D01*
X183774919Y-98514445D01*
X184320000Y-98622869D01*
X184865082Y-98514445D01*
X185327180Y-98205681D01*
X185590000Y-97812343D01*
X185852821Y-98205681D01*
X186314919Y-98514445D01*
X186860000Y-98622869D01*
X187405082Y-98514445D01*
X187867180Y-98205681D01*
X188130000Y-97812343D01*
X188392821Y-98205681D01*
X188854919Y-98514445D01*
X189400000Y-98622869D01*
X189945082Y-98514445D01*
X190407180Y-98205681D01*
X190715944Y-97743583D01*
X190797000Y-97336089D01*
X190797000Y-96044913D01*
X190715944Y-95637419D01*
X190407179Y-95175321D01*
X189945081Y-94866557D01*
X189400000Y-94758133D01*
X188854918Y-94866557D01*
X188392820Y-95175322D01*
X188130000Y-95568660D01*
X187867179Y-95175321D01*
X187405081Y-94866557D01*
X186860000Y-94758133D01*
X186314918Y-94866557D01*
X185852820Y-95175322D01*
X185590000Y-95568660D01*
X185327179Y-95175321D01*
X184865081Y-94866557D01*
X184320000Y-94758133D01*
X183774918Y-94866557D01*
X183312820Y-95175322D01*
X183050000Y-95568660D01*
X182787179Y-95175321D01*
X182325081Y-94866557D01*
X181780000Y-94758133D01*
X181234918Y-94866557D01*
X180772820Y-95175322D01*
X180510000Y-95568660D01*
X180247179Y-95175321D01*
X179785081Y-94866557D01*
X179240000Y-94758133D01*
X178694918Y-94866557D01*
X178232820Y-95175322D01*
X177970000Y-95568660D01*
X177707179Y-95175321D01*
X177245081Y-94866557D01*
X176700000Y-94758133D01*
X176154918Y-94866557D01*
X175692820Y-95175322D01*
X175384056Y-95637420D01*
X175303000Y-96044914D01*
X173017000Y-96044914D01*
X173017000Y-96044913D01*
X172935944Y-95637419D01*
X172627179Y-95175321D01*
X172165081Y-94866557D01*
X171620000Y-94758133D01*
X171074918Y-94866557D01*
X170612820Y-95175322D01*
X170338420Y-95585991D01*
X170322059Y-95530560D01*
X169978026Y-95104871D01*
X169497277Y-94843241D01*
X169423070Y-94828281D01*
X169207000Y-94950781D01*
X168953000Y-94950781D01*
X168736930Y-94828281D01*
X168662723Y-94843241D01*
X168181974Y-95104871D01*
X167837941Y-95530560D01*
X167810000Y-95625224D01*
X167782059Y-95530560D01*
X167438026Y-95104871D01*
X166957277Y-94843241D01*
X166883070Y-94828281D01*
X166667000Y-94950781D01*
X166413000Y-94950781D01*
X166196930Y-94828281D01*
X166122723Y-94843241D01*
X165641974Y-95104871D01*
X165297941Y-95530560D01*
X165281580Y-95585990D01*
X165007179Y-95175321D01*
X164545081Y-94866557D01*
X164000000Y-94758133D01*
X163934811Y-94771100D01*
X160735001Y-91571291D01*
X160735001Y-89581928D01*
X160755276Y-89479998D01*
X160735001Y-89378069D01*
X160735001Y-89378064D01*
X160674949Y-89076162D01*
X160446194Y-88733806D01*
X160359774Y-88676062D01*
X160323938Y-88640226D01*
X160266194Y-88553806D01*
X159923838Y-88325051D01*
X159621936Y-88264999D01*
X159621935Y-88264999D01*
X159520001Y-88244723D01*
X159418067Y-88264999D01*
X151328710Y-88264999D01*
X149042415Y-85978705D01*
X149054092Y-85920000D01*
X148938839Y-85340582D01*
X148610625Y-84849375D01*
X148575000Y-84825571D01*
X148575000Y-84819853D01*
X148586905Y-84760000D01*
X177574724Y-84760000D01*
X177595001Y-84861939D01*
X177595000Y-85748067D01*
X177574724Y-85850002D01*
X177595000Y-85951936D01*
X177655052Y-86253838D01*
X177883807Y-86596195D01*
X177970227Y-86653939D01*
X178726064Y-87409777D01*
X178783806Y-87496194D01*
X178870222Y-87553935D01*
X179126162Y-87724949D01*
X179529999Y-87805277D01*
X179631933Y-87785001D01*
X186198067Y-87785001D01*
X186300001Y-87805277D01*
X186401935Y-87785001D01*
X186401936Y-87785001D01*
X186703838Y-87724949D01*
X187046194Y-87496194D01*
X187103938Y-87409774D01*
X188016273Y-86497440D01*
X188850000Y-86497440D01*
X189097765Y-86448157D01*
X189307809Y-86307809D01*
X189448157Y-86097765D01*
X189497440Y-85850000D01*
X189497440Y-84150000D01*
X189448157Y-83902235D01*
X189307809Y-83692191D01*
X189097765Y-83551843D01*
X188850000Y-83502560D01*
X187150000Y-83502560D01*
X186902235Y-83551843D01*
X186692191Y-83692191D01*
X186551843Y-83902235D01*
X186542816Y-83947619D01*
X186530625Y-83929375D01*
X186039418Y-83601161D01*
X185606256Y-83515000D01*
X185313744Y-83515000D01*
X184880582Y-83601161D01*
X184389375Y-83929375D01*
X184365571Y-83965000D01*
X181723277Y-83965000D01*
X181607809Y-83792191D01*
X181397765Y-83651843D01*
X181150000Y-83602560D01*
X180150000Y-83602560D01*
X180000000Y-83632397D01*
X179850000Y-83602560D01*
X178850000Y-83602560D01*
X178602235Y-83651843D01*
X178477779Y-83735003D01*
X178226164Y-83785052D01*
X177883808Y-84013807D01*
X177792807Y-84150000D01*
X177655052Y-84356164D01*
X177574724Y-84760000D01*
X148586905Y-84760000D01*
X148595276Y-84717918D01*
X148514948Y-84314082D01*
X148498655Y-84289698D01*
X148286193Y-83971726D01*
X148199776Y-83913984D01*
X147226028Y-82940237D01*
X147168284Y-82853817D01*
X146982042Y-82729374D01*
X147284334Y-82276963D01*
X147418990Y-81600000D01*
X147284334Y-80923037D01*
X146900865Y-80349135D01*
X146691724Y-80209392D01*
X146804641Y-80040400D01*
X146818559Y-79970431D01*
X146929649Y-79896203D01*
X146987393Y-79809783D01*
X148459776Y-78337401D01*
X148546193Y-78279659D01*
X148774948Y-77937303D01*
X148835000Y-77635401D01*
X148835000Y-77635396D01*
X148855275Y-77533467D01*
X148835000Y-77431537D01*
X148835000Y-72128710D01*
X149328710Y-71635000D01*
X149825222Y-71635000D01*
X150426153Y-71386086D01*
X150777239Y-71035000D01*
X150971290Y-71035000D01*
X150996063Y-71059773D01*
X151053807Y-71146193D01*
X151396163Y-71374948D01*
X151698065Y-71435000D01*
X151698070Y-71435000D01*
X151799999Y-71455275D01*
X151901929Y-71435000D01*
X154175428Y-71435000D01*
X155508772Y-72768345D01*
X155566514Y-72854762D01*
X155908870Y-73083517D01*
X156210772Y-73143569D01*
X156210777Y-73143569D01*
X156312706Y-73163844D01*
X156414636Y-73143569D01*
X156611141Y-73143569D01*
X156878131Y-73543146D01*
X157352799Y-73860309D01*
X157912707Y-73971682D01*
X158472616Y-73860309D01*
X158947284Y-73543146D01*
X159182707Y-73190810D01*
X159418131Y-73543146D01*
X159892799Y-73860309D01*
X160452707Y-73971682D01*
X161012616Y-73860309D01*
X161487284Y-73543146D01*
X161722707Y-73190810D01*
X161958131Y-73543146D01*
X162432799Y-73860309D01*
X162992707Y-73971682D01*
X163552616Y-73860309D01*
X164027284Y-73543146D01*
X164262707Y-73190810D01*
X164498131Y-73543146D01*
X164972799Y-73860309D01*
X165532707Y-73971682D01*
X166092616Y-73860309D01*
X166567284Y-73543146D01*
X166884447Y-73068478D01*
X166967707Y-72649901D01*
X166967707Y-71567236D01*
X166884447Y-71148660D01*
X166567707Y-70674627D01*
X166567707Y-69927380D01*
X166609232Y-69899634D01*
X166937446Y-69408427D01*
X167052699Y-68829009D01*
X166937446Y-68249591D01*
X166609232Y-67758384D01*
X166118025Y-67430170D01*
X165684863Y-67344009D01*
X165392351Y-67344009D01*
X164959189Y-67430170D01*
X164467982Y-67758384D01*
X164268607Y-68056770D01*
X164069232Y-67758384D01*
X163578025Y-67430170D01*
X163144863Y-67344009D01*
X162852351Y-67344009D01*
X162419189Y-67430170D01*
X161927982Y-67758384D01*
X161728607Y-68056770D01*
X161529232Y-67758384D01*
X161038025Y-67430170D01*
X160604863Y-67344009D01*
X160312351Y-67344009D01*
X159879189Y-67430170D01*
X159387982Y-67758384D01*
X159375791Y-67776628D01*
X159366764Y-67731244D01*
X159226416Y-67521200D01*
X159016372Y-67380852D01*
X158768607Y-67331569D01*
X157068607Y-67331569D01*
X156820842Y-67380852D01*
X156610798Y-67521200D01*
X156470450Y-67731244D01*
X156457965Y-67794009D01*
X153057720Y-67794009D01*
X152435001Y-67171291D01*
X152435001Y-62689933D01*
X152455277Y-62587999D01*
X152374949Y-62184162D01*
X152316151Y-62096165D01*
X152146194Y-61841806D01*
X152059777Y-61784064D01*
X151215938Y-60940226D01*
X151158194Y-60853806D01*
X150815838Y-60625051D01*
X150513936Y-60564999D01*
X150513935Y-60564999D01*
X150412001Y-60544723D01*
X150310067Y-60564999D01*
X148689933Y-60564999D01*
X148587998Y-60544723D01*
X148486064Y-60564999D01*
X148184162Y-60625051D01*
X147841806Y-60853806D01*
X147784064Y-60940223D01*
X147259287Y-61465001D01*
X146101933Y-61465001D01*
X145999998Y-61444725D01*
X145898064Y-61465001D01*
X145596162Y-61525053D01*
X145253806Y-61753808D01*
X145196064Y-61840225D01*
X145171289Y-61865000D01*
X144674778Y-61865000D01*
X144073847Y-62113914D01*
X143613914Y-62573847D01*
X143365000Y-63174778D01*
X143365000Y-63825222D01*
X143613914Y-64426153D01*
X143965000Y-64777239D01*
X143965001Y-68722760D01*
X143722761Y-68965000D01*
X143687721Y-68965000D01*
X143585787Y-68944724D01*
X143483852Y-68965000D01*
X143181950Y-69025052D01*
X142839594Y-69253807D01*
X142781853Y-69340223D01*
X141690217Y-70431860D01*
X141603797Y-70489604D01*
X141393834Y-70803837D01*
X141375042Y-70831961D01*
X141294714Y-71235797D01*
X137965000Y-71235797D01*
X137965000Y-46336200D01*
X139552395Y-46336200D01*
X138932859Y-46955736D01*
X138932859Y-46955736D01*
G37*
X138932859Y-46955736D02*
X138536500Y-47912633D01*
X138536500Y-48948369D01*
X138932859Y-49905266D01*
X139665235Y-50637642D01*
X140622132Y-51034001D01*
X141657868Y-51034001D01*
X142614765Y-50637642D01*
X143347141Y-49905266D01*
X143743500Y-48948369D01*
X143743500Y-47912633D01*
X143690598Y-47784914D01*
X148379000Y-47784914D01*
X148379000Y-49076089D01*
X148460056Y-49483583D01*
X148768821Y-49945681D01*
X149230919Y-50254445D01*
X149776000Y-50362869D01*
X150321082Y-50254445D01*
X150783180Y-49945681D01*
X151057580Y-49535012D01*
X151073941Y-49590442D01*
X151417974Y-50016131D01*
X151898723Y-50277761D01*
X151972930Y-50292721D01*
X152189000Y-50170221D01*
X152189000Y-48557501D01*
X152169000Y-48557501D01*
X152169000Y-48303501D01*
X152189000Y-48303501D01*
X152189000Y-46690781D01*
X152443000Y-46690781D01*
X152443000Y-48303501D01*
X152463000Y-48303501D01*
X152463000Y-48557501D01*
X152443000Y-48557501D01*
X152443000Y-50170221D01*
X152659070Y-50292721D01*
X152733277Y-50277761D01*
X153214026Y-50016131D01*
X153558059Y-49590442D01*
X153574420Y-49535012D01*
X153848821Y-49945681D01*
X154310919Y-50254445D01*
X154856000Y-50362869D01*
X155401082Y-50254445D01*
X155863180Y-49945681D01*
X156126000Y-49552343D01*
X156361000Y-49904044D01*
X156361001Y-55334061D01*
X156340724Y-55436000D01*
X156421052Y-55839836D01*
X156421053Y-55839837D01*
X156649808Y-56182193D01*
X156736225Y-56239935D01*
X157754546Y-57258257D01*
X157889797Y-57460674D01*
X157976216Y-57518417D01*
X176900211Y-76442413D01*
X176894723Y-76470001D01*
X176914999Y-76571935D01*
X176914999Y-76571936D01*
X176975051Y-76873838D01*
X177203807Y-77216194D01*
X177290224Y-77273936D01*
X177326062Y-77309774D01*
X177383806Y-77396194D01*
X177474600Y-77456861D01*
X177474601Y-79108061D01*
X177454324Y-79210000D01*
X177534652Y-79613836D01*
X177696173Y-79855569D01*
X177763408Y-79956193D01*
X177849824Y-80013934D01*
X178202560Y-80366671D01*
X178202560Y-80715001D01*
X171667007Y-80715001D01*
X167702232Y-76750227D01*
X167644488Y-76663807D01*
X167302132Y-76435052D01*
X167000230Y-76375000D01*
X167000229Y-76375000D01*
X166898295Y-76354724D01*
X166796361Y-76375000D01*
X158333210Y-76375000D01*
X158231276Y-76354724D01*
X158129342Y-76375000D01*
X158129341Y-76375000D01*
X157827439Y-76435052D01*
X157485083Y-76663807D01*
X157427339Y-76750227D01*
X157252932Y-76924634D01*
X157166515Y-76982376D01*
X157108773Y-77068793D01*
X156937759Y-77324733D01*
X156857431Y-77728569D01*
X156877708Y-77830508D01*
X156877708Y-77927873D01*
X156864942Y-77930412D01*
X156654898Y-78070760D01*
X156514550Y-78280804D01*
X156465267Y-78528569D01*
X156465267Y-80928569D01*
X156514550Y-81176334D01*
X156654898Y-81386378D01*
X156864942Y-81526726D01*
X156865583Y-81526853D01*
X156831002Y-81533732D01*
X156620958Y-81674080D01*
X156480610Y-81884124D01*
X156431327Y-82131889D01*
X156431327Y-83831889D01*
X156480610Y-84079654D01*
X156620958Y-84289698D01*
X156831002Y-84430046D01*
X157078767Y-84479329D01*
X158778767Y-84479329D01*
X159026532Y-84430046D01*
X159236576Y-84289698D01*
X159376924Y-84079654D01*
X159385951Y-84034270D01*
X159398142Y-84052514D01*
X159889349Y-84380728D01*
X160322511Y-84466889D01*
X160615023Y-84466889D01*
X161048185Y-84380728D01*
X161539392Y-84052514D01*
X161738767Y-83754128D01*
X161938142Y-84052514D01*
X162429349Y-84380728D01*
X162862511Y-84466889D01*
X163155023Y-84466889D01*
X163588185Y-84380728D01*
X164079392Y-84052514D01*
X164292610Y-83733411D01*
X164353584Y-83863247D01*
X164781843Y-84253534D01*
X165191877Y-84423365D01*
X165421767Y-84302044D01*
X165421767Y-83108889D01*
X165675767Y-83108889D01*
X165675767Y-84302044D01*
X165905657Y-84423365D01*
X166315691Y-84253534D01*
X166743950Y-83863247D01*
X166990253Y-83338781D01*
X166869586Y-83108889D01*
X165675767Y-83108889D01*
X165421767Y-83108889D01*
X165401767Y-83108889D01*
X165401767Y-82854889D01*
X165421767Y-82854889D01*
X165421767Y-81661734D01*
X165675767Y-81661734D01*
X165675767Y-82854889D01*
X166869586Y-82854889D01*
X166990253Y-82624997D01*
X166743950Y-82100531D01*
X166315691Y-81710244D01*
X165905657Y-81540413D01*
X165675767Y-81661734D01*
X165421767Y-81661734D01*
X165191877Y-81540413D01*
X164781843Y-81710244D01*
X164353584Y-82100531D01*
X164292610Y-82230367D01*
X164079392Y-81911264D01*
X164043767Y-81887460D01*
X164043767Y-81138477D01*
X164265206Y-80807070D01*
X164607811Y-81233069D01*
X165100888Y-81502936D01*
X165183668Y-81520473D01*
X165405707Y-81398484D01*
X165405707Y-79855569D01*
X165659707Y-79855569D01*
X165659707Y-81398484D01*
X165881746Y-81520473D01*
X165964526Y-81502936D01*
X166457603Y-81233069D01*
X166809873Y-80795052D01*
X166967707Y-80255569D01*
X166967707Y-79855569D01*
X165659707Y-79855569D01*
X165405707Y-79855569D01*
X165385707Y-79855569D01*
X165385707Y-79601569D01*
X165405707Y-79601569D01*
X165405707Y-79581569D01*
X165659707Y-79581569D01*
X165659707Y-79601569D01*
X166967707Y-79601569D01*
X166967707Y-79201569D01*
X166860824Y-78836239D01*
X170434361Y-82409777D01*
X170492103Y-82496194D01*
X170834459Y-82724949D01*
X171238295Y-82805277D01*
X171340230Y-82785001D01*
X189468067Y-82785001D01*
X189570001Y-82805277D01*
X189671935Y-82785001D01*
X189671936Y-82785001D01*
X189973838Y-82724949D01*
X190316194Y-82496194D01*
X190373938Y-82409774D01*
X190409774Y-82373938D01*
X190496194Y-82316194D01*
X190724949Y-81973838D01*
X190785001Y-81671936D01*
X190785001Y-81671931D01*
X190805276Y-81570002D01*
X190785001Y-81468072D01*
X190785001Y-73531933D01*
X190805277Y-73429999D01*
X190724949Y-73026162D01*
X190553935Y-72770222D01*
X190496194Y-72683806D01*
X190409777Y-72626064D01*
X189178154Y-71394442D01*
X189307809Y-71307809D01*
X189448157Y-71097765D01*
X189497440Y-70850000D01*
X189497440Y-69150000D01*
X189448157Y-68902235D01*
X189307809Y-68692191D01*
X189097765Y-68551843D01*
X189035000Y-68539358D01*
X189035000Y-68451934D01*
X189055276Y-68350000D01*
X189019319Y-68169232D01*
X188974948Y-67946163D01*
X188746193Y-67603807D01*
X188686247Y-67563752D01*
X188646192Y-67503806D01*
X188303836Y-67275051D01*
X188001934Y-67214999D01*
X188001933Y-67214999D01*
X187899999Y-67194723D01*
X187798065Y-67214999D01*
X179631933Y-67214999D01*
X179529999Y-67194723D01*
X179428064Y-67214999D01*
X179126162Y-67275051D01*
X178783806Y-67503806D01*
X178726064Y-67590223D01*
X178060227Y-68256061D01*
X177973807Y-68313805D01*
X177780868Y-68602560D01*
X177745052Y-68656162D01*
X177683620Y-68965000D01*
X177078711Y-68965000D01*
X163511000Y-55397290D01*
X163511000Y-49904045D01*
X163746000Y-49552343D01*
X163981000Y-49904045D01*
X163981000Y-50602435D01*
X163981001Y-50602440D01*
X163981000Y-52254065D01*
X163960724Y-52356000D01*
X163981000Y-52457934D01*
X164041052Y-52759836D01*
X164269807Y-53102193D01*
X164356227Y-53159937D01*
X174856065Y-63659776D01*
X174913807Y-63746193D01*
X175256163Y-63974948D01*
X175368323Y-63997258D01*
X175442191Y-64107809D01*
X175652235Y-64248157D01*
X175900000Y-64297440D01*
X177400000Y-64297440D01*
X177647765Y-64248157D01*
X177857809Y-64107809D01*
X177998157Y-63897765D01*
X178000000Y-63888500D01*
X178001843Y-63897765D01*
X178142191Y-64107809D01*
X178352235Y-64248157D01*
X178600000Y-64297440D01*
X180100000Y-64297440D01*
X180347765Y-64248157D01*
X180557809Y-64107809D01*
X180606459Y-64035000D01*
X183393541Y-64035000D01*
X183442191Y-64107809D01*
X183652235Y-64248157D01*
X183900000Y-64297440D01*
X185400000Y-64297440D01*
X185647765Y-64248157D01*
X185857809Y-64107809D01*
X185998157Y-63897765D01*
X186003721Y-63869791D01*
X186061673Y-64009699D01*
X186240302Y-64188327D01*
X186473691Y-64285000D01*
X187064250Y-64285000D01*
X187223000Y-64126250D01*
X187223000Y-63127000D01*
X187477000Y-63127000D01*
X187477000Y-64126250D01*
X187635750Y-64285000D01*
X188226309Y-64285000D01*
X188459698Y-64188327D01*
X188638327Y-64009699D01*
X188735000Y-63776310D01*
X188735000Y-63285750D01*
X188576250Y-63127000D01*
X187477000Y-63127000D01*
X187223000Y-63127000D01*
X187203000Y-63127000D01*
X187203000Y-62873000D01*
X187223000Y-62873000D01*
X187223000Y-61873750D01*
X187477000Y-61873750D01*
X187477000Y-62873000D01*
X188576250Y-62873000D01*
X188735000Y-62714250D01*
X188735000Y-62223690D01*
X188638327Y-61990301D01*
X188459698Y-61811673D01*
X188226309Y-61715000D01*
X187635750Y-61715000D01*
X187477000Y-61873750D01*
X187223000Y-61873750D01*
X187064250Y-61715000D01*
X186473691Y-61715000D01*
X186240302Y-61811673D01*
X186061673Y-61990301D01*
X186003721Y-62130209D01*
X185998157Y-62102235D01*
X185857809Y-61892191D01*
X185647765Y-61751843D01*
X185400000Y-61702560D01*
X183900000Y-61702560D01*
X183652235Y-61751843D01*
X183442191Y-61892191D01*
X183393541Y-61965000D01*
X180606459Y-61965000D01*
X180557809Y-61892191D01*
X180347765Y-61751843D01*
X180100000Y-61702560D01*
X178600000Y-61702560D01*
X178352235Y-61751843D01*
X178142191Y-61892191D01*
X178001843Y-62102235D01*
X178000000Y-62111500D01*
X177998157Y-62102235D01*
X177857809Y-61892191D01*
X177647765Y-61751843D01*
X177400000Y-61702560D01*
X175900000Y-61702560D01*
X175838503Y-61714792D01*
X166051000Y-51927290D01*
X166051000Y-49904045D01*
X166286000Y-49552343D01*
X166521000Y-49904045D01*
X166521000Y-50402405D01*
X166500724Y-50504340D01*
X166521000Y-50606274D01*
X166581052Y-50908176D01*
X166809807Y-51250533D01*
X166896227Y-51308277D01*
X174247725Y-58659776D01*
X174305467Y-58746193D01*
X174568786Y-58922137D01*
X174647823Y-58974948D01*
X175051659Y-59055276D01*
X175153594Y-59035000D01*
X175393541Y-59035000D01*
X175442191Y-59107809D01*
X175652235Y-59248157D01*
X175900000Y-59297440D01*
X177400000Y-59297440D01*
X177647765Y-59248157D01*
X177857809Y-59107809D01*
X177998157Y-58897765D01*
X178000000Y-58888500D01*
X178001843Y-58897765D01*
X178142191Y-59107809D01*
X178352235Y-59248157D01*
X178600000Y-59297440D01*
X180100000Y-59297440D01*
X180347765Y-59248157D01*
X180557809Y-59107809D01*
X180606459Y-59035000D01*
X183393541Y-59035000D01*
X183442191Y-59107809D01*
X183652235Y-59248157D01*
X183900000Y-59297440D01*
X185400000Y-59297440D01*
X185647765Y-59248157D01*
X185857809Y-59107809D01*
X185998157Y-58897765D01*
X186003721Y-58869791D01*
X186061673Y-59009699D01*
X186240302Y-59188327D01*
X186473691Y-59285000D01*
X187064250Y-59285000D01*
X187223000Y-59126250D01*
X187223000Y-58127000D01*
X187477000Y-58127000D01*
X187477000Y-59126250D01*
X187635750Y-59285000D01*
X188226309Y-59285000D01*
X188459698Y-59188327D01*
X188638327Y-59009699D01*
X188735000Y-58776310D01*
X188735000Y-58285750D01*
X188576250Y-58127000D01*
X187477000Y-58127000D01*
X187223000Y-58127000D01*
X187203000Y-58127000D01*
X187203000Y-57873000D01*
X187223000Y-57873000D01*
X187223000Y-56873750D01*
X187477000Y-56873750D01*
X187477000Y-57873000D01*
X188576250Y-57873000D01*
X188735000Y-57714250D01*
X188735000Y-57223690D01*
X188638327Y-56990301D01*
X188459698Y-56811673D01*
X188226309Y-56715000D01*
X187635750Y-56715000D01*
X187477000Y-56873750D01*
X187223000Y-56873750D01*
X187064250Y-56715000D01*
X186473691Y-56715000D01*
X186240302Y-56811673D01*
X186061673Y-56990301D01*
X186003721Y-57130209D01*
X185998157Y-57102235D01*
X185857809Y-56892191D01*
X185647765Y-56751843D01*
X185400000Y-56702560D01*
X183900000Y-56702560D01*
X183652235Y-56751843D01*
X183442191Y-56892191D01*
X183393541Y-56965000D01*
X180606459Y-56965000D01*
X180557809Y-56892191D01*
X180347765Y-56751843D01*
X180100000Y-56702560D01*
X178600000Y-56702560D01*
X178352235Y-56751843D01*
X178142191Y-56892191D01*
X178001843Y-57102235D01*
X178000000Y-57111500D01*
X177998157Y-57102235D01*
X177857809Y-56892191D01*
X177647765Y-56751843D01*
X177400000Y-56702560D01*
X175900000Y-56702560D01*
X175652235Y-56751843D01*
X175442191Y-56892191D01*
X175428320Y-56912950D01*
X168591000Y-50075630D01*
X168591000Y-49904045D01*
X168871944Y-49483583D01*
X168953000Y-49076089D01*
X168953000Y-47784914D01*
X170223000Y-47784914D01*
X170223000Y-49076089D01*
X170304056Y-49483583D01*
X170585000Y-49904044D01*
X170585000Y-50318065D01*
X170564724Y-50420000D01*
X170585000Y-50521934D01*
X170645052Y-50823836D01*
X170873807Y-51166193D01*
X170960227Y-51223937D01*
X173396065Y-53659776D01*
X173453807Y-53746193D01*
X173796163Y-53974948D01*
X174200000Y-54055276D01*
X174301934Y-54035000D01*
X175393541Y-54035000D01*
X175442191Y-54107809D01*
X175652235Y-54248157D01*
X175900000Y-54297440D01*
X177400000Y-54297440D01*
X177647765Y-54248157D01*
X177857809Y-54107809D01*
X177998157Y-53897765D01*
X178000000Y-53888500D01*
X178001843Y-53897765D01*
X178142191Y-54107809D01*
X178352235Y-54248157D01*
X178600000Y-54297440D01*
X180100000Y-54297440D01*
X180347765Y-54248157D01*
X180557809Y-54107809D01*
X180606459Y-54035000D01*
X183393541Y-54035000D01*
X183442191Y-54107809D01*
X183652235Y-54248157D01*
X183900000Y-54297440D01*
X185400000Y-54297440D01*
X185647765Y-54248157D01*
X185857809Y-54107809D01*
X185998157Y-53897765D01*
X186003721Y-53869791D01*
X186061673Y-54009699D01*
X186240302Y-54188327D01*
X186473691Y-54285000D01*
X187064250Y-54285000D01*
X187223000Y-54126250D01*
X187223000Y-53127000D01*
X187477000Y-53127000D01*
X187477000Y-54126250D01*
X187635750Y-54285000D01*
X188226309Y-54285000D01*
X188459698Y-54188327D01*
X188638327Y-54009699D01*
X188735000Y-53776310D01*
X188735000Y-53285750D01*
X188576250Y-53127000D01*
X187477000Y-53127000D01*
X187223000Y-53127000D01*
X187203000Y-53127000D01*
X187203000Y-52873000D01*
X187223000Y-52873000D01*
X187223000Y-51873750D01*
X187477000Y-51873750D01*
X187477000Y-52873000D01*
X188576250Y-52873000D01*
X188735000Y-52714250D01*
X188735000Y-52223690D01*
X188638327Y-51990301D01*
X188459698Y-51811673D01*
X188226309Y-51715000D01*
X187635750Y-51715000D01*
X187477000Y-51873750D01*
X187223000Y-51873750D01*
X187064250Y-51715000D01*
X186473691Y-51715000D01*
X186240302Y-51811673D01*
X186061673Y-51990301D01*
X186003721Y-52130209D01*
X185998157Y-52102235D01*
X185857809Y-51892191D01*
X185647765Y-51751843D01*
X185400000Y-51702560D01*
X183900000Y-51702560D01*
X183652235Y-51751843D01*
X183442191Y-51892191D01*
X183393541Y-51965000D01*
X180606459Y-51965000D01*
X180557809Y-51892191D01*
X180347765Y-51751843D01*
X180100000Y-51702560D01*
X178600000Y-51702560D01*
X178352235Y-51751843D01*
X178142191Y-51892191D01*
X178001843Y-52102235D01*
X178000000Y-52111500D01*
X177998157Y-52102235D01*
X177857809Y-51892191D01*
X177647765Y-51751843D01*
X177400000Y-51702560D01*
X175900000Y-51702560D01*
X175652235Y-51751843D01*
X175442191Y-51892191D01*
X175393541Y-51965000D01*
X174628711Y-51965000D01*
X172655000Y-49991290D01*
X172655000Y-49904045D01*
X172890000Y-49552343D01*
X173152821Y-49945681D01*
X173614919Y-50254445D01*
X174160000Y-50362869D01*
X174705082Y-50254445D01*
X175167180Y-49945681D01*
X175430000Y-49552343D01*
X175692821Y-49945681D01*
X176154919Y-50254445D01*
X176700000Y-50362869D01*
X177245082Y-50254445D01*
X177707180Y-49945681D01*
X177970000Y-49552343D01*
X178232821Y-49945681D01*
X178694919Y-50254445D01*
X179240000Y-50362869D01*
X179785082Y-50254445D01*
X180247180Y-49945681D01*
X180510000Y-49552343D01*
X180772821Y-49945681D01*
X181234919Y-50254445D01*
X181780000Y-50362869D01*
X182325082Y-50254445D01*
X182787180Y-49945681D01*
X183050000Y-49552343D01*
X183312821Y-49945681D01*
X183774919Y-50254445D01*
X184320000Y-50362869D01*
X184865082Y-50254445D01*
X185327180Y-49945681D01*
X185590000Y-49552343D01*
X185852821Y-49945681D01*
X186314919Y-50254445D01*
X186860000Y-50362869D01*
X187405082Y-50254445D01*
X187867180Y-49945681D01*
X188130000Y-49552343D01*
X188392821Y-49945681D01*
X188854919Y-50254445D01*
X189400000Y-50362869D01*
X189945082Y-50254445D01*
X190407180Y-49945681D01*
X190715944Y-49483583D01*
X190797000Y-49076089D01*
X190797000Y-47784913D01*
X190715944Y-47377419D01*
X190407179Y-46915321D01*
X189945081Y-46606557D01*
X189400000Y-46498133D01*
X188854918Y-46606557D01*
X188392820Y-46915322D01*
X188130000Y-47308660D01*
X187867179Y-46915321D01*
X187405081Y-46606557D01*
X186860000Y-46498133D01*
X186314918Y-46606557D01*
X185852820Y-46915322D01*
X185590000Y-47308660D01*
X185327179Y-46915321D01*
X184865081Y-46606557D01*
X184320000Y-46498133D01*
X183774918Y-46606557D01*
X183312820Y-46915322D01*
X183050000Y-47308660D01*
X182787179Y-46915321D01*
X182325081Y-46606557D01*
X181780000Y-46498133D01*
X181234918Y-46606557D01*
X180772820Y-46915322D01*
X180510000Y-47308660D01*
X180247179Y-46915321D01*
X179785081Y-46606557D01*
X179240000Y-46498133D01*
X178694918Y-46606557D01*
X178232820Y-46915322D01*
X177970000Y-47308660D01*
X177707179Y-46915321D01*
X177245081Y-46606557D01*
X176700000Y-46498133D01*
X176154918Y-46606557D01*
X175692820Y-46915322D01*
X175430000Y-47308660D01*
X175167179Y-46915321D01*
X174705081Y-46606557D01*
X174160000Y-46498133D01*
X173614918Y-46606557D01*
X173152820Y-46915322D01*
X172890000Y-47308660D01*
X172627179Y-46915321D01*
X172165081Y-46606557D01*
X171620000Y-46498133D01*
X171074918Y-46606557D01*
X170612820Y-46915322D01*
X170304056Y-47377420D01*
X170223000Y-47784914D01*
X168953000Y-47784914D01*
X168953000Y-47784913D01*
X168871944Y-47377419D01*
X168563179Y-46915321D01*
X168101081Y-46606557D01*
X167556000Y-46498133D01*
X167010918Y-46606557D01*
X166548820Y-46915322D01*
X166286000Y-47308660D01*
X166023179Y-46915321D01*
X165561081Y-46606557D01*
X165016000Y-46498133D01*
X164470918Y-46606557D01*
X164008820Y-46915322D01*
X163746000Y-47308660D01*
X163483179Y-46915321D01*
X163021081Y-46606557D01*
X162476000Y-46498133D01*
X161930918Y-46606557D01*
X161468820Y-46915322D01*
X161206000Y-47308660D01*
X160943179Y-46915321D01*
X160481081Y-46606557D01*
X159936000Y-46498133D01*
X159390918Y-46606557D01*
X158928820Y-46915322D01*
X158666000Y-47308660D01*
X158403179Y-46915321D01*
X157941081Y-46606557D01*
X157396000Y-46498133D01*
X156850918Y-46606557D01*
X156388820Y-46915322D01*
X156126000Y-47308660D01*
X155863179Y-46915321D01*
X155401081Y-46606557D01*
X154856000Y-46498133D01*
X154310918Y-46606557D01*
X153848820Y-46915322D01*
X153574420Y-47325991D01*
X153558059Y-47270560D01*
X153214026Y-46844871D01*
X152733277Y-46583241D01*
X152659070Y-46568281D01*
X152443000Y-46690781D01*
X152189000Y-46690781D01*
X151972930Y-46568281D01*
X151898723Y-46583241D01*
X151417974Y-46844871D01*
X151073941Y-47270560D01*
X151057580Y-47325990D01*
X150783179Y-46915321D01*
X150321081Y-46606557D01*
X149776000Y-46498133D01*
X149230918Y-46606557D01*
X148768820Y-46915322D01*
X148460056Y-47377420D01*
X148379000Y-47784914D01*
X143690598Y-47784914D01*
X143347141Y-46955736D01*
X142727605Y-46336200D01*
X190519554Y-46336200D01*
X191511401Y-47328048D01*
X191511400Y-58381216D01*
X191497002Y-58453600D01*
X191511400Y-58525984D01*
X191511400Y-58525987D01*
X191554046Y-58740382D01*
X191716495Y-58983505D01*
X191777865Y-59024511D01*
X194051401Y-61298048D01*
X194051401Y-62099996D01*
X193414765Y-61463360D01*
X192457868Y-61067001D01*
X191422132Y-61067001D01*
X190465235Y-61463360D01*
X189732859Y-62195736D01*
X189336500Y-63152633D01*
X189336500Y-64188369D01*
X189732859Y-65145266D01*
X190465235Y-65877642D01*
X191422132Y-66274001D01*
X192457868Y-66274001D01*
X193414765Y-65877642D01*
X194051401Y-65241006D01*
X194051400Y-90039995D01*
X193414765Y-89403360D01*
X192457868Y-89007001D01*
X191422132Y-89007001D01*
X190465235Y-89403360D01*
X189732859Y-90135736D01*
X189336500Y-91092633D01*
X189336500Y-92128369D01*
X189732859Y-93085266D01*
X190465235Y-93817642D01*
X191422132Y-94214001D01*
X192457868Y-94214001D01*
X193414765Y-93817642D01*
X194051400Y-93181007D01*
X194051400Y-93963153D01*
X191777863Y-96236691D01*
X191716496Y-96277695D01*
X191675492Y-96339062D01*
X191675491Y-96339063D01*
X191554046Y-96520818D01*
X191497002Y-96807600D01*
X191511401Y-96879989D01*
X191511400Y-98765000D01*
X141477407Y-98765000D01*
X142077141Y-98165266D01*
X142473500Y-97208369D01*
X142473500Y-96172633D01*
X142077141Y-95215736D01*
X141344765Y-94483360D01*
X140387868Y-94087001D01*
X139352132Y-94087001D01*
X138395235Y-94483360D01*
X137965000Y-94913595D01*
X137965000Y-71235797D01*
X141294714Y-71235797D01*
X141314990Y-71337732D01*
X141314991Y-74798051D01*
X141294714Y-74899990D01*
X141375042Y-75303826D01*
X141455973Y-75424948D01*
X141603798Y-75646183D01*
X141690215Y-75703925D01*
X142146063Y-76159773D01*
X142203807Y-76246193D01*
X142531275Y-76465000D01*
X142546163Y-76474948D01*
X142672108Y-76500000D01*
X142546163Y-76525052D01*
X142203807Y-76753807D01*
X142146063Y-76840227D01*
X141690215Y-77296075D01*
X141603798Y-77353817D01*
X141546056Y-77440234D01*
X141375042Y-77696174D01*
X141294714Y-78100010D01*
X141314991Y-78201949D01*
X141314990Y-82326496D01*
X141294714Y-82428431D01*
X141314990Y-82530365D01*
X141375042Y-82832267D01*
X141603797Y-83174624D01*
X141690217Y-83232368D01*
X142717634Y-84259786D01*
X142775376Y-84346203D01*
X142963410Y-84471843D01*
X143117732Y-84574958D01*
X143521569Y-84655286D01*
X143623503Y-84635010D01*
X143676944Y-84635010D01*
X143551843Y-84822235D01*
X143502560Y-85070000D01*
X143502560Y-86770000D01*
X143551843Y-87017765D01*
X143692191Y-87227809D01*
X143902235Y-87368157D01*
X143947619Y-87377184D01*
X143929375Y-87389375D01*
X143601161Y-87880582D01*
X143485908Y-88460000D01*
X143601161Y-89039418D01*
X143929375Y-89530625D01*
X144227761Y-89730000D01*
X143929375Y-89929375D01*
X143601161Y-90420582D01*
X143485908Y-91000000D01*
X143601161Y-91579418D01*
X143929375Y-92070625D01*
X144420582Y-92398839D01*
X144853744Y-92485000D01*
X145146256Y-92485000D01*
X145579418Y-92398839D01*
X146070625Y-92070625D01*
X146271353Y-91770214D01*
X146658642Y-92195183D01*
X147183108Y-92441486D01*
X147413000Y-92320819D01*
X147413000Y-91127000D01*
X147667000Y-91127000D01*
X147667000Y-92320819D01*
X147896892Y-92441486D01*
X148421358Y-92195183D01*
X148592176Y-92007745D01*
X154671861Y-92007745D01*
X154745995Y-92253864D01*
X155283223Y-92446965D01*
X155853454Y-92419778D01*
X156254005Y-92253864D01*
X156328139Y-92007745D01*
X155500000Y-91179605D01*
X154671861Y-92007745D01*
X148592176Y-92007745D01*
X148811645Y-91766924D01*
X148981476Y-91356890D01*
X148860155Y-91127000D01*
X147667000Y-91127000D01*
X147413000Y-91127000D01*
X147393000Y-91127000D01*
X147393000Y-90873000D01*
X147413000Y-90873000D01*
X147413000Y-90853000D01*
X147667000Y-90853000D01*
X147667000Y-90873000D01*
X148860155Y-90873000D01*
X148981476Y-90643110D01*
X148811645Y-90233076D01*
X148421358Y-89804817D01*
X148291522Y-89743843D01*
X148610625Y-89530625D01*
X148938839Y-89039418D01*
X148978138Y-88841849D01*
X150096064Y-89959775D01*
X150153806Y-90046192D01*
X150240222Y-90103933D01*
X150496162Y-90274947D01*
X150899998Y-90355275D01*
X151001933Y-90334999D01*
X154214144Y-90334999D01*
X154053035Y-90783223D01*
X154080222Y-91353454D01*
X154246136Y-91754005D01*
X154492255Y-91828139D01*
X155320395Y-91000000D01*
X155306252Y-90985858D01*
X155485858Y-90806252D01*
X155500000Y-90820395D01*
X155514142Y-90806252D01*
X155693748Y-90985858D01*
X155679605Y-91000000D01*
X156507745Y-91828139D01*
X156555307Y-91813813D01*
X156601843Y-92047765D01*
X156742191Y-92257809D01*
X156952235Y-92398157D01*
X157200000Y-92447440D01*
X157265001Y-92447440D01*
X157265001Y-92498061D01*
X157244724Y-92600000D01*
X157325052Y-93003836D01*
X157325053Y-93003837D01*
X157553808Y-93346193D01*
X157640225Y-93403935D01*
X158565000Y-94328711D01*
X158565000Y-94828747D01*
X158374918Y-94866557D01*
X157912820Y-95175322D01*
X157604056Y-95637420D01*
X157523000Y-96044914D01*
X157523000Y-97336089D01*
X157604056Y-97743583D01*
X157912821Y-98205681D01*
X158374919Y-98514445D01*
X158920000Y-98622869D01*
X159465082Y-98514445D01*
X159927180Y-98205681D01*
X160190000Y-97812343D01*
X160452821Y-98205681D01*
X160914919Y-98514445D01*
X161460000Y-98622869D01*
X162005082Y-98514445D01*
X162467180Y-98205681D01*
X162730000Y-97812343D01*
X162992821Y-98205681D01*
X163454919Y-98514445D01*
X164000000Y-98622869D01*
X164545082Y-98514445D01*
X165007180Y-98205681D01*
X165281580Y-97795012D01*
X165297941Y-97850442D01*
X165641974Y-98276131D01*
X166122723Y-98537761D01*
X166196930Y-98552721D01*
X166413000Y-98430221D01*
X166413000Y-96817501D01*
X166667000Y-96817501D01*
X166667000Y-98430221D01*
X166883070Y-98552721D01*
X166957277Y-98537761D01*
X167438026Y-98276131D01*
X167782059Y-97850442D01*
X167810000Y-97755778D01*
X167837941Y-97850442D01*
X168181974Y-98276131D01*
X168662723Y-98537761D01*
X168736930Y-98552721D01*
X168953000Y-98430221D01*
X168953000Y-96817501D01*
X166667000Y-96817501D01*
X166413000Y-96817501D01*
X166393000Y-96817501D01*
X166393000Y-96563501D01*
X166413000Y-96563501D01*
X166413000Y-94950781D01*
X166667000Y-94950781D01*
X166667000Y-96563501D01*
X168953000Y-96563501D01*
X168953000Y-94950781D01*
X169207000Y-94950781D01*
X169207000Y-96563501D01*
X169227000Y-96563501D01*
X169227000Y-96817501D01*
X169207000Y-96817501D01*
X169207000Y-98430221D01*
X169423070Y-98552721D01*
X169497277Y-98537761D01*
X169978026Y-98276131D01*
X170322059Y-97850442D01*
X170338420Y-97795012D01*
X170612821Y-98205681D01*
X171074919Y-98514445D01*
X171620000Y-98622869D01*
X172165082Y-98514445D01*
X172627180Y-98205681D01*
X172935944Y-97743583D01*
X173017000Y-97336089D01*
X173017000Y-96044914D01*
X175303000Y-96044914D01*
X175303000Y-97336089D01*
X175384056Y-97743583D01*
X175692821Y-98205681D01*
X176154919Y-98514445D01*
X176700000Y-98622869D01*
X177245082Y-98514445D01*
X177707180Y-98205681D01*
X177970000Y-97812343D01*
X178232821Y-98205681D01*
X178694919Y-98514445D01*
X179240000Y-98622869D01*
X179785082Y-98514445D01*
X180247180Y-98205681D01*
X180510000Y-97812343D01*
X180772821Y-98205681D01*
X181234919Y-98514445D01*
X181780000Y-98622869D01*
X182325082Y-98514445D01*
X182787180Y-98205681D01*
X183050000Y-97812343D01*
X183312821Y-98205681D01*
X183774919Y-98514445D01*
X184320000Y-98622869D01*
X184865082Y-98514445D01*
X185327180Y-98205681D01*
X185590000Y-97812343D01*
X185852821Y-98205681D01*
X186314919Y-98514445D01*
X186860000Y-98622869D01*
X187405082Y-98514445D01*
X187867180Y-98205681D01*
X188130000Y-97812343D01*
X188392821Y-98205681D01*
X188854919Y-98514445D01*
X189400000Y-98622869D01*
X189945082Y-98514445D01*
X190407180Y-98205681D01*
X190715944Y-97743583D01*
X190797000Y-97336089D01*
X190797000Y-96044913D01*
X190715944Y-95637419D01*
X190407179Y-95175321D01*
X189945081Y-94866557D01*
X189400000Y-94758133D01*
X188854918Y-94866557D01*
X188392820Y-95175322D01*
X188130000Y-95568660D01*
X187867179Y-95175321D01*
X187405081Y-94866557D01*
X186860000Y-94758133D01*
X186314918Y-94866557D01*
X185852820Y-95175322D01*
X185590000Y-95568660D01*
X185327179Y-95175321D01*
X184865081Y-94866557D01*
X184320000Y-94758133D01*
X183774918Y-94866557D01*
X183312820Y-95175322D01*
X183050000Y-95568660D01*
X182787179Y-95175321D01*
X182325081Y-94866557D01*
X181780000Y-94758133D01*
X181234918Y-94866557D01*
X180772820Y-95175322D01*
X180510000Y-95568660D01*
X180247179Y-95175321D01*
X179785081Y-94866557D01*
X179240000Y-94758133D01*
X178694918Y-94866557D01*
X178232820Y-95175322D01*
X177970000Y-95568660D01*
X177707179Y-95175321D01*
X177245081Y-94866557D01*
X176700000Y-94758133D01*
X176154918Y-94866557D01*
X175692820Y-95175322D01*
X175384056Y-95637420D01*
X175303000Y-96044914D01*
X173017000Y-96044914D01*
X173017000Y-96044913D01*
X172935944Y-95637419D01*
X172627179Y-95175321D01*
X172165081Y-94866557D01*
X171620000Y-94758133D01*
X171074918Y-94866557D01*
X170612820Y-95175322D01*
X170338420Y-95585991D01*
X170322059Y-95530560D01*
X169978026Y-95104871D01*
X169497277Y-94843241D01*
X169423070Y-94828281D01*
X169207000Y-94950781D01*
X168953000Y-94950781D01*
X168736930Y-94828281D01*
X168662723Y-94843241D01*
X168181974Y-95104871D01*
X167837941Y-95530560D01*
X167810000Y-95625224D01*
X167782059Y-95530560D01*
X167438026Y-95104871D01*
X166957277Y-94843241D01*
X166883070Y-94828281D01*
X166667000Y-94950781D01*
X166413000Y-94950781D01*
X166196930Y-94828281D01*
X166122723Y-94843241D01*
X165641974Y-95104871D01*
X165297941Y-95530560D01*
X165281580Y-95585990D01*
X165007179Y-95175321D01*
X164545081Y-94866557D01*
X164000000Y-94758133D01*
X163934811Y-94771100D01*
X160735001Y-91571291D01*
X160735001Y-89581928D01*
X160755276Y-89479998D01*
X160735001Y-89378069D01*
X160735001Y-89378064D01*
X160674949Y-89076162D01*
X160446194Y-88733806D01*
X160359774Y-88676062D01*
X160323938Y-88640226D01*
X160266194Y-88553806D01*
X159923838Y-88325051D01*
X159621936Y-88264999D01*
X159621935Y-88264999D01*
X159520001Y-88244723D01*
X159418067Y-88264999D01*
X151328710Y-88264999D01*
X149042415Y-85978705D01*
X149054092Y-85920000D01*
X148938839Y-85340582D01*
X148610625Y-84849375D01*
X148575000Y-84825571D01*
X148575000Y-84819853D01*
X148586905Y-84760000D01*
X177574724Y-84760000D01*
X177595001Y-84861939D01*
X177595000Y-85748067D01*
X177574724Y-85850002D01*
X177595000Y-85951936D01*
X177655052Y-86253838D01*
X177883807Y-86596195D01*
X177970227Y-86653939D01*
X178726064Y-87409777D01*
X178783806Y-87496194D01*
X178870222Y-87553935D01*
X179126162Y-87724949D01*
X179529999Y-87805277D01*
X179631933Y-87785001D01*
X186198067Y-87785001D01*
X186300001Y-87805277D01*
X186401935Y-87785001D01*
X186401936Y-87785001D01*
X186703838Y-87724949D01*
X187046194Y-87496194D01*
X187103938Y-87409774D01*
X188016273Y-86497440D01*
X188850000Y-86497440D01*
X189097765Y-86448157D01*
X189307809Y-86307809D01*
X189448157Y-86097765D01*
X189497440Y-85850000D01*
X189497440Y-84150000D01*
X189448157Y-83902235D01*
X189307809Y-83692191D01*
X189097765Y-83551843D01*
X188850000Y-83502560D01*
X187150000Y-83502560D01*
X186902235Y-83551843D01*
X186692191Y-83692191D01*
X186551843Y-83902235D01*
X186542816Y-83947619D01*
X186530625Y-83929375D01*
X186039418Y-83601161D01*
X185606256Y-83515000D01*
X185313744Y-83515000D01*
X184880582Y-83601161D01*
X184389375Y-83929375D01*
X184365571Y-83965000D01*
X181723277Y-83965000D01*
X181607809Y-83792191D01*
X181397765Y-83651843D01*
X181150000Y-83602560D01*
X180150000Y-83602560D01*
X180000000Y-83632397D01*
X179850000Y-83602560D01*
X178850000Y-83602560D01*
X178602235Y-83651843D01*
X178477779Y-83735003D01*
X178226164Y-83785052D01*
X177883808Y-84013807D01*
X177792807Y-84150000D01*
X177655052Y-84356164D01*
X177574724Y-84760000D01*
X148586905Y-84760000D01*
X148595276Y-84717918D01*
X148514948Y-84314082D01*
X148498655Y-84289698D01*
X148286193Y-83971726D01*
X148199776Y-83913984D01*
X147226028Y-82940237D01*
X147168284Y-82853817D01*
X146982042Y-82729374D01*
X147284334Y-82276963D01*
X147418990Y-81600000D01*
X147284334Y-80923037D01*
X146900865Y-80349135D01*
X146691724Y-80209392D01*
X146804641Y-80040400D01*
X146818559Y-79970431D01*
X146929649Y-79896203D01*
X146987393Y-79809783D01*
X148459776Y-78337401D01*
X148546193Y-78279659D01*
X148774948Y-77937303D01*
X148835000Y-77635401D01*
X148835000Y-77635396D01*
X148855275Y-77533467D01*
X148835000Y-77431537D01*
X148835000Y-72128710D01*
X149328710Y-71635000D01*
X149825222Y-71635000D01*
X150426153Y-71386086D01*
X150777239Y-71035000D01*
X150971290Y-71035000D01*
X150996063Y-71059773D01*
X151053807Y-71146193D01*
X151396163Y-71374948D01*
X151698065Y-71435000D01*
X151698070Y-71435000D01*
X151799999Y-71455275D01*
X151901929Y-71435000D01*
X154175428Y-71435000D01*
X155508772Y-72768345D01*
X155566514Y-72854762D01*
X155908870Y-73083517D01*
X156210772Y-73143569D01*
X156210777Y-73143569D01*
X156312706Y-73163844D01*
X156414636Y-73143569D01*
X156611141Y-73143569D01*
X156878131Y-73543146D01*
X157352799Y-73860309D01*
X157912707Y-73971682D01*
X158472616Y-73860309D01*
X158947284Y-73543146D01*
X159182707Y-73190810D01*
X159418131Y-73543146D01*
X159892799Y-73860309D01*
X160452707Y-73971682D01*
X161012616Y-73860309D01*
X161487284Y-73543146D01*
X161722707Y-73190810D01*
X161958131Y-73543146D01*
X162432799Y-73860309D01*
X162992707Y-73971682D01*
X163552616Y-73860309D01*
X164027284Y-73543146D01*
X164262707Y-73190810D01*
X164498131Y-73543146D01*
X164972799Y-73860309D01*
X165532707Y-73971682D01*
X166092616Y-73860309D01*
X166567284Y-73543146D01*
X166884447Y-73068478D01*
X166967707Y-72649901D01*
X166967707Y-71567236D01*
X166884447Y-71148660D01*
X166567707Y-70674627D01*
X166567707Y-69927380D01*
X166609232Y-69899634D01*
X166937446Y-69408427D01*
X167052699Y-68829009D01*
X166937446Y-68249591D01*
X166609232Y-67758384D01*
X166118025Y-67430170D01*
X165684863Y-67344009D01*
X165392351Y-67344009D01*
X164959189Y-67430170D01*
X164467982Y-67758384D01*
X164268607Y-68056770D01*
X164069232Y-67758384D01*
X163578025Y-67430170D01*
X163144863Y-67344009D01*
X162852351Y-67344009D01*
X162419189Y-67430170D01*
X161927982Y-67758384D01*
X161728607Y-68056770D01*
X161529232Y-67758384D01*
X161038025Y-67430170D01*
X160604863Y-67344009D01*
X160312351Y-67344009D01*
X159879189Y-67430170D01*
X159387982Y-67758384D01*
X159375791Y-67776628D01*
X159366764Y-67731244D01*
X159226416Y-67521200D01*
X159016372Y-67380852D01*
X158768607Y-67331569D01*
X157068607Y-67331569D01*
X156820842Y-67380852D01*
X156610798Y-67521200D01*
X156470450Y-67731244D01*
X156457965Y-67794009D01*
X153057720Y-67794009D01*
X152435001Y-67171291D01*
X152435001Y-62689933D01*
X152455277Y-62587999D01*
X152374949Y-62184162D01*
X152316151Y-62096165D01*
X152146194Y-61841806D01*
X152059777Y-61784064D01*
X151215938Y-60940226D01*
X151158194Y-60853806D01*
X150815838Y-60625051D01*
X150513936Y-60564999D01*
X150513935Y-60564999D01*
X150412001Y-60544723D01*
X150310067Y-60564999D01*
X148689933Y-60564999D01*
X148587998Y-60544723D01*
X148486064Y-60564999D01*
X148184162Y-60625051D01*
X147841806Y-60853806D01*
X147784064Y-60940223D01*
X147259287Y-61465001D01*
X146101933Y-61465001D01*
X145999998Y-61444725D01*
X145898064Y-61465001D01*
X145596162Y-61525053D01*
X145253806Y-61753808D01*
X145196064Y-61840225D01*
X145171289Y-61865000D01*
X144674778Y-61865000D01*
X144073847Y-62113914D01*
X143613914Y-62573847D01*
X143365000Y-63174778D01*
X143365000Y-63825222D01*
X143613914Y-64426153D01*
X143965000Y-64777239D01*
X143965001Y-68722760D01*
X143722761Y-68965000D01*
X143687721Y-68965000D01*
X143585787Y-68944724D01*
X143483852Y-68965000D01*
X143181950Y-69025052D01*
X142839594Y-69253807D01*
X142781853Y-69340223D01*
X141690217Y-70431860D01*
X141603797Y-70489604D01*
X141393834Y-70803837D01*
X141375042Y-70831961D01*
X141294714Y-71235797D01*
X137965000Y-71235797D01*
X137965000Y-46336200D01*
X139552395Y-46336200D01*
X138932859Y-46955736D01*
G04 #@! TD*
M02*
